<svg width="1363" height="163" viewBox="0 0 1363 163" fill="none" xmlns="http://www.w3.org/2000/svg">
<path d="M0 15C0 6.71573 6.71573 0 15 0H37V163H15C6.71573 163 0 156.284 0 148V15Z" fill="#424242"/>
<rect width="1097" height="163" transform="translate(37)" fill="#F0F0F0"/>
<path d="M101.906 53.9219L94.3945 51.2383V48.0859L104.602 52.375V54.6367L101.906 53.9219ZM94.3945 56.1719L101.918 53.4297L104.602 52.7852V55.0352L94.3945 59.3242V56.1719ZM119.543 54.918H115.195V52.1758H119.543C120.215 52.1758 120.762 52.0664 121.184 51.8477C121.605 51.6211 121.914 51.3086 122.109 50.9102C122.305 50.5117 122.402 50.0625 122.402 49.5625C122.402 49.0547 122.305 48.582 122.109 48.1445C121.914 47.707 121.605 47.3555 121.184 47.0898C120.762 46.8242 120.215 46.6914 119.543 46.6914H116.414V61H112.898V43.9375H119.543C120.879 43.9375 122.023 44.1797 122.977 44.6641C123.938 45.1406 124.672 45.8008 125.18 46.6445C125.688 47.4883 125.941 48.4531 125.941 49.5391C125.941 50.6406 125.688 51.5938 125.18 52.3984C124.672 53.2031 123.938 53.8242 122.977 54.2617C122.023 54.6992 120.879 54.918 119.543 54.918ZM131.719 43V61H128.332V43H131.719ZM141.352 58.1406V52.4922C141.352 52.0859 141.285 51.7383 141.152 51.4492C141.02 51.1523 140.812 50.9219 140.531 50.7578C140.258 50.5938 139.902 50.5117 139.465 50.5117C139.09 50.5117 138.766 50.5781 138.492 50.7109C138.219 50.8359 138.008 51.0195 137.859 51.2617C137.711 51.4961 137.637 51.7734 137.637 52.0938H134.262C134.262 51.5547 134.387 51.043 134.637 50.5586C134.887 50.0742 135.25 49.6484 135.727 49.2812C136.203 48.9062 136.77 48.6133 137.426 48.4023C138.09 48.1914 138.832 48.0859 139.652 48.0859C140.637 48.0859 141.512 48.25 142.277 48.5781C143.043 48.9062 143.645 49.3984 144.082 50.0547C144.527 50.7109 144.75 51.5312 144.75 52.5156V57.9414C144.75 58.6367 144.793 59.207 144.879 59.6523C144.965 60.0898 145.09 60.4727 145.254 60.8008V61H141.844C141.68 60.6562 141.555 60.2266 141.469 59.7109C141.391 59.1875 141.352 58.6641 141.352 58.1406ZM141.797 53.2773L141.82 55.1875H139.934C139.488 55.1875 139.102 55.2383 138.773 55.3398C138.445 55.4414 138.176 55.5859 137.965 55.7734C137.754 55.9531 137.598 56.1641 137.496 56.4062C137.402 56.6484 137.355 56.9141 137.355 57.2031C137.355 57.4922 137.422 57.7539 137.555 57.9883C137.688 58.2148 137.879 58.3945 138.129 58.5273C138.379 58.6523 138.672 58.7148 139.008 58.7148C139.516 58.7148 139.957 58.6133 140.332 58.4102C140.707 58.207 140.996 57.957 141.199 57.6602C141.41 57.3633 141.52 57.082 141.527 56.8164L142.418 58.2461C142.293 58.5664 142.121 58.8984 141.902 59.2422C141.691 59.5859 141.422 59.9102 141.094 60.2148C140.766 60.5117 140.371 60.7578 139.91 60.9531C139.449 61.1406 138.902 61.2344 138.27 61.2344C137.465 61.2344 136.734 61.0742 136.078 60.7539C135.43 60.4258 134.914 59.9766 134.531 59.4062C134.156 58.8281 133.969 58.1719 133.969 57.4375C133.969 56.7734 134.094 56.1836 134.344 55.668C134.594 55.1523 134.961 54.7188 135.445 54.3672C135.938 54.0078 136.551 53.7383 137.285 53.5586C138.02 53.3711 138.871 53.2773 139.84 53.2773H141.797ZM150.656 51.0273V61H147.281V48.3203H150.445L150.656 51.0273ZM150.164 54.2148H149.25C149.25 53.2773 149.371 52.4336 149.613 51.6836C149.855 50.9258 150.195 50.2812 150.633 49.75C151.07 49.2109 151.59 48.8008 152.191 48.5195C152.801 48.2305 153.48 48.0859 154.23 48.0859C154.824 48.0859 155.367 48.1719 155.859 48.3438C156.352 48.5156 156.773 48.7891 157.125 49.1641C157.484 49.5391 157.758 50.0352 157.945 50.6523C158.141 51.2695 158.238 52.0234 158.238 52.9141V61H154.84V52.9023C154.84 52.3398 154.762 51.9023 154.605 51.5898C154.449 51.2773 154.219 51.0586 153.914 50.9336C153.617 50.8008 153.25 50.7344 152.812 50.7344C152.359 50.7344 151.965 50.8242 151.629 51.0039C151.301 51.1836 151.027 51.4336 150.809 51.7539C150.598 52.0664 150.438 52.4336 150.328 52.8555C150.219 53.2773 150.164 53.7305 150.164 54.2148ZM173.93 46.8555L169.289 61H165.551L171.891 43.9375H174.27L173.93 46.8555ZM177.785 61L173.133 46.8555L172.758 43.9375H175.16L181.535 61H177.785ZM177.574 54.6484V57.4023H168.562V54.6484H177.574ZM190.395 58.2344V43H193.793V61H190.734L190.395 58.2344ZM182.379 54.8125V54.5664C182.379 53.5977 182.488 52.7188 182.707 51.9297C182.926 51.1328 183.246 50.4492 183.668 49.8789C184.09 49.3086 184.609 48.8672 185.227 48.5547C185.844 48.2422 186.547 48.0859 187.336 48.0859C188.078 48.0859 188.727 48.2422 189.281 48.5547C189.844 48.8672 190.32 49.3125 190.711 49.8906C191.109 50.4609 191.43 51.1367 191.672 51.918C191.914 52.6914 192.09 53.5391 192.199 54.4609V55C192.09 55.8828 191.914 56.7031 191.672 57.4609C191.43 58.2188 191.109 58.8828 190.711 59.4531C190.32 60.0156 189.844 60.4531 189.281 60.7656C188.719 61.0781 188.062 61.2344 187.312 61.2344C186.523 61.2344 185.82 61.0742 185.203 60.7539C184.594 60.4336 184.078 59.9844 183.656 59.4062C183.242 58.8281 182.926 58.1484 182.707 57.3672C182.488 56.5859 182.379 55.7344 182.379 54.8125ZM185.754 54.5664V54.8125C185.754 55.3359 185.793 55.8242 185.871 56.2773C185.957 56.7305 186.094 57.1328 186.281 57.4844C186.477 57.8281 186.727 58.0977 187.031 58.293C187.344 58.4805 187.723 58.5742 188.168 58.5742C188.746 58.5742 189.223 58.4453 189.598 58.1875C189.973 57.9219 190.258 57.5586 190.453 57.0977C190.656 56.6367 190.773 56.1055 190.805 55.5039V53.9688C190.781 53.4766 190.711 53.0352 190.594 52.6445C190.484 52.2461 190.32 51.9062 190.102 51.625C189.891 51.3438 189.625 51.125 189.305 50.9688C188.992 50.8125 188.621 50.7344 188.191 50.7344C187.754 50.7344 187.379 50.8359 187.066 51.0391C186.754 51.2344 186.5 51.5039 186.305 51.8477C186.117 52.1914 185.977 52.5977 185.883 53.0664C185.797 53.5273 185.754 54.0273 185.754 54.5664ZM200.742 58.5391L203.555 48.3203H207.082L202.805 61H200.672L200.742 58.5391ZM198.809 48.3203L201.633 58.5508L201.691 61H199.547L195.27 48.3203H198.809ZM214.266 61.2344C213.281 61.2344 212.398 61.0781 211.617 60.7656C210.836 60.4453 210.172 60.0039 209.625 59.4414C209.086 58.8789 208.672 58.2266 208.383 57.4844C208.094 56.7344 207.949 55.9375 207.949 55.0938V54.625C207.949 53.6641 208.086 52.7852 208.359 51.9883C208.633 51.1914 209.023 50.5 209.531 49.9141C210.047 49.3281 210.672 48.8789 211.406 48.5664C212.141 48.2461 212.969 48.0859 213.891 48.0859C214.789 48.0859 215.586 48.2344 216.281 48.5312C216.977 48.8281 217.559 49.25 218.027 49.7969C218.504 50.3438 218.863 51 219.105 51.7656C219.348 52.5234 219.469 53.3672 219.469 54.2969V55.7031H209.391V53.4531H216.152V53.1953C216.152 52.7266 216.066 52.3086 215.895 51.9414C215.73 51.5664 215.48 51.2695 215.145 51.0508C214.809 50.832 214.379 50.7227 213.855 50.7227C213.41 50.7227 213.027 50.8203 212.707 51.0156C212.387 51.2109 212.125 51.4844 211.922 51.8359C211.727 52.1875 211.578 52.6016 211.477 53.0781C211.383 53.5469 211.336 54.0625 211.336 54.625V55.0938C211.336 55.6016 211.406 56.0703 211.547 56.5C211.695 56.9297 211.902 57.3008 212.168 57.6133C212.441 57.9258 212.77 58.168 213.152 58.3398C213.543 58.5117 213.984 58.5977 214.477 58.5977C215.086 58.5977 215.652 58.4805 216.176 58.2461C216.707 58.0039 217.164 57.6406 217.547 57.1562L219.188 58.9375C218.922 59.3203 218.559 59.6875 218.098 60.0391C217.645 60.3906 217.098 60.6797 216.457 60.9062C215.816 61.125 215.086 61.2344 214.266 61.2344ZM224.695 51.0273V61H221.32V48.3203H224.484L224.695 51.0273ZM224.203 54.2148H223.289C223.289 53.2773 223.41 52.4336 223.652 51.6836C223.895 50.9258 224.234 50.2812 224.672 49.75C225.109 49.2109 225.629 48.8008 226.23 48.5195C226.84 48.2305 227.52 48.0859 228.27 48.0859C228.863 48.0859 229.406 48.1719 229.898 48.3438C230.391 48.5156 230.812 48.7891 231.164 49.1641C231.523 49.5391 231.797 50.0352 231.984 50.6523C232.18 51.2695 232.277 52.0234 232.277 52.9141V61H228.879V52.9023C228.879 52.3398 228.801 51.9023 228.645 51.5898C228.488 51.2773 228.258 51.0586 227.953 50.9336C227.656 50.8008 227.289 50.7344 226.852 50.7344C226.398 50.7344 226.004 50.8242 225.668 51.0039C225.34 51.1836 225.066 51.4336 224.848 51.7539C224.637 52.0664 224.477 52.4336 224.367 52.8555C224.258 53.2773 224.203 53.7305 224.203 54.2148ZM241.055 48.3203V50.7109H233.672V48.3203H241.055ZM235.5 45.1914H238.875V57.1797C238.875 57.5469 238.922 57.8281 239.016 58.0234C239.117 58.2188 239.266 58.3555 239.461 58.4336C239.656 58.5039 239.902 58.5391 240.199 58.5391C240.41 58.5391 240.598 58.5312 240.762 58.5156C240.934 58.4922 241.078 58.4688 241.195 58.4453L241.207 60.9297C240.918 61.0234 240.605 61.0977 240.27 61.1523C239.934 61.207 239.562 61.2344 239.156 61.2344C238.414 61.2344 237.766 61.1133 237.211 60.8711C236.664 60.6211 236.242 60.2227 235.945 59.6758C235.648 59.1289 235.5 58.4102 235.5 57.5195V45.1914ZM250.477 57.9648V48.3203H253.852V61H250.676L250.477 57.9648ZM250.852 55.3633L251.848 55.3398C251.848 56.1836 251.75 56.9688 251.555 57.6953C251.359 58.4141 251.066 59.0391 250.676 59.5703C250.285 60.0938 249.793 60.5039 249.199 60.8008C248.605 61.0898 247.906 61.2344 247.102 61.2344C246.484 61.2344 245.914 61.1484 245.391 60.9766C244.875 60.7969 244.43 60.5195 244.055 60.1445C243.688 59.7617 243.398 59.2734 243.188 58.6797C242.984 58.0781 242.883 57.3555 242.883 56.5117V48.3203H246.258V56.5352C246.258 56.9102 246.301 57.2266 246.387 57.4844C246.48 57.7422 246.609 57.9531 246.773 58.1172C246.938 58.2812 247.129 58.3984 247.348 58.4688C247.574 58.5391 247.824 58.5742 248.098 58.5742C248.793 58.5742 249.34 58.4336 249.738 58.1523C250.145 57.8711 250.43 57.4883 250.594 57.0039C250.766 56.5117 250.852 55.9648 250.852 55.3633ZM259.805 51.0859V61H256.43V48.3203H259.605L259.805 51.0859ZM263.625 48.2383L263.566 51.3672C263.402 51.3438 263.203 51.3242 262.969 51.3086C262.742 51.2852 262.535 51.2734 262.348 51.2734C261.871 51.2734 261.457 51.3359 261.105 51.4609C260.762 51.5781 260.473 51.7539 260.238 51.9883C260.012 52.2227 259.84 52.5078 259.723 52.8438C259.613 53.1797 259.551 53.5625 259.535 53.9922L258.855 53.7812C258.855 52.9609 258.938 52.207 259.102 51.5195C259.266 50.8242 259.504 50.2188 259.816 49.7031C260.137 49.1875 260.527 48.7891 260.988 48.5078C261.449 48.2266 261.977 48.0859 262.57 48.0859C262.758 48.0859 262.949 48.1016 263.145 48.1328C263.34 48.1562 263.5 48.1914 263.625 48.2383ZM270.82 61.2344C269.836 61.2344 268.953 61.0781 268.172 60.7656C267.391 60.4453 266.727 60.0039 266.18 59.4414C265.641 58.8789 265.227 58.2266 264.938 57.4844C264.648 56.7344 264.504 55.9375 264.504 55.0938V54.625C264.504 53.6641 264.641 52.7852 264.914 51.9883C265.188 51.1914 265.578 50.5 266.086 49.9141C266.602 49.3281 267.227 48.8789 267.961 48.5664C268.695 48.2461 269.523 48.0859 270.445 48.0859C271.344 48.0859 272.141 48.2344 272.836 48.5312C273.531 48.8281 274.113 49.25 274.582 49.7969C275.059 50.3438 275.418 51 275.66 51.7656C275.902 52.5234 276.023 53.3672 276.023 54.2969V55.7031H265.945V53.4531H272.707V53.1953C272.707 52.7266 272.621 52.3086 272.449 51.9414C272.285 51.5664 272.035 51.2695 271.699 51.0508C271.363 50.832 270.934 50.7227 270.41 50.7227C269.965 50.7227 269.582 50.8203 269.262 51.0156C268.941 51.2109 268.68 51.4844 268.477 51.8359C268.281 52.1875 268.133 52.6016 268.031 53.0781C267.938 53.5469 267.891 54.0625 267.891 54.625V55.0938C267.891 55.6016 267.961 56.0703 268.102 56.5C268.25 56.9297 268.457 57.3008 268.723 57.6133C268.996 57.9258 269.324 58.168 269.707 58.3398C270.098 58.5117 270.539 58.5977 271.031 58.5977C271.641 58.5977 272.207 58.4805 272.73 58.2461C273.262 58.0039 273.719 57.6406 274.102 57.1562L275.742 58.9375C275.477 59.3203 275.113 59.6875 274.652 60.0391C274.199 60.3906 273.652 60.6797 273.012 60.9062C272.371 61.125 271.641 61.2344 270.82 61.2344ZM284.801 57.4961C284.801 57.2539 284.73 57.0352 284.59 56.8398C284.449 56.6445 284.188 56.4648 283.805 56.3008C283.43 56.1289 282.887 55.9727 282.176 55.832C281.535 55.6914 280.938 55.5156 280.383 55.3047C279.836 55.0859 279.359 54.8242 278.953 54.5195C278.555 54.2148 278.242 53.8555 278.016 53.4414C277.789 53.0195 277.676 52.5391 277.676 52C277.676 51.4688 277.789 50.9688 278.016 50.5C278.25 50.0312 278.582 49.6172 279.012 49.2578C279.449 48.8906 279.98 48.6055 280.605 48.4023C281.238 48.1914 281.949 48.0859 282.738 48.0859C283.84 48.0859 284.785 48.2617 285.574 48.6133C286.371 48.9648 286.98 49.4492 287.402 50.0664C287.832 50.6758 288.047 51.3711 288.047 52.1523H284.672C284.672 51.8242 284.602 51.5312 284.461 51.2734C284.328 51.0078 284.117 50.8008 283.828 50.6523C283.547 50.4961 283.18 50.418 282.727 50.418C282.352 50.418 282.027 50.4844 281.754 50.6172C281.48 50.7422 281.27 50.9141 281.121 51.1328C280.98 51.3438 280.91 51.5781 280.91 51.8359C280.91 52.0312 280.949 52.207 281.027 52.3633C281.113 52.5117 281.25 52.6484 281.438 52.7734C281.625 52.8984 281.867 53.0156 282.164 53.125C282.469 53.2266 282.844 53.3203 283.289 53.4062C284.203 53.5938 285.02 53.8398 285.738 54.1445C286.457 54.4414 287.027 54.8477 287.449 55.3633C287.871 55.8711 288.082 56.5391 288.082 57.3672C288.082 57.9297 287.957 58.4453 287.707 58.9141C287.457 59.3828 287.098 59.793 286.629 60.1445C286.16 60.4883 285.598 60.7578 284.941 60.9531C284.293 61.1406 283.562 61.2344 282.75 61.2344C281.57 61.2344 280.57 61.0234 279.75 60.6016C278.938 60.1797 278.32 59.6445 277.898 58.9961C277.484 58.3398 277.277 57.668 277.277 56.9805H280.477C280.492 57.4414 280.609 57.8125 280.828 58.0938C281.055 58.375 281.34 58.5781 281.684 58.7031C282.035 58.8281 282.414 58.8906 282.82 58.8906C283.258 58.8906 283.621 58.832 283.91 58.7148C284.199 58.5898 284.418 58.4258 284.566 58.2227C284.723 58.0117 284.801 57.7695 284.801 57.4961Z" fill="#888888"/>
<path d="M104.344 84.875V119H96.1406V84.875H104.344ZM117.727 99.0078V119H109.828V93.6406H117.234L117.727 99.0078ZM116.766 105.453L114.961 105.5C114.961 103.719 115.172 102.078 115.594 100.578C116.016 99.0781 116.641 97.7734 117.469 96.6641C118.297 95.5547 119.312 94.6953 120.516 94.0859C121.734 93.4766 123.141 93.1719 124.734 93.1719C125.844 93.1719 126.852 93.3438 127.758 93.6875C128.664 94.0156 129.445 94.5391 130.102 95.2578C130.758 95.9609 131.258 96.8828 131.602 98.0234C131.961 99.1484 132.141 100.5 132.141 102.078V119H124.242V103.086C124.242 102.008 124.117 101.195 123.867 100.648C123.633 100.102 123.289 99.7344 122.836 99.5469C122.383 99.3594 121.828 99.2656 121.172 99.2656C120.484 99.2656 119.867 99.4219 119.32 99.7344C118.773 100.047 118.305 100.484 117.914 101.047C117.539 101.594 117.25 102.242 117.047 102.992C116.859 103.742 116.766 104.562 116.766 105.453ZM131.25 105.453L129.047 105.5C129.047 103.719 129.242 102.078 129.633 100.578C130.039 99.0781 130.641 97.7734 131.438 96.6641C132.25 95.5547 133.258 94.6953 134.461 94.0859C135.664 93.4766 137.062 93.1719 138.656 93.1719C139.812 93.1719 140.875 93.3438 141.844 93.6875C142.812 94.0312 143.648 94.5859 144.352 95.3516C145.055 96.1172 145.602 97.1328 145.992 98.3984C146.383 99.6484 146.578 101.195 146.578 103.039V119H138.656V103.039C138.656 101.992 138.531 101.203 138.281 100.672C138.047 100.125 137.703 99.7578 137.25 99.5703C136.797 99.3672 136.258 99.2656 135.633 99.2656C134.883 99.2656 134.234 99.4219 133.688 99.7344C133.141 100.047 132.68 100.484 132.305 101.047C131.945 101.594 131.68 102.242 131.508 102.992C131.336 103.742 131.25 104.562 131.25 105.453ZM159.07 98.5156V128.75H151.172V93.6406H158.531L159.07 98.5156ZM174.633 106.016V106.508C174.633 108.352 174.422 110.062 174 111.641C173.578 113.219 172.953 114.594 172.125 115.766C171.297 116.938 170.266 117.852 169.031 118.508C167.812 119.148 166.398 119.469 164.789 119.469C163.273 119.469 161.969 119.133 160.875 118.461C159.781 117.789 158.867 116.859 158.133 115.672C157.398 114.484 156.805 113.125 156.352 111.594C155.898 110.062 155.539 108.445 155.273 106.742V106.109C155.539 104.281 155.898 102.586 156.352 101.023C156.805 99.4453 157.398 98.0703 158.133 96.8984C158.867 95.7266 159.773 94.8125 160.852 94.1562C161.945 93.5 163.25 93.1719 164.766 93.1719C166.375 93.1719 167.789 93.4766 169.008 94.0859C170.242 94.6953 171.273 95.5703 172.102 96.7109C172.945 97.8359 173.578 99.1875 174 100.766C174.422 102.344 174.633 104.094 174.633 106.016ZM166.734 106.508V106.016C166.734 105.031 166.664 104.133 166.523 103.32C166.383 102.492 166.156 101.773 165.844 101.164C165.547 100.555 165.148 100.086 164.648 99.7578C164.148 99.4297 163.531 99.2656 162.797 99.2656C161.953 99.2656 161.242 99.3984 160.664 99.6641C160.102 99.9141 159.648 100.305 159.305 100.836C158.977 101.352 158.742 102 158.602 102.781C158.477 103.547 158.422 104.445 158.438 105.477V107.398C158.406 108.586 158.523 109.633 158.789 110.539C159.055 111.43 159.516 112.125 160.172 112.625C160.828 113.125 161.719 113.375 162.844 113.375C163.594 113.375 164.219 113.203 164.719 112.859C165.219 112.5 165.617 112.008 165.914 111.383C166.211 110.742 166.422 110.008 166.547 109.18C166.672 108.352 166.734 107.461 166.734 106.508ZM186.492 83V119H178.57V83H186.492ZM203.648 119.469C201.586 119.469 199.742 119.148 198.117 118.508C196.492 117.852 195.117 116.953 193.992 115.812C192.883 114.672 192.031 113.359 191.438 111.875C190.859 110.391 190.57 108.82 190.57 107.164V106.273C190.57 104.414 190.828 102.695 191.344 101.117C191.859 99.5234 192.625 98.1328 193.641 96.9453C194.656 95.7578 195.93 94.8359 197.461 94.1797C198.992 93.5078 200.773 93.1719 202.805 93.1719C204.602 93.1719 206.211 93.4609 207.633 94.0391C209.055 94.6172 210.258 95.4453 211.242 96.5234C212.242 97.6016 213 98.9062 213.516 100.438C214.047 101.969 214.312 103.688 214.312 105.594V108.805H193.594V103.859H206.602V103.25C206.617 102.406 206.469 101.688 206.156 101.094C205.859 100.5 205.422 100.047 204.844 99.7344C204.266 99.4219 203.562 99.2656 202.734 99.2656C201.875 99.2656 201.164 99.4531 200.602 99.8281C200.055 100.203 199.625 100.719 199.312 101.375C199.016 102.016 198.805 102.758 198.68 103.602C198.555 104.445 198.492 105.336 198.492 106.273V107.164C198.492 108.102 198.617 108.953 198.867 109.719C199.133 110.484 199.508 111.141 199.992 111.688C200.492 112.219 201.086 112.633 201.773 112.93C202.477 113.227 203.273 113.375 204.164 113.375C205.242 113.375 206.305 113.172 207.352 112.766C208.398 112.359 209.297 111.688 210.047 110.75L213.633 115.016C213.117 115.75 212.383 116.461 211.43 117.148C210.492 117.836 209.367 118.398 208.055 118.836C206.742 119.258 205.273 119.469 203.648 119.469ZM225.492 99.0078V119H217.594V93.6406H225L225.492 99.0078ZM224.531 105.453L222.727 105.5C222.727 103.719 222.938 102.078 223.359 100.578C223.781 99.0781 224.406 97.7734 225.234 96.6641C226.062 95.5547 227.078 94.6953 228.281 94.0859C229.5 93.4766 230.906 93.1719 232.5 93.1719C233.609 93.1719 234.617 93.3438 235.523 93.6875C236.43 94.0156 237.211 94.5391 237.867 95.2578C238.523 95.9609 239.023 96.8828 239.367 98.0234C239.727 99.1484 239.906 100.5 239.906 102.078V119H232.008V103.086C232.008 102.008 231.883 101.195 231.633 100.648C231.398 100.102 231.055 99.7344 230.602 99.5469C230.148 99.3594 229.594 99.2656 228.938 99.2656C228.25 99.2656 227.633 99.4219 227.086 99.7344C226.539 100.047 226.07 100.484 225.68 101.047C225.305 101.594 225.016 102.242 224.812 102.992C224.625 103.742 224.531 104.562 224.531 105.453ZM239.016 105.453L236.812 105.5C236.812 103.719 237.008 102.078 237.398 100.578C237.805 99.0781 238.406 97.7734 239.203 96.6641C240.016 95.5547 241.023 94.6953 242.227 94.0859C243.43 93.4766 244.828 93.1719 246.422 93.1719C247.578 93.1719 248.641 93.3438 249.609 93.6875C250.578 94.0312 251.414 94.5859 252.117 95.3516C252.82 96.1172 253.367 97.1328 253.758 98.3984C254.148 99.6484 254.344 101.195 254.344 103.039V119H246.422V103.039C246.422 101.992 246.297 101.203 246.047 100.672C245.812 100.125 245.469 99.7578 245.016 99.5703C244.562 99.3672 244.023 99.2656 243.398 99.2656C242.648 99.2656 242 99.4219 241.453 99.7344C240.906 100.047 240.445 100.484 240.07 101.047C239.711 101.594 239.445 102.242 239.273 102.992C239.102 103.742 239.016 104.562 239.016 105.453ZM271.148 119.469C269.086 119.469 267.242 119.148 265.617 118.508C263.992 117.852 262.617 116.953 261.492 115.812C260.383 114.672 259.531 113.359 258.938 111.875C258.359 110.391 258.07 108.82 258.07 107.164V106.273C258.07 104.414 258.328 102.695 258.844 101.117C259.359 99.5234 260.125 98.1328 261.141 96.9453C262.156 95.7578 263.43 94.8359 264.961 94.1797C266.492 93.5078 268.273 93.1719 270.305 93.1719C272.102 93.1719 273.711 93.4609 275.133 94.0391C276.555 94.6172 277.758 95.4453 278.742 96.5234C279.742 97.6016 280.5 98.9062 281.016 100.438C281.547 101.969 281.812 103.688 281.812 105.594V108.805H261.094V103.859H274.102V103.25C274.117 102.406 273.969 101.688 273.656 101.094C273.359 100.5 272.922 100.047 272.344 99.7344C271.766 99.4219 271.062 99.2656 270.234 99.2656C269.375 99.2656 268.664 99.4531 268.102 99.8281C267.555 100.203 267.125 100.719 266.812 101.375C266.516 102.016 266.305 102.758 266.18 103.602C266.055 104.445 265.992 105.336 265.992 106.273V107.164C265.992 108.102 266.117 108.953 266.367 109.719C266.633 110.484 267.008 111.141 267.492 111.688C267.992 112.219 268.586 112.633 269.273 112.93C269.977 113.227 270.773 113.375 271.664 113.375C272.742 113.375 273.805 113.172 274.852 112.766C275.898 112.359 276.797 111.688 277.547 110.75L281.133 115.016C280.617 115.75 279.883 116.461 278.93 117.148C277.992 117.836 276.867 118.398 275.555 118.836C274.242 119.258 272.773 119.469 271.148 119.469ZM292.781 99.0547V119H284.883V93.6406H292.289L292.781 99.0547ZM291.844 105.453L289.992 105.5C289.992 103.562 290.227 101.836 290.695 100.32C291.164 98.7891 291.828 97.4922 292.688 96.4297C293.547 95.3672 294.57 94.5625 295.758 94.0156C296.961 93.4531 298.297 93.1719 299.766 93.1719C300.938 93.1719 302.008 93.3438 302.977 93.6875C303.961 94.0312 304.805 94.5859 305.508 95.3516C306.227 96.1172 306.773 97.1328 307.148 98.3984C307.539 99.6484 307.734 101.195 307.734 103.039V119H299.789V103.016C299.789 102 299.648 101.227 299.367 100.695C299.086 100.148 298.68 99.7734 298.148 99.5703C297.617 99.3672 296.969 99.2656 296.203 99.2656C295.391 99.2656 294.703 99.4219 294.141 99.7344C293.578 100.047 293.125 100.484 292.781 101.047C292.453 101.594 292.211 102.242 292.055 102.992C291.914 103.742 291.844 104.562 291.844 105.453ZM325.477 93.6406V99.125H310.195V93.6406H325.477ZM313.406 87.3359H321.305V110.727C321.305 111.398 321.383 111.922 321.539 112.297C321.695 112.656 321.961 112.914 322.336 113.07C322.727 113.211 323.242 113.281 323.883 113.281C324.336 113.281 324.711 113.273 325.008 113.258C325.305 113.227 325.586 113.188 325.852 113.141V118.789C325.18 119.008 324.477 119.172 323.742 119.281C323.008 119.406 322.227 119.469 321.398 119.469C319.711 119.469 318.266 119.203 317.062 118.672C315.875 118.141 314.969 117.305 314.344 116.164C313.719 115.023 313.406 113.539 313.406 111.711V87.3359ZM341.789 112.625V102.172C341.789 101.453 341.688 100.836 341.484 100.32C341.281 99.8047 340.961 99.4062 340.523 99.125C340.086 98.8281 339.5 98.6797 338.766 98.6797C338.172 98.6797 337.664 98.7812 337.242 98.9844C336.82 99.1875 336.5 99.4922 336.281 99.8984C336.062 100.305 335.953 100.82 335.953 101.445H328.055C328.055 100.273 328.312 99.1875 328.828 98.1875C329.359 97.1719 330.109 96.2891 331.078 95.5391C332.062 94.7891 333.234 94.2109 334.594 93.8047C335.969 93.3828 337.5 93.1719 339.188 93.1719C341.203 93.1719 343 93.5078 344.578 94.1797C346.172 94.8516 347.43 95.8594 348.352 97.2031C349.273 98.5312 349.734 100.203 349.734 102.219V112.602C349.734 114.258 349.828 115.516 350.016 116.375C350.203 117.219 350.469 117.961 350.812 118.602V119H342.891C342.516 118.219 342.234 117.266 342.047 116.141C341.875 115 341.789 113.828 341.789 112.625ZM342.75 103.508L342.797 107.727H339.305C338.57 107.727 337.945 107.828 337.43 108.031C336.93 108.234 336.523 108.516 336.211 108.875C335.914 109.219 335.695 109.609 335.555 110.047C335.43 110.484 335.367 110.945 335.367 111.43C335.367 111.898 335.477 112.32 335.695 112.695C335.93 113.055 336.242 113.336 336.633 113.539C337.023 113.742 337.461 113.844 337.945 113.844C338.82 113.844 339.562 113.68 340.172 113.352C340.797 113.008 341.273 112.594 341.602 112.109C341.93 111.625 342.094 111.172 342.094 110.75L343.828 113.984C343.516 114.609 343.156 115.242 342.75 115.883C342.359 116.523 341.867 117.117 341.273 117.664C340.695 118.195 339.984 118.633 339.141 118.977C338.297 119.305 337.273 119.469 336.07 119.469C334.508 119.469 333.07 119.148 331.758 118.508C330.461 117.867 329.422 116.977 328.641 115.836C327.859 114.68 327.469 113.352 327.469 111.852C327.469 110.539 327.703 109.367 328.172 108.336C328.656 107.305 329.383 106.43 330.352 105.711C331.32 104.992 332.555 104.445 334.055 104.07C335.555 103.695 337.32 103.508 339.352 103.508H342.75ZM367.477 93.6406V99.125H352.195V93.6406H367.477ZM355.406 87.3359H363.305V110.727C363.305 111.398 363.383 111.922 363.539 112.297C363.695 112.656 363.961 112.914 364.336 113.07C364.727 113.211 365.242 113.281 365.883 113.281C366.336 113.281 366.711 113.273 367.008 113.258C367.305 113.227 367.586 113.188 367.852 113.141V118.789C367.18 119.008 366.477 119.172 365.742 119.281C365.008 119.406 364.227 119.469 363.398 119.469C361.711 119.469 360.266 119.203 359.062 118.672C357.875 118.141 356.969 117.305 356.344 116.164C355.719 115.023 355.406 113.539 355.406 111.711V87.3359ZM378.961 93.6406V119H371.039V93.6406H378.961ZM370.57 87.1016C370.57 85.9766 370.977 85.0547 371.789 84.3359C372.602 83.6172 373.656 83.2578 374.953 83.2578C376.25 83.2578 377.305 83.6172 378.117 84.3359C378.93 85.0547 379.336 85.9766 379.336 87.1016C379.336 88.2266 378.93 89.1484 378.117 89.8672C377.305 90.5859 376.25 90.9453 374.953 90.9453C373.656 90.9453 372.602 90.5859 371.789 89.8672C370.977 89.1484 370.57 88.2266 370.57 87.1016ZM382.852 106.578V106.086C382.852 104.227 383.117 102.516 383.648 100.953C384.18 99.375 384.961 98.0078 385.992 96.8516C387.023 95.6953 388.297 94.7969 389.812 94.1562C391.328 93.5 393.078 93.1719 395.062 93.1719C397.062 93.1719 398.82 93.5 400.336 94.1562C401.867 94.7969 403.148 95.6953 404.18 96.8516C405.211 98.0078 405.992 99.375 406.523 100.953C407.055 102.516 407.32 104.227 407.32 106.086V106.578C407.32 108.422 407.055 110.133 406.523 111.711C405.992 113.273 405.211 114.641 404.18 115.812C403.148 116.969 401.875 117.867 400.359 118.508C398.844 119.148 397.094 119.469 395.109 119.469C393.125 119.469 391.367 119.148 389.836 118.508C388.305 117.867 387.023 116.969 385.992 115.812C384.961 114.641 384.18 113.273 383.648 111.711C383.117 110.133 382.852 108.422 382.852 106.578ZM390.75 106.086V106.578C390.75 107.531 390.82 108.422 390.961 109.25C391.102 110.078 391.336 110.805 391.664 111.43C391.992 112.039 392.438 112.516 393 112.859C393.562 113.203 394.266 113.375 395.109 113.375C395.938 113.375 396.625 113.203 397.172 112.859C397.734 112.516 398.18 112.039 398.508 111.43C398.836 110.805 399.07 110.078 399.211 109.25C399.352 108.422 399.422 107.531 399.422 106.578V106.086C399.422 105.164 399.352 104.297 399.211 103.484C399.07 102.656 398.836 101.93 398.508 101.305C398.18 100.664 397.734 100.164 397.172 99.8047C396.609 99.4453 395.906 99.2656 395.062 99.2656C394.234 99.2656 393.539 99.4453 392.977 99.8047C392.43 100.164 391.992 100.664 391.664 101.305C391.336 101.93 391.102 102.656 390.961 103.484C390.82 104.297 390.75 105.164 390.75 106.086ZM418.594 99.0547V119H410.695V93.6406H418.102L418.594 99.0547ZM417.656 105.453L415.805 105.5C415.805 103.562 416.039 101.836 416.508 100.32C416.977 98.7891 417.641 97.4922 418.5 96.4297C419.359 95.3672 420.383 94.5625 421.57 94.0156C422.773 93.4531 424.109 93.1719 425.578 93.1719C426.75 93.1719 427.82 93.3438 428.789 93.6875C429.773 94.0312 430.617 94.5859 431.32 95.3516C432.039 96.1172 432.586 97.1328 432.961 98.3984C433.352 99.6484 433.547 101.195 433.547 103.039V119H425.602V103.016C425.602 102 425.461 101.227 425.18 100.695C424.898 100.148 424.492 99.7734 423.961 99.5703C423.43 99.3672 422.781 99.2656 422.016 99.2656C421.203 99.2656 420.516 99.4219 419.953 99.7344C419.391 100.047 418.938 100.484 418.594 101.047C418.266 101.594 418.023 102.242 417.867 102.992C417.727 103.742 417.656 104.562 417.656 105.453Z" fill="black"/>
<path d="M1134 0H1348C1356.28 0 1363 6.71573 1363 15V148C1363 156.284 1356.28 163 1348 163H1134V0Z" fill="#524077"/>
<path d="M1281 46.5H1216L1213.5 49V114L1216 116.5H1281L1283.5 114V49L1281 46.5ZM1278.5 111.5H1233.5V101.5H1245C1246.5 104.5 1250 106.5 1253.5 106.5C1259 106.5 1263.5 102 1263.5 96.5C1263.5 91 1259 86.5 1253.5 86.5C1248 86.5 1243.5 91 1243.5 96.5H1228.5V111.5H1218.5V51.5H1228.5V63C1225.5 64.5 1223.5 68 1223.5 71.5C1223.5 77 1228 81.5 1233.5 81.5C1239 81.5 1243.5 77 1243.5 71.5H1253.5C1253.5 77 1258 81.5 1263.5 81.5C1269 81.5 1273.5 77 1273.5 71.5C1273.5 66 1269 61.5 1263.5 61.5C1260 61.5 1256.5 63.5 1255 66.5H1242C1240.5 63.5 1237 61.5 1233.5 61.5V51.5H1278.5V111.5ZM1248.5 96.5C1248.5 93.5 1250.5 91.5 1253.5 91.5C1256.5 91.5 1258.5 93.5 1258.5 96.5C1258.5 99.5 1256.5 101.5 1253.5 101.5C1250.5 101.5 1248.5 99.5 1248.5 96.5ZM1233.5 66.5C1236.5 66.5 1238.5 68.5 1238.5 71.5C1238.5 74.5 1236.5 76.5 1233.5 76.5C1230.5 76.5 1228.5 74.5 1228.5 71.5C1228.5 68.5 1230.5 66.5 1233.5 66.5ZM1263.5 66.5C1266.5 66.5 1268.5 68.5 1268.5 71.5C1268.5 74.5 1266.5 76.5 1263.5 76.5C1260.5 76.5 1258.5 74.5 1258.5 71.5C1258.5 68.5 1260.5 66.5 1263.5 66.5Z" fill="white"/>
</svg>
