<svg width="1363" height="163" viewBox="0 0 1363 163" fill="none" xmlns="http://www.w3.org/2000/svg">
<path d="M0 15C0 6.71573 6.71573 0 15 0H37V163H15C6.71573 163 0 156.284 0 148V15Z" fill="#424242"/>
<rect width="1097" height="163" transform="translate(37)" fill="#F0F0F0"/>
<path d="M101.906 53.9219L94.3945 51.2383V48.0859L104.602 52.375V54.6367L101.906 53.9219ZM94.3945 56.1719L101.918 53.4297L104.602 52.7852V55.0352L94.3945 59.3242V56.1719ZM112.898 43.9375H119.262C120.566 43.9375 121.688 44.1328 122.625 44.5234C123.57 44.9141 124.297 45.4922 124.805 46.2578C125.312 47.0234 125.566 47.9648 125.566 49.082C125.566 49.9961 125.41 50.7812 125.098 51.4375C124.793 52.0859 124.359 52.6289 123.797 53.0664C123.242 53.4961 122.59 53.8398 121.84 54.0977L120.727 54.6836H115.195L115.172 51.9414H119.285C119.902 51.9414 120.414 51.832 120.82 51.6133C121.227 51.3945 121.531 51.0898 121.734 50.6992C121.945 50.3086 122.051 49.8555 122.051 49.3398C122.051 48.793 121.949 48.3203 121.746 47.9219C121.543 47.5234 121.234 47.2188 120.82 47.0078C120.406 46.7969 119.887 46.6914 119.262 46.6914H116.414V61H112.898V43.9375ZM122.438 61L118.547 53.3945L122.262 53.3711L126.199 60.8359V61H122.438ZM127.523 54.7891V54.543C127.523 53.6133 127.656 52.7578 127.922 51.9766C128.188 51.1875 128.574 50.5039 129.082 49.9258C129.59 49.3477 130.215 48.8984 130.957 48.5781C131.699 48.25 132.551 48.0859 133.512 48.0859C134.473 48.0859 135.328 48.25 136.078 48.5781C136.828 48.8984 137.457 49.3477 137.965 49.9258C138.48 50.5039 138.871 51.1875 139.137 51.9766C139.402 52.7578 139.535 53.6133 139.535 54.543V54.7891C139.535 55.7109 139.402 56.5664 139.137 57.3555C138.871 58.1367 138.48 58.8203 137.965 59.4062C137.457 59.9844 136.832 60.4336 136.09 60.7539C135.348 61.0742 134.496 61.2344 133.535 61.2344C132.574 61.2344 131.719 61.0742 130.969 60.7539C130.227 60.4336 129.598 59.9844 129.082 59.4062C128.574 58.8203 128.188 58.1367 127.922 57.3555C127.656 56.5664 127.523 55.7109 127.523 54.7891ZM130.898 54.543V54.7891C130.898 55.3203 130.945 55.8164 131.039 56.2773C131.133 56.7383 131.281 57.1445 131.484 57.4961C131.695 57.8398 131.969 58.1094 132.305 58.3047C132.641 58.5 133.051 58.5977 133.535 58.5977C134.004 58.5977 134.406 58.5 134.742 58.3047C135.078 58.1094 135.348 57.8398 135.551 57.4961C135.754 57.1445 135.902 56.7383 135.996 56.2773C136.098 55.8164 136.148 55.3203 136.148 54.7891V54.543C136.148 54.0273 136.098 53.543 135.996 53.0898C135.902 52.6289 135.75 52.2227 135.539 51.8711C135.336 51.5117 135.066 51.2305 134.73 51.0273C134.395 50.8242 133.988 50.7227 133.512 50.7227C133.035 50.7227 132.629 50.8242 132.293 51.0273C131.965 51.2305 131.695 51.5117 131.484 51.8711C131.281 52.2227 131.133 52.6289 131.039 53.0898C130.945 53.543 130.898 54.0273 130.898 54.543ZM148.453 58.1406V52.4922C148.453 52.0859 148.387 51.7383 148.254 51.4492C148.121 51.1523 147.914 50.9219 147.633 50.7578C147.359 50.5938 147.004 50.5117 146.566 50.5117C146.191 50.5117 145.867 50.5781 145.594 50.7109C145.32 50.8359 145.109 51.0195 144.961 51.2617C144.812 51.4961 144.738 51.7734 144.738 52.0938H141.363C141.363 51.5547 141.488 51.043 141.738 50.5586C141.988 50.0742 142.352 49.6484 142.828 49.2812C143.305 48.9062 143.871 48.6133 144.527 48.4023C145.191 48.1914 145.934 48.0859 146.754 48.0859C147.738 48.0859 148.613 48.25 149.379 48.5781C150.145 48.9062 150.746 49.3984 151.184 50.0547C151.629 50.7109 151.852 51.5312 151.852 52.5156V57.9414C151.852 58.6367 151.895 59.207 151.98 59.6523C152.066 60.0898 152.191 60.4727 152.355 60.8008V61H148.945C148.781 60.6562 148.656 60.2266 148.57 59.7109C148.492 59.1875 148.453 58.6641 148.453 58.1406ZM148.898 53.2773L148.922 55.1875H147.035C146.59 55.1875 146.203 55.2383 145.875 55.3398C145.547 55.4414 145.277 55.5859 145.066 55.7734C144.855 55.9531 144.699 56.1641 144.598 56.4062C144.504 56.6484 144.457 56.9141 144.457 57.2031C144.457 57.4922 144.523 57.7539 144.656 57.9883C144.789 58.2148 144.98 58.3945 145.23 58.5273C145.48 58.6523 145.773 58.7148 146.109 58.7148C146.617 58.7148 147.059 58.6133 147.434 58.4102C147.809 58.207 148.098 57.957 148.301 57.6602C148.512 57.3633 148.621 57.082 148.629 56.8164L149.52 58.2461C149.395 58.5664 149.223 58.8984 149.004 59.2422C148.793 59.5859 148.523 59.9102 148.195 60.2148C147.867 60.5117 147.473 60.7578 147.012 60.9531C146.551 61.1406 146.004 61.2344 145.371 61.2344C144.566 61.2344 143.836 61.0742 143.18 60.7539C142.531 60.4258 142.016 59.9766 141.633 59.4062C141.258 58.8281 141.07 58.1719 141.07 57.4375C141.07 56.7734 141.195 56.1836 141.445 55.668C141.695 55.1523 142.062 54.7188 142.547 54.3672C143.039 54.0078 143.652 53.7383 144.387 53.5586C145.121 53.3711 145.973 53.2773 146.941 53.2773H148.898ZM157.828 50.9453V61H154.441V48.3203H157.617L157.828 50.9453ZM157.359 54.2148H156.422C156.422 53.332 156.527 52.5195 156.738 51.7773C156.957 51.0273 157.273 50.3789 157.688 49.832C158.109 49.2773 158.629 48.8477 159.246 48.543C159.863 48.2383 160.578 48.0859 161.391 48.0859C161.953 48.0859 162.469 48.1719 162.938 48.3438C163.406 48.5078 163.809 48.7695 164.145 49.1289C164.488 49.4805 164.754 49.9414 164.941 50.5117C165.129 51.0742 165.223 51.75 165.223 52.5391V61H161.848V52.9141C161.848 52.3359 161.77 51.8906 161.613 51.5781C161.457 51.2656 161.234 51.0469 160.945 50.9219C160.664 50.7969 160.324 50.7344 159.926 50.7344C159.488 50.7344 159.105 50.8242 158.777 51.0039C158.457 51.1836 158.191 51.4336 157.98 51.7539C157.77 52.0664 157.613 52.4336 157.512 52.8555C157.41 53.2773 157.359 53.7305 157.359 54.2148ZM164.906 53.8281L163.699 53.9805C163.699 53.1523 163.801 52.3828 164.004 51.6719C164.215 50.9609 164.523 50.3359 164.93 49.7969C165.344 49.2578 165.855 48.8398 166.465 48.543C167.074 48.2383 167.777 48.0859 168.574 48.0859C169.184 48.0859 169.738 48.1758 170.238 48.3555C170.738 48.5273 171.164 48.8047 171.516 49.1875C171.875 49.5625 172.148 50.0547 172.336 50.6641C172.531 51.2734 172.629 52.0195 172.629 52.9023V61H169.242V52.9023C169.242 52.3164 169.164 51.8711 169.008 51.5664C168.859 51.2539 168.641 51.0391 168.352 50.9219C168.07 50.7969 167.734 50.7344 167.344 50.7344C166.938 50.7344 166.582 50.8164 166.277 50.9805C165.973 51.1367 165.719 51.3555 165.516 51.6367C165.312 51.918 165.16 52.2461 165.059 52.6211C164.957 52.9883 164.906 53.3906 164.906 53.8281ZM181.43 43.9375H187.793C189.098 43.9375 190.219 44.1328 191.156 44.5234C192.102 44.9141 192.828 45.4922 193.336 46.2578C193.844 47.0234 194.098 47.9648 194.098 49.082C194.098 49.9961 193.941 50.7812 193.629 51.4375C193.324 52.0859 192.891 52.6289 192.328 53.0664C191.773 53.4961 191.121 53.8398 190.371 54.0977L189.258 54.6836H183.727L183.703 51.9414H187.816C188.434 51.9414 188.945 51.832 189.352 51.6133C189.758 51.3945 190.062 51.0898 190.266 50.6992C190.477 50.3086 190.582 49.8555 190.582 49.3398C190.582 48.793 190.48 48.3203 190.277 47.9219C190.074 47.5234 189.766 47.2188 189.352 47.0078C188.938 46.7969 188.418 46.6914 187.793 46.6914H184.945V61H181.43V43.9375ZM190.969 61L187.078 53.3945L190.793 53.3711L194.73 60.8359V61H190.969ZM196.055 54.7891V54.543C196.055 53.6133 196.188 52.7578 196.453 51.9766C196.719 51.1875 197.105 50.5039 197.613 49.9258C198.121 49.3477 198.746 48.8984 199.488 48.5781C200.23 48.25 201.082 48.0859 202.043 48.0859C203.004 48.0859 203.859 48.25 204.609 48.5781C205.359 48.8984 205.988 49.3477 206.496 49.9258C207.012 50.5039 207.402 51.1875 207.668 51.9766C207.934 52.7578 208.066 53.6133 208.066 54.543V54.7891C208.066 55.7109 207.934 56.5664 207.668 57.3555C207.402 58.1367 207.012 58.8203 206.496 59.4062C205.988 59.9844 205.363 60.4336 204.621 60.7539C203.879 61.0742 203.027 61.2344 202.066 61.2344C201.105 61.2344 200.25 61.0742 199.5 60.7539C198.758 60.4336 198.129 59.9844 197.613 59.4062C197.105 58.8203 196.719 58.1367 196.453 57.3555C196.188 56.5664 196.055 55.7109 196.055 54.7891ZM199.43 54.543V54.7891C199.43 55.3203 199.477 55.8164 199.57 56.2773C199.664 56.7383 199.812 57.1445 200.016 57.4961C200.227 57.8398 200.5 58.1094 200.836 58.3047C201.172 58.5 201.582 58.5977 202.066 58.5977C202.535 58.5977 202.938 58.5 203.273 58.3047C203.609 58.1094 203.879 57.8398 204.082 57.4961C204.285 57.1445 204.434 56.7383 204.527 56.2773C204.629 55.8164 204.68 55.3203 204.68 54.7891V54.543C204.68 54.0273 204.629 53.543 204.527 53.0898C204.434 52.6289 204.281 52.2227 204.07 51.8711C203.867 51.5117 203.598 51.2305 203.262 51.0273C202.926 50.8242 202.52 50.7227 202.043 50.7227C201.566 50.7227 201.16 50.8242 200.824 51.0273C200.496 51.2305 200.227 51.5117 200.016 51.8711C199.812 52.2227 199.664 52.6289 199.57 53.0898C199.477 53.543 199.43 54.0273 199.43 54.543ZM214.266 58.5391L217.078 48.3203H220.605L216.328 61H214.195L214.266 58.5391ZM212.332 48.3203L215.156 58.5508L215.215 61H213.07L208.793 48.3203H212.332ZM227.789 61.2344C226.805 61.2344 225.922 61.0781 225.141 60.7656C224.359 60.4453 223.695 60.0039 223.148 59.4414C222.609 58.8789 222.195 58.2266 221.906 57.4844C221.617 56.7344 221.473 55.9375 221.473 55.0938V54.625C221.473 53.6641 221.609 52.7852 221.883 51.9883C222.156 51.1914 222.547 50.5 223.055 49.9141C223.57 49.3281 224.195 48.8789 224.93 48.5664C225.664 48.2461 226.492 48.0859 227.414 48.0859C228.312 48.0859 229.109 48.2344 229.805 48.5312C230.5 48.8281 231.082 49.25 231.551 49.7969C232.027 50.3438 232.387 51 232.629 51.7656C232.871 52.5234 232.992 53.3672 232.992 54.2969V55.7031H222.914V53.4531H229.676V53.1953C229.676 52.7266 229.59 52.3086 229.418 51.9414C229.254 51.5664 229.004 51.2695 228.668 51.0508C228.332 50.832 227.902 50.7227 227.379 50.7227C226.934 50.7227 226.551 50.8203 226.23 51.0156C225.91 51.2109 225.648 51.4844 225.445 51.8359C225.25 52.1875 225.102 52.6016 225 53.0781C224.906 53.5469 224.859 54.0625 224.859 54.625V55.0938C224.859 55.6016 224.93 56.0703 225.07 56.5C225.219 56.9297 225.426 57.3008 225.691 57.6133C225.965 57.9258 226.293 58.168 226.676 58.3398C227.066 58.5117 227.508 58.5977 228 58.5977C228.609 58.5977 229.176 58.4805 229.699 58.2461C230.23 58.0039 230.688 57.6406 231.07 57.1562L232.711 58.9375C232.445 59.3203 232.082 59.6875 231.621 60.0391C231.168 60.3906 230.621 60.6797 229.98 60.9062C229.34 61.125 228.609 61.2344 227.789 61.2344ZM238.289 51.0859V61H234.914V48.3203H238.09L238.289 51.0859ZM242.109 48.2383L242.051 51.3672C241.887 51.3438 241.688 51.3242 241.453 51.3086C241.227 51.2852 241.02 51.2734 240.832 51.2734C240.355 51.2734 239.941 51.3359 239.59 51.4609C239.246 51.5781 238.957 51.7539 238.723 51.9883C238.496 52.2227 238.324 52.5078 238.207 52.8438C238.098 53.1797 238.035 53.5625 238.02 53.9922L237.34 53.7812C237.34 52.9609 237.422 52.207 237.586 51.5195C237.75 50.8242 237.988 50.2188 238.301 49.7031C238.621 49.1875 239.012 48.7891 239.473 48.5078C239.934 48.2266 240.461 48.0859 241.055 48.0859C241.242 48.0859 241.434 48.1016 241.629 48.1328C241.824 48.1562 241.984 48.1914 242.109 48.2383Z" fill="#888888"/>
<path d="M110.062 92.0469L101.742 119H92.9062L105.445 84.875H111.047L110.062 92.0469ZM116.953 119L108.609 92.0469L107.531 84.875H113.203L125.812 119H116.953ZM116.625 106.273V112.625H99.1172V106.273H116.625ZM135.258 115.906L142.055 84.875H146.109L148.312 87.5234L141.07 119H136.594L135.258 115.906ZM133.453 84.875L139.195 116.141L137.719 119H132.539L125.297 84.875H133.453ZM152.039 115.977L157.734 84.875H165.867L158.625 119H153.469L152.039 115.977ZM149.039 84.875L156 116.094L154.594 119H150.117L142.711 87.4766L145.008 84.875H149.039ZM186.68 109.93C186.68 109.398 186.602 108.922 186.445 108.5C186.289 108.062 186 107.656 185.578 107.281C185.156 106.906 184.547 106.531 183.75 106.156C182.969 105.766 181.938 105.359 180.656 104.938C179.156 104.438 177.711 103.875 176.32 103.25C174.93 102.609 173.688 101.867 172.594 101.023C171.5 100.164 170.633 99.1641 169.992 98.0234C169.352 96.8672 169.031 95.5234 169.031 93.9922C169.031 92.5234 169.359 91.2031 170.016 90.0312C170.672 88.8438 171.586 87.8359 172.758 87.0078C173.945 86.1641 175.336 85.5234 176.93 85.0859C178.523 84.6328 180.266 84.4062 182.156 84.4062C184.656 84.4062 186.859 84.8438 188.766 85.7188C190.688 86.5781 192.188 87.8047 193.266 89.3984C194.359 90.9766 194.906 92.8438 194.906 95H186.727C186.727 94.1406 186.547 93.3828 186.188 92.7266C185.844 92.0703 185.32 91.5547 184.617 91.1797C183.914 90.8047 183.031 90.6172 181.969 90.6172C180.938 90.6172 180.07 90.7734 179.367 91.0859C178.664 91.3984 178.133 91.8203 177.773 92.3516C177.414 92.8672 177.234 93.4375 177.234 94.0625C177.234 94.5781 177.375 95.0469 177.656 95.4688C177.953 95.875 178.367 96.2578 178.898 96.6172C179.445 96.9766 180.102 97.3203 180.867 97.6484C181.648 97.9766 182.523 98.2969 183.492 98.6094C185.305 99.1875 186.914 99.8359 188.32 100.555C189.742 101.258 190.938 102.062 191.906 102.969C192.891 103.859 193.633 104.875 194.133 106.016C194.648 107.156 194.906 108.445 194.906 109.883C194.906 111.414 194.609 112.773 194.016 113.961C193.422 115.148 192.57 116.156 191.461 116.984C190.352 117.797 189.023 118.414 187.477 118.836C185.93 119.258 184.203 119.469 182.297 119.469C180.547 119.469 178.82 119.25 177.117 118.812C175.43 118.359 173.898 117.672 172.523 116.75C171.148 115.812 170.047 114.617 169.219 113.164C168.406 111.695 168 109.953 168 107.938H176.25C176.25 108.938 176.383 109.781 176.648 110.469C176.914 111.156 177.305 111.711 177.82 112.133C178.336 112.539 178.969 112.836 179.719 113.023C180.469 113.195 181.328 113.281 182.297 113.281C183.344 113.281 184.188 113.133 184.828 112.836C185.469 112.523 185.938 112.117 186.234 111.617C186.531 111.102 186.68 110.539 186.68 109.93ZM222.188 119H214.617L214.664 112.672H222.188C223.75 112.672 225.07 112.297 226.148 111.547C227.242 110.797 228.07 109.68 228.633 108.195C229.211 106.695 229.5 104.852 229.5 102.664V101.188C229.5 99.5469 229.336 98.1094 229.008 96.875C228.695 95.625 228.227 94.5859 227.602 93.7578C226.977 92.9141 226.195 92.2812 225.258 91.8594C224.336 91.4375 223.273 91.2266 222.07 91.2266H214.477V84.875H222.07C224.383 84.875 226.5 85.2734 228.422 86.0703C230.359 86.8516 232.031 87.9766 233.438 89.4453C234.859 90.8984 235.953 92.625 236.719 94.625C237.5 96.6094 237.891 98.8125 237.891 101.234V102.664C237.891 105.07 237.5 107.273 236.719 109.273C235.953 111.273 234.867 113 233.461 114.453C232.055 115.906 230.391 117.031 228.469 117.828C226.562 118.609 224.469 119 222.188 119ZM219.328 84.875V119H211.102V84.875H219.328ZM254.086 119.469C252.023 119.469 250.18 119.148 248.555 118.508C246.93 117.852 245.555 116.953 244.43 115.812C243.32 114.672 242.469 113.359 241.875 111.875C241.297 110.391 241.008 108.82 241.008 107.164V106.273C241.008 104.414 241.266 102.695 241.781 101.117C242.297 99.5234 243.062 98.1328 244.078 96.9453C245.094 95.7578 246.367 94.8359 247.898 94.1797C249.43 93.5078 251.211 93.1719 253.242 93.1719C255.039 93.1719 256.648 93.4609 258.07 94.0391C259.492 94.6172 260.695 95.4453 261.68 96.5234C262.68 97.6016 263.438 98.9062 263.953 100.438C264.484 101.969 264.75 103.688 264.75 105.594V108.805H244.031V103.859H257.039V103.25C257.055 102.406 256.906 101.688 256.594 101.094C256.297 100.5 255.859 100.047 255.281 99.7344C254.703 99.4219 254 99.2656 253.172 99.2656C252.312 99.2656 251.602 99.4531 251.039 99.8281C250.492 100.203 250.062 100.719 249.75 101.375C249.453 102.016 249.242 102.758 249.117 103.602C248.992 104.445 248.93 105.336 248.93 106.273V107.164C248.93 108.102 249.055 108.953 249.305 109.719C249.57 110.484 249.945 111.141 250.43 111.688C250.93 112.219 251.523 112.633 252.211 112.93C252.914 113.227 253.711 113.375 254.602 113.375C255.68 113.375 256.742 113.172 257.789 112.766C258.836 112.359 259.734 111.688 260.484 110.75L264.07 115.016C263.555 115.75 262.82 116.461 261.867 117.148C260.93 117.836 259.805 118.398 258.492 118.836C257.18 119.258 255.711 119.469 254.086 119.469ZM275.93 98.5156V128.75H268.031V93.6406H275.391L275.93 98.5156ZM291.492 106.016V106.508C291.492 108.352 291.281 110.062 290.859 111.641C290.438 113.219 289.812 114.594 288.984 115.766C288.156 116.938 287.125 117.852 285.891 118.508C284.672 119.148 283.258 119.469 281.648 119.469C280.133 119.469 278.828 119.133 277.734 118.461C276.641 117.789 275.727 116.859 274.992 115.672C274.258 114.484 273.664 113.125 273.211 111.594C272.758 110.062 272.398 108.445 272.133 106.742V106.109C272.398 104.281 272.758 102.586 273.211 101.023C273.664 99.4453 274.258 98.0703 274.992 96.8984C275.727 95.7266 276.633 94.8125 277.711 94.1562C278.805 93.5 280.109 93.1719 281.625 93.1719C283.234 93.1719 284.648 93.4766 285.867 94.0859C287.102 94.6953 288.133 95.5703 288.961 96.7109C289.805 97.8359 290.438 99.1875 290.859 100.766C291.281 102.344 291.492 104.094 291.492 106.016ZM283.594 106.508V106.016C283.594 105.031 283.523 104.133 283.383 103.32C283.242 102.492 283.016 101.773 282.703 101.164C282.406 100.555 282.008 100.086 281.508 99.7578C281.008 99.4297 280.391 99.2656 279.656 99.2656C278.812 99.2656 278.102 99.3984 277.523 99.6641C276.961 99.9141 276.508 100.305 276.164 100.836C275.836 101.352 275.602 102 275.461 102.781C275.336 103.547 275.281 104.445 275.297 105.477V107.398C275.266 108.586 275.383 109.633 275.648 110.539C275.914 111.43 276.375 112.125 277.031 112.625C277.688 113.125 278.578 113.375 279.703 113.375C280.453 113.375 281.078 113.203 281.578 112.859C282.078 112.5 282.477 112.008 282.773 111.383C283.07 110.742 283.281 110.008 283.406 109.18C283.531 108.352 283.594 107.461 283.594 106.508ZM303.352 83V119H295.43V83H303.352ZM307.242 106.578V106.086C307.242 104.227 307.508 102.516 308.039 100.953C308.57 99.375 309.352 98.0078 310.383 96.8516C311.414 95.6953 312.688 94.7969 314.203 94.1562C315.719 93.5 317.469 93.1719 319.453 93.1719C321.453 93.1719 323.211 93.5 324.727 94.1562C326.258 94.7969 327.539 95.6953 328.57 96.8516C329.602 98.0078 330.383 99.375 330.914 100.953C331.445 102.516 331.711 104.227 331.711 106.086V106.578C331.711 108.422 331.445 110.133 330.914 111.711C330.383 113.273 329.602 114.641 328.57 115.812C327.539 116.969 326.266 117.867 324.75 118.508C323.234 119.148 321.484 119.469 319.5 119.469C317.516 119.469 315.758 119.148 314.227 118.508C312.695 117.867 311.414 116.969 310.383 115.812C309.352 114.641 308.57 113.273 308.039 111.711C307.508 110.133 307.242 108.422 307.242 106.578ZM315.141 106.086V106.578C315.141 107.531 315.211 108.422 315.352 109.25C315.492 110.078 315.727 110.805 316.055 111.43C316.383 112.039 316.828 112.516 317.391 112.859C317.953 113.203 318.656 113.375 319.5 113.375C320.328 113.375 321.016 113.203 321.562 112.859C322.125 112.516 322.57 112.039 322.898 111.43C323.227 110.805 323.461 110.078 323.602 109.25C323.742 108.422 323.812 107.531 323.812 106.578V106.086C323.812 105.164 323.742 104.297 323.602 103.484C323.461 102.656 323.227 101.93 322.898 101.305C322.57 100.664 322.125 100.164 321.562 99.8047C321 99.4453 320.297 99.2656 319.453 99.2656C318.625 99.2656 317.93 99.4453 317.367 99.8047C316.82 100.164 316.383 100.664 316.055 101.305C315.727 101.93 315.492 102.656 315.352 103.484C315.211 104.297 315.141 105.164 315.141 106.086ZM342.633 116.023L349.195 93.6406H357.68L347.484 122.773C347.266 123.414 346.977 124.102 346.617 124.836C346.258 125.586 345.766 126.297 345.141 126.969C344.516 127.641 343.711 128.188 342.727 128.609C341.758 129.031 340.555 129.242 339.117 129.242C338.352 129.242 337.789 129.203 337.43 129.125C337.086 129.062 336.555 128.945 335.836 128.773V123.125C336.039 123.125 336.211 123.125 336.352 123.125C336.508 123.125 336.68 123.125 336.867 123.125C337.711 123.125 338.383 123.039 338.883 122.867C339.398 122.695 339.789 122.445 340.055 122.117C340.336 121.789 340.555 121.391 340.711 120.922L342.633 116.023ZM340.969 93.6406L345.961 111.383L346.828 119.75H341.531L332.508 93.6406H340.969ZM367.711 99.0078V119H359.812V93.6406H367.219L367.711 99.0078ZM366.75 105.453L364.945 105.5C364.945 103.719 365.156 102.078 365.578 100.578C366 99.0781 366.625 97.7734 367.453 96.6641C368.281 95.5547 369.297 94.6953 370.5 94.0859C371.719 93.4766 373.125 93.1719 374.719 93.1719C375.828 93.1719 376.836 93.3438 377.742 93.6875C378.648 94.0156 379.43 94.5391 380.086 95.2578C380.742 95.9609 381.242 96.8828 381.586 98.0234C381.945 99.1484 382.125 100.5 382.125 102.078V119H374.227V103.086C374.227 102.008 374.102 101.195 373.852 100.648C373.617 100.102 373.273 99.7344 372.82 99.5469C372.367 99.3594 371.812 99.2656 371.156 99.2656C370.469 99.2656 369.852 99.4219 369.305 99.7344C368.758 100.047 368.289 100.484 367.898 101.047C367.523 101.594 367.234 102.242 367.031 102.992C366.844 103.742 366.75 104.562 366.75 105.453ZM381.234 105.453L379.031 105.5C379.031 103.719 379.227 102.078 379.617 100.578C380.023 99.0781 380.625 97.7734 381.422 96.6641C382.234 95.5547 383.242 94.6953 384.445 94.0859C385.648 93.4766 387.047 93.1719 388.641 93.1719C389.797 93.1719 390.859 93.3438 391.828 93.6875C392.797 94.0312 393.633 94.5859 394.336 95.3516C395.039 96.1172 395.586 97.1328 395.977 98.3984C396.367 99.6484 396.562 101.195 396.562 103.039V119H388.641V103.039C388.641 101.992 388.516 101.203 388.266 100.672C388.031 100.125 387.688 99.7578 387.234 99.5703C386.781 99.3672 386.242 99.2656 385.617 99.2656C384.867 99.2656 384.219 99.4219 383.672 99.7344C383.125 100.047 382.664 100.484 382.289 101.047C381.93 101.594 381.664 102.242 381.492 102.992C381.32 103.742 381.234 104.562 381.234 105.453ZM413.367 119.469C411.305 119.469 409.461 119.148 407.836 118.508C406.211 117.852 404.836 116.953 403.711 115.812C402.602 114.672 401.75 113.359 401.156 111.875C400.578 110.391 400.289 108.82 400.289 107.164V106.273C400.289 104.414 400.547 102.695 401.062 101.117C401.578 99.5234 402.344 98.1328 403.359 96.9453C404.375 95.7578 405.648 94.8359 407.18 94.1797C408.711 93.5078 410.492 93.1719 412.523 93.1719C414.32 93.1719 415.93 93.4609 417.352 94.0391C418.773 94.6172 419.977 95.4453 420.961 96.5234C421.961 97.6016 422.719 98.9062 423.234 100.438C423.766 101.969 424.031 103.688 424.031 105.594V108.805H403.312V103.859H416.32V103.25C416.336 102.406 416.188 101.688 415.875 101.094C415.578 100.5 415.141 100.047 414.562 99.7344C413.984 99.4219 413.281 99.2656 412.453 99.2656C411.594 99.2656 410.883 99.4531 410.32 99.8281C409.773 100.203 409.344 100.719 409.031 101.375C408.734 102.016 408.523 102.758 408.398 103.602C408.273 104.445 408.211 105.336 408.211 106.273V107.164C408.211 108.102 408.336 108.953 408.586 109.719C408.852 110.484 409.227 111.141 409.711 111.688C410.211 112.219 410.805 112.633 411.492 112.93C412.195 113.227 412.992 113.375 413.883 113.375C414.961 113.375 416.023 113.172 417.07 112.766C418.117 112.359 419.016 111.688 419.766 110.75L423.352 115.016C422.836 115.75 422.102 116.461 421.148 117.148C420.211 117.836 419.086 118.398 417.773 118.836C416.461 119.258 414.992 119.469 413.367 119.469ZM435 99.0547V119H427.102V93.6406H434.508L435 99.0547ZM434.062 105.453L432.211 105.5C432.211 103.562 432.445 101.836 432.914 100.32C433.383 98.7891 434.047 97.4922 434.906 96.4297C435.766 95.3672 436.789 94.5625 437.977 94.0156C439.18 93.4531 440.516 93.1719 441.984 93.1719C443.156 93.1719 444.227 93.3438 445.195 93.6875C446.18 94.0312 447.023 94.5859 447.727 95.3516C448.445 96.1172 448.992 97.1328 449.367 98.3984C449.758 99.6484 449.953 101.195 449.953 103.039V119H442.008V103.016C442.008 102 441.867 101.227 441.586 100.695C441.305 100.148 440.898 99.7734 440.367 99.5703C439.836 99.3672 439.188 99.2656 438.422 99.2656C437.609 99.2656 436.922 99.4219 436.359 99.7344C435.797 100.047 435.344 100.484 435 101.047C434.672 101.594 434.43 102.242 434.273 102.992C434.133 103.742 434.062 104.562 434.062 105.453ZM467.695 93.6406V99.125H452.414V93.6406H467.695ZM455.625 87.3359H463.523V110.727C463.523 111.398 463.602 111.922 463.758 112.297C463.914 112.656 464.18 112.914 464.555 113.07C464.945 113.211 465.461 113.281 466.102 113.281C466.555 113.281 466.93 113.273 467.227 113.258C467.523 113.227 467.805 113.188 468.07 113.141V118.789C467.398 119.008 466.695 119.172 465.961 119.281C465.227 119.406 464.445 119.469 463.617 119.469C461.93 119.469 460.484 119.203 459.281 118.672C458.094 118.141 457.188 117.305 456.562 116.164C455.938 115.023 455.625 113.539 455.625 111.711V87.3359Z" fill="black"/>
<path d="M1134 0H1348C1356.28 0 1363 6.71573 1363 15V148C1363 156.284 1356.28 163 1348 163H1134V0Z" fill="#524077"/>
<path fill-rule="evenodd" clip-rule="evenodd" d="M1218.75 53C1218.62 53 1218.49 53.0527 1218.4 53.1464C1218.3 53.2402 1218.25 53.3674 1218.25 53.5V109.5C1218.25 109.633 1218.3 109.76 1218.4 109.854C1218.49 109.947 1218.62 110 1218.75 110H1278.25C1278.38 110 1278.51 109.947 1278.6 109.854C1278.7 109.76 1278.75 109.633 1278.75 109.5V64C1278.75 63.8674 1278.7 63.7402 1278.6 63.6464C1278.51 63.5527 1278.38 63.5 1278.25 63.5H1248.5C1247.61 63.5 1246.77 63.1045 1246.2 62.4206L1238.34 53H1218.75ZM1214.15 48.9038C1215.37 47.6848 1217.03 47 1218.75 47H1239.75C1240.64 47 1241.48 47.3955 1242.05 48.0794L1249.91 57.5H1278.25C1279.97 57.5 1281.63 58.1848 1282.85 59.4038C1284.07 60.6228 1284.75 62.2761 1284.75 64V109.5C1284.75 111.224 1284.07 112.877 1282.85 114.096C1281.63 115.315 1279.97 116 1278.25 116H1218.75C1217.03 116 1215.37 115.315 1214.15 114.096C1212.93 112.877 1212.25 111.224 1212.25 109.5V53.5C1212.25 51.7761 1212.93 50.1228 1214.15 48.9038Z" fill="white"/>
<path fill-rule="evenodd" clip-rule="evenodd" d="M1243.97 75.5251C1245.34 76.892 1245.34 79.108 1243.97 80.4749L1237.7 86.75L1243.97 93.0251C1245.34 94.392 1245.34 96.608 1243.97 97.9749C1242.61 99.3417 1240.39 99.3417 1239.03 97.9749L1230.28 89.2249C1228.91 87.858 1228.91 85.642 1230.28 84.2751L1239.03 75.5251C1240.39 74.1583 1242.61 74.1583 1243.97 75.5251Z" fill="white"/>
<path fill-rule="evenodd" clip-rule="evenodd" d="M1252.28 97.9749C1250.91 96.608 1250.91 94.392 1252.28 93.0251L1258.55 86.75L1252.28 80.4749C1250.91 79.108 1250.91 76.892 1252.28 75.5251C1253.64 74.1583 1255.86 74.1583 1257.22 75.5251L1265.97 84.2751C1267.34 85.642 1267.34 87.858 1265.97 89.2249L1257.22 97.9749C1255.86 99.3417 1253.64 99.3417 1252.28 97.9749Z" fill="white"/>
</svg>
