<svg width="1363" height="163" viewBox="0 0 1363 163" fill="none" xmlns="http://www.w3.org/2000/svg">
<path d="M0 15C0 6.71573 6.71573 0 15 0H37V163H15C6.71573 163 0 156.284 0 148V15Z" fill="#424242"/>
<rect width="1097" height="163" transform="translate(37)" fill="#F0F0F0"/>
<path d="M101.906 53.9219L94.3945 51.2383V48.0859L104.602 52.375V54.6367L101.906 53.9219ZM94.3945 56.1719L101.918 53.4297L104.602 52.7852V55.0352L94.3945 59.3242V56.1719ZM112.898 43.9375H119.262C120.566 43.9375 121.688 44.1328 122.625 44.5234C123.57 44.9141 124.297 45.4922 124.805 46.2578C125.312 47.0234 125.566 47.9648 125.566 49.082C125.566 49.9961 125.41 50.7812 125.098 51.4375C124.793 52.0859 124.359 52.6289 123.797 53.0664C123.242 53.4961 122.59 53.8398 121.84 54.0977L120.727 54.6836H115.195L115.172 51.9414H119.285C119.902 51.9414 120.414 51.832 120.82 51.6133C121.227 51.3945 121.531 51.0898 121.734 50.6992C121.945 50.3086 122.051 49.8555 122.051 49.3398C122.051 48.793 121.949 48.3203 121.746 47.9219C121.543 47.5234 121.234 47.2188 120.82 47.0078C120.406 46.7969 119.887 46.6914 119.262 46.6914H116.414V61H112.898V43.9375ZM122.438 61L118.547 53.3945L122.262 53.3711L126.199 60.8359V61H122.438ZM127.523 54.7891V54.543C127.523 53.6133 127.656 52.7578 127.922 51.9766C128.188 51.1875 128.574 50.5039 129.082 49.9258C129.59 49.3477 130.215 48.8984 130.957 48.5781C131.699 48.25 132.551 48.0859 133.512 48.0859C134.473 48.0859 135.328 48.25 136.078 48.5781C136.828 48.8984 137.457 49.3477 137.965 49.9258C138.48 50.5039 138.871 51.1875 139.137 51.9766C139.402 52.7578 139.535 53.6133 139.535 54.543V54.7891C139.535 55.7109 139.402 56.5664 139.137 57.3555C138.871 58.1367 138.48 58.8203 137.965 59.4062C137.457 59.9844 136.832 60.4336 136.09 60.7539C135.348 61.0742 134.496 61.2344 133.535 61.2344C132.574 61.2344 131.719 61.0742 130.969 60.7539C130.227 60.4336 129.598 59.9844 129.082 59.4062C128.574 58.8203 128.188 58.1367 127.922 57.3555C127.656 56.5664 127.523 55.7109 127.523 54.7891ZM130.898 54.543V54.7891C130.898 55.3203 130.945 55.8164 131.039 56.2773C131.133 56.7383 131.281 57.1445 131.484 57.4961C131.695 57.8398 131.969 58.1094 132.305 58.3047C132.641 58.5 133.051 58.5977 133.535 58.5977C134.004 58.5977 134.406 58.5 134.742 58.3047C135.078 58.1094 135.348 57.8398 135.551 57.4961C135.754 57.1445 135.902 56.7383 135.996 56.2773C136.098 55.8164 136.148 55.3203 136.148 54.7891V54.543C136.148 54.0273 136.098 53.543 135.996 53.0898C135.902 52.6289 135.75 52.2227 135.539 51.8711C135.336 51.5117 135.066 51.2305 134.73 51.0273C134.395 50.8242 133.988 50.7227 133.512 50.7227C133.035 50.7227 132.629 50.8242 132.293 51.0273C131.965 51.2305 131.695 51.5117 131.484 51.8711C131.281 52.2227 131.133 52.6289 131.039 53.0898C130.945 53.543 130.898 54.0273 130.898 54.543ZM148.453 58.1406V52.4922C148.453 52.0859 148.387 51.7383 148.254 51.4492C148.121 51.1523 147.914 50.9219 147.633 50.7578C147.359 50.5938 147.004 50.5117 146.566 50.5117C146.191 50.5117 145.867 50.5781 145.594 50.7109C145.32 50.8359 145.109 51.0195 144.961 51.2617C144.812 51.4961 144.738 51.7734 144.738 52.0938H141.363C141.363 51.5547 141.488 51.043 141.738 50.5586C141.988 50.0742 142.352 49.6484 142.828 49.2812C143.305 48.9062 143.871 48.6133 144.527 48.4023C145.191 48.1914 145.934 48.0859 146.754 48.0859C147.738 48.0859 148.613 48.25 149.379 48.5781C150.145 48.9062 150.746 49.3984 151.184 50.0547C151.629 50.7109 151.852 51.5312 151.852 52.5156V57.9414C151.852 58.6367 151.895 59.207 151.98 59.6523C152.066 60.0898 152.191 60.4727 152.355 60.8008V61H148.945C148.781 60.6562 148.656 60.2266 148.57 59.7109C148.492 59.1875 148.453 58.6641 148.453 58.1406ZM148.898 53.2773L148.922 55.1875H147.035C146.59 55.1875 146.203 55.2383 145.875 55.3398C145.547 55.4414 145.277 55.5859 145.066 55.7734C144.855 55.9531 144.699 56.1641 144.598 56.4062C144.504 56.6484 144.457 56.9141 144.457 57.2031C144.457 57.4922 144.523 57.7539 144.656 57.9883C144.789 58.2148 144.98 58.3945 145.23 58.5273C145.48 58.6523 145.773 58.7148 146.109 58.7148C146.617 58.7148 147.059 58.6133 147.434 58.4102C147.809 58.207 148.098 57.957 148.301 57.6602C148.512 57.3633 148.621 57.082 148.629 56.8164L149.52 58.2461C149.395 58.5664 149.223 58.8984 149.004 59.2422C148.793 59.5859 148.523 59.9102 148.195 60.2148C147.867 60.5117 147.473 60.7578 147.012 60.9531C146.551 61.1406 146.004 61.2344 145.371 61.2344C144.566 61.2344 143.836 61.0742 143.18 60.7539C142.531 60.4258 142.016 59.9766 141.633 59.4062C141.258 58.8281 141.07 58.1719 141.07 57.4375C141.07 56.7734 141.195 56.1836 141.445 55.668C141.695 55.1523 142.062 54.7188 142.547 54.3672C143.039 54.0078 143.652 53.7383 144.387 53.5586C145.121 53.3711 145.973 53.2773 146.941 53.2773H148.898ZM157.828 50.9453V61H154.441V48.3203H157.617L157.828 50.9453ZM157.359 54.2148H156.422C156.422 53.332 156.527 52.5195 156.738 51.7773C156.957 51.0273 157.273 50.3789 157.688 49.832C158.109 49.2773 158.629 48.8477 159.246 48.543C159.863 48.2383 160.578 48.0859 161.391 48.0859C161.953 48.0859 162.469 48.1719 162.938 48.3438C163.406 48.5078 163.809 48.7695 164.145 49.1289C164.488 49.4805 164.754 49.9414 164.941 50.5117C165.129 51.0742 165.223 51.75 165.223 52.5391V61H161.848V52.9141C161.848 52.3359 161.77 51.8906 161.613 51.5781C161.457 51.2656 161.234 51.0469 160.945 50.9219C160.664 50.7969 160.324 50.7344 159.926 50.7344C159.488 50.7344 159.105 50.8242 158.777 51.0039C158.457 51.1836 158.191 51.4336 157.98 51.7539C157.77 52.0664 157.613 52.4336 157.512 52.8555C157.41 53.2773 157.359 53.7305 157.359 54.2148ZM164.906 53.8281L163.699 53.9805C163.699 53.1523 163.801 52.3828 164.004 51.6719C164.215 50.9609 164.523 50.3359 164.93 49.7969C165.344 49.2578 165.855 48.8398 166.465 48.543C167.074 48.2383 167.777 48.0859 168.574 48.0859C169.184 48.0859 169.738 48.1758 170.238 48.3555C170.738 48.5273 171.164 48.8047 171.516 49.1875C171.875 49.5625 172.148 50.0547 172.336 50.6641C172.531 51.2734 172.629 52.0195 172.629 52.9023V61H169.242V52.9023C169.242 52.3164 169.164 51.8711 169.008 51.5664C168.859 51.2539 168.641 51.0391 168.352 50.9219C168.07 50.7969 167.734 50.7344 167.344 50.7344C166.938 50.7344 166.582 50.8164 166.277 50.9805C165.973 51.1367 165.719 51.3555 165.516 51.6367C165.312 51.918 165.16 52.2461 165.059 52.6211C164.957 52.9883 164.906 53.3906 164.906 53.8281ZM181.43 43.9375H187.793C189.098 43.9375 190.219 44.1328 191.156 44.5234C192.102 44.9141 192.828 45.4922 193.336 46.2578C193.844 47.0234 194.098 47.9648 194.098 49.082C194.098 49.9961 193.941 50.7812 193.629 51.4375C193.324 52.0859 192.891 52.6289 192.328 53.0664C191.773 53.4961 191.121 53.8398 190.371 54.0977L189.258 54.6836H183.727L183.703 51.9414H187.816C188.434 51.9414 188.945 51.832 189.352 51.6133C189.758 51.3945 190.062 51.0898 190.266 50.6992C190.477 50.3086 190.582 49.8555 190.582 49.3398C190.582 48.793 190.48 48.3203 190.277 47.9219C190.074 47.5234 189.766 47.2188 189.352 47.0078C188.938 46.7969 188.418 46.6914 187.793 46.6914H184.945V61H181.43V43.9375ZM190.969 61L187.078 53.3945L190.793 53.3711L194.73 60.8359V61H190.969ZM196.055 54.7891V54.543C196.055 53.6133 196.188 52.7578 196.453 51.9766C196.719 51.1875 197.105 50.5039 197.613 49.9258C198.121 49.3477 198.746 48.8984 199.488 48.5781C200.23 48.25 201.082 48.0859 202.043 48.0859C203.004 48.0859 203.859 48.25 204.609 48.5781C205.359 48.8984 205.988 49.3477 206.496 49.9258C207.012 50.5039 207.402 51.1875 207.668 51.9766C207.934 52.7578 208.066 53.6133 208.066 54.543V54.7891C208.066 55.7109 207.934 56.5664 207.668 57.3555C207.402 58.1367 207.012 58.8203 206.496 59.4062C205.988 59.9844 205.363 60.4336 204.621 60.7539C203.879 61.0742 203.027 61.2344 202.066 61.2344C201.105 61.2344 200.25 61.0742 199.5 60.7539C198.758 60.4336 198.129 59.9844 197.613 59.4062C197.105 58.8203 196.719 58.1367 196.453 57.3555C196.188 56.5664 196.055 55.7109 196.055 54.7891ZM199.43 54.543V54.7891C199.43 55.3203 199.477 55.8164 199.57 56.2773C199.664 56.7383 199.812 57.1445 200.016 57.4961C200.227 57.8398 200.5 58.1094 200.836 58.3047C201.172 58.5 201.582 58.5977 202.066 58.5977C202.535 58.5977 202.938 58.5 203.273 58.3047C203.609 58.1094 203.879 57.8398 204.082 57.4961C204.285 57.1445 204.434 56.7383 204.527 56.2773C204.629 55.8164 204.68 55.3203 204.68 54.7891V54.543C204.68 54.0273 204.629 53.543 204.527 53.0898C204.434 52.6289 204.281 52.2227 204.07 51.8711C203.867 51.5117 203.598 51.2305 203.262 51.0273C202.926 50.8242 202.52 50.7227 202.043 50.7227C201.566 50.7227 201.16 50.8242 200.824 51.0273C200.496 51.2305 200.227 51.5117 200.016 51.8711C199.812 52.2227 199.664 52.6289 199.57 53.0898C199.477 53.543 199.43 54.0273 199.43 54.543ZM214.266 58.5391L217.078 48.3203H220.605L216.328 61H214.195L214.266 58.5391ZM212.332 48.3203L215.156 58.5508L215.215 61H213.07L208.793 48.3203H212.332ZM227.789 61.2344C226.805 61.2344 225.922 61.0781 225.141 60.7656C224.359 60.4453 223.695 60.0039 223.148 59.4414C222.609 58.8789 222.195 58.2266 221.906 57.4844C221.617 56.7344 221.473 55.9375 221.473 55.0938V54.625C221.473 53.6641 221.609 52.7852 221.883 51.9883C222.156 51.1914 222.547 50.5 223.055 49.9141C223.57 49.3281 224.195 48.8789 224.93 48.5664C225.664 48.2461 226.492 48.0859 227.414 48.0859C228.312 48.0859 229.109 48.2344 229.805 48.5312C230.5 48.8281 231.082 49.25 231.551 49.7969C232.027 50.3438 232.387 51 232.629 51.7656C232.871 52.5234 232.992 53.3672 232.992 54.2969V55.7031H222.914V53.4531H229.676V53.1953C229.676 52.7266 229.59 52.3086 229.418 51.9414C229.254 51.5664 229.004 51.2695 228.668 51.0508C228.332 50.832 227.902 50.7227 227.379 50.7227C226.934 50.7227 226.551 50.8203 226.23 51.0156C225.91 51.2109 225.648 51.4844 225.445 51.8359C225.25 52.1875 225.102 52.6016 225 53.0781C224.906 53.5469 224.859 54.0625 224.859 54.625V55.0938C224.859 55.6016 224.93 56.0703 225.07 56.5C225.219 56.9297 225.426 57.3008 225.691 57.6133C225.965 57.9258 226.293 58.168 226.676 58.3398C227.066 58.5117 227.508 58.5977 228 58.5977C228.609 58.5977 229.176 58.4805 229.699 58.2461C230.23 58.0039 230.688 57.6406 231.07 57.1562L232.711 58.9375C232.445 59.3203 232.082 59.6875 231.621 60.0391C231.168 60.3906 230.621 60.6797 229.98 60.9062C229.34 61.125 228.609 61.2344 227.789 61.2344ZM238.289 51.0859V61H234.914V48.3203H238.09L238.289 51.0859ZM242.109 48.2383L242.051 51.3672C241.887 51.3438 241.688 51.3242 241.453 51.3086C241.227 51.2852 241.02 51.2734 240.832 51.2734C240.355 51.2734 239.941 51.3359 239.59 51.4609C239.246 51.5781 238.957 51.7539 238.723 51.9883C238.496 52.2227 238.324 52.5078 238.207 52.8438C238.098 53.1797 238.035 53.5625 238.02 53.9922L237.34 53.7812C237.34 52.9609 237.422 52.207 237.586 51.5195C237.75 50.8242 237.988 50.2188 238.301 49.7031C238.621 49.1875 239.012 48.7891 239.473 48.5078C239.934 48.2266 240.461 48.0859 241.055 48.0859C241.242 48.0859 241.434 48.1016 241.629 48.1328C241.824 48.1562 241.984 48.1914 242.109 48.2383Z" fill="#888888"/>
<path d="M114.117 84.875H122.344V107.164C122.344 109.82 121.789 112.07 120.68 113.914C119.57 115.742 118.016 117.125 116.016 118.062C114.016 119 111.664 119.469 108.961 119.469C106.289 119.469 103.938 119 101.906 118.062C99.8906 117.125 98.3125 115.742 97.1719 113.914C96.0469 112.07 95.4844 109.82 95.4844 107.164V84.875H103.734V107.164C103.734 108.57 103.938 109.719 104.344 110.609C104.75 111.484 105.344 112.125 106.125 112.531C106.906 112.938 107.852 113.141 108.961 113.141C110.086 113.141 111.031 112.938 111.797 112.531C112.562 112.125 113.141 111.484 113.531 110.609C113.922 109.719 114.117 108.57 114.117 107.164V84.875ZM134.906 99.0547V119H127.008V93.6406H134.414L134.906 99.0547ZM133.969 105.453L132.117 105.5C132.117 103.562 132.352 101.836 132.82 100.32C133.289 98.7891 133.953 97.4922 134.812 96.4297C135.672 95.3672 136.695 94.5625 137.883 94.0156C139.086 93.4531 140.422 93.1719 141.891 93.1719C143.062 93.1719 144.133 93.3438 145.102 93.6875C146.086 94.0312 146.93 94.5859 147.633 95.3516C148.352 96.1172 148.898 97.1328 149.273 98.3984C149.664 99.6484 149.859 101.195 149.859 103.039V119H141.914V103.016C141.914 102 141.773 101.227 141.492 100.695C141.211 100.148 140.805 99.7734 140.273 99.5703C139.742 99.3672 139.094 99.2656 138.328 99.2656C137.516 99.2656 136.828 99.4219 136.266 99.7344C135.703 100.047 135.25 100.484 134.906 101.047C134.578 101.594 134.336 102.242 134.18 102.992C134.039 103.742 133.969 104.562 133.969 105.453ZM162.586 93.6406V119H154.664V93.6406H162.586ZM154.195 87.1016C154.195 85.9766 154.602 85.0547 155.414 84.3359C156.227 83.6172 157.281 83.2578 158.578 83.2578C159.875 83.2578 160.93 83.6172 161.742 84.3359C162.555 85.0547 162.961 85.9766 162.961 87.1016C162.961 88.2266 162.555 89.1484 161.742 89.8672C160.93 90.5859 159.875 90.9453 158.578 90.9453C157.281 90.9453 156.227 90.5859 155.414 89.8672C154.602 89.1484 154.195 88.2266 154.195 87.1016ZM180.82 93.6406V99.125H165.539V93.6406H180.82ZM168.75 87.3359H176.648V110.727C176.648 111.398 176.727 111.922 176.883 112.297C177.039 112.656 177.305 112.914 177.68 113.07C178.07 113.211 178.586 113.281 179.227 113.281C179.68 113.281 180.055 113.273 180.352 113.258C180.648 113.227 180.93 113.188 181.195 113.141V118.789C180.523 119.008 179.82 119.172 179.086 119.281C178.352 119.406 177.57 119.469 176.742 119.469C175.055 119.469 173.609 119.203 172.406 118.672C171.219 118.141 170.312 117.305 169.688 116.164C169.062 115.023 168.75 113.539 168.75 111.711V87.3359ZM211.406 84.875V119H203.18V84.875H211.406ZM221.672 84.875V91.2266H193.148V84.875H221.672ZM234.961 119.469C232.898 119.469 231.055 119.148 229.43 118.508C227.805 117.852 226.43 116.953 225.305 115.812C224.195 114.672 223.344 113.359 222.75 111.875C222.172 110.391 221.883 108.82 221.883 107.164V106.273C221.883 104.414 222.141 102.695 222.656 101.117C223.172 99.5234 223.938 98.1328 224.953 96.9453C225.969 95.7578 227.242 94.8359 228.773 94.1797C230.305 93.5078 232.086 93.1719 234.117 93.1719C235.914 93.1719 237.523 93.4609 238.945 94.0391C240.367 94.6172 241.57 95.4453 242.555 96.5234C243.555 97.6016 244.312 98.9062 244.828 100.438C245.359 101.969 245.625 103.688 245.625 105.594V108.805H224.906V103.859H237.914V103.25C237.93 102.406 237.781 101.688 237.469 101.094C237.172 100.5 236.734 100.047 236.156 99.7344C235.578 99.4219 234.875 99.2656 234.047 99.2656C233.188 99.2656 232.477 99.4531 231.914 99.8281C231.367 100.203 230.938 100.719 230.625 101.375C230.328 102.016 230.117 102.758 229.992 103.602C229.867 104.445 229.805 105.336 229.805 106.273V107.164C229.805 108.102 229.93 108.953 230.18 109.719C230.445 110.484 230.82 111.141 231.305 111.688C231.805 112.219 232.398 112.633 233.086 112.93C233.789 113.227 234.586 113.375 235.477 113.375C236.555 113.375 237.617 113.172 238.664 112.766C239.711 112.359 240.609 111.688 241.359 110.75L244.945 115.016C244.43 115.75 243.695 116.461 242.742 117.148C241.805 117.836 240.68 118.398 239.367 118.836C238.055 119.258 236.586 119.469 234.961 119.469ZM262.125 111.875C262.125 111.438 261.977 111.062 261.68 110.75C261.398 110.422 260.898 110.125 260.18 109.859C259.461 109.578 258.453 109.297 257.156 109.016C255.922 108.75 254.758 108.398 253.664 107.961C252.586 107.523 251.641 106.992 250.828 106.367C250.016 105.742 249.375 105 248.906 104.141C248.453 103.281 248.227 102.297 248.227 101.188C248.227 100.109 248.453 99.0938 248.906 98.1406C249.375 97.1719 250.055 96.3203 250.945 95.5859C251.852 94.8359 252.953 94.25 254.25 93.8281C255.547 93.3906 257.023 93.1719 258.68 93.1719C260.961 93.1719 262.93 93.5234 264.586 94.2266C266.242 94.9141 267.516 95.8828 268.406 97.1328C269.312 98.3672 269.766 99.7969 269.766 101.422H261.867C261.867 100.781 261.758 100.234 261.539 99.7812C261.336 99.3281 261 98.9844 260.531 98.75C260.062 98.5 259.438 98.375 258.656 98.375C258.109 98.375 257.609 98.4766 257.156 98.6797C256.719 98.8828 256.367 99.1641 256.102 99.5234C255.836 99.8828 255.703 100.305 255.703 100.789C255.703 101.133 255.781 101.445 255.938 101.727C256.109 101.992 256.367 102.242 256.711 102.477C257.055 102.695 257.492 102.898 258.023 103.086C258.555 103.258 259.195 103.414 259.945 103.555C261.648 103.867 263.242 104.312 264.727 104.891C266.211 105.469 267.414 106.289 268.336 107.352C269.273 108.414 269.742 109.844 269.742 111.641C269.742 112.766 269.484 113.805 268.969 114.758C268.453 115.695 267.711 116.523 266.742 117.242C265.773 117.945 264.609 118.492 263.25 118.883C261.891 119.273 260.359 119.469 258.656 119.469C256.234 119.469 254.188 119.039 252.516 118.18C250.844 117.305 249.578 116.211 248.719 114.898C247.875 113.57 247.453 112.227 247.453 110.867H254.812C254.844 111.648 255.031 112.289 255.375 112.789C255.734 113.289 256.211 113.656 256.805 113.891C257.398 114.125 258.086 114.242 258.867 114.242C259.586 114.242 260.18 114.141 260.648 113.938C261.133 113.734 261.5 113.461 261.75 113.117C262 112.758 262.125 112.344 262.125 111.875ZM286.805 93.6406V99.125H271.523V93.6406H286.805ZM274.734 87.3359H282.633V110.727C282.633 111.398 282.711 111.922 282.867 112.297C283.023 112.656 283.289 112.914 283.664 113.07C284.055 113.211 284.57 113.281 285.211 113.281C285.664 113.281 286.039 113.273 286.336 113.258C286.633 113.227 286.914 113.188 287.18 113.141V118.789C286.508 119.008 285.805 119.172 285.07 119.281C284.336 119.406 283.555 119.469 282.727 119.469C281.039 119.469 279.594 119.203 278.391 118.672C277.203 118.141 276.297 117.305 275.672 116.164C275.047 115.023 274.734 113.539 274.734 111.711V87.3359ZM298.289 93.6406V119H290.367V93.6406H298.289ZM289.898 87.1016C289.898 85.9766 290.305 85.0547 291.117 84.3359C291.93 83.6172 292.984 83.2578 294.281 83.2578C295.578 83.2578 296.633 83.6172 297.445 84.3359C298.258 85.0547 298.664 85.9766 298.664 87.1016C298.664 88.2266 298.258 89.1484 297.445 89.8672C296.633 90.5859 295.578 90.9453 294.281 90.9453C292.984 90.9453 291.93 90.5859 291.117 89.8672C290.305 89.1484 289.898 88.2266 289.898 87.1016ZM310.922 99.0547V119H303.023V93.6406H310.43L310.922 99.0547ZM309.984 105.453L308.133 105.5C308.133 103.562 308.367 101.836 308.836 100.32C309.305 98.7891 309.969 97.4922 310.828 96.4297C311.688 95.3672 312.711 94.5625 313.898 94.0156C315.102 93.4531 316.438 93.1719 317.906 93.1719C319.078 93.1719 320.148 93.3438 321.117 93.6875C322.102 94.0312 322.945 94.5859 323.648 95.3516C324.367 96.1172 324.914 97.1328 325.289 98.3984C325.68 99.6484 325.875 101.195 325.875 103.039V119H317.93V103.016C317.93 102 317.789 101.227 317.508 100.695C317.227 100.148 316.82 99.7734 316.289 99.5703C315.758 99.3672 315.109 99.2656 314.344 99.2656C313.531 99.2656 312.844 99.4219 312.281 99.7344C311.719 100.047 311.266 100.484 310.922 101.047C310.594 101.594 310.352 102.242 310.195 102.992C310.055 103.742 309.984 104.562 309.984 105.453ZM346.195 93.6406H353.367V118.016C353.367 120.359 352.828 122.344 351.75 123.969C350.672 125.609 349.164 126.852 347.227 127.695C345.305 128.555 343.055 128.984 340.477 128.984C339.336 128.984 338.172 128.836 336.984 128.539C335.797 128.258 334.688 127.836 333.656 127.273C332.625 126.711 331.758 126.016 331.055 125.188L334.359 120.547C335 121.266 335.805 121.875 336.773 122.375C337.742 122.891 338.883 123.148 340.195 123.148C341.336 123.148 342.289 122.945 343.055 122.539C343.836 122.133 344.43 121.539 344.836 120.758C345.242 119.992 345.445 119.062 345.445 117.969V99.6406L346.195 93.6406ZM329.344 106.625V106.133C329.344 104.211 329.578 102.461 330.047 100.883C330.531 99.2891 331.219 97.9219 332.109 96.7812C333.016 95.625 334.109 94.7344 335.391 94.1094C336.672 93.4844 338.117 93.1719 339.727 93.1719C341.461 93.1719 342.883 93.5078 343.992 94.1797C345.117 94.8359 346.016 95.7578 346.688 96.9453C347.375 98.1328 347.906 99.5234 348.281 101.117C348.672 102.695 349 104.398 349.266 106.227V106.812C349 108.531 348.633 110.156 348.164 111.688C347.711 113.203 347.117 114.547 346.383 115.719C345.648 116.891 344.727 117.812 343.617 118.484C342.523 119.141 341.211 119.469 339.68 119.469C338.086 119.469 336.648 119.148 335.367 118.508C334.102 117.867 333.016 116.969 332.109 115.812C331.219 114.656 330.531 113.297 330.047 111.734C329.578 110.172 329.344 108.469 329.344 106.625ZM337.242 106.133V106.625C337.242 107.578 337.328 108.461 337.5 109.273C337.688 110.086 337.969 110.805 338.344 111.43C338.719 112.039 339.18 112.516 339.727 112.859C340.289 113.203 340.945 113.375 341.695 113.375C342.836 113.375 343.758 113.133 344.461 112.648C345.164 112.164 345.672 111.477 345.984 110.586C346.297 109.695 346.43 108.648 346.383 107.445V105.594C346.414 104.562 346.344 103.656 346.172 102.875C346 102.078 345.727 101.414 345.352 100.883C344.992 100.352 344.508 99.9531 343.898 99.6875C343.305 99.4062 342.586 99.2656 341.742 99.2656C341.008 99.2656 340.359 99.4375 339.797 99.7812C339.234 100.125 338.766 100.609 338.391 101.234C338.016 101.844 337.727 102.57 337.523 103.414C337.336 104.242 337.242 105.148 337.242 106.133Z" fill="black"/>
<path d="M1134 0H1348C1356.28 0 1363 6.71573 1363 15V148C1363 156.284 1356.28 163 1348 163H1134V0Z" fill="#524077"/>
<path d="M1210.62 43.625H1286.38V119.375H1210.62V43.625Z" fill="white" fill-opacity="0.01"/>
<path d="M1276.91 72.0312V105.172C1276.91 107.787 1274.79 109.906 1272.17 109.906H1224.83C1222.21 109.906 1220.09 107.787 1220.09 105.172V57.8281C1220.09 55.2134 1222.21 53.0938 1224.83 53.0938H1261.12" stroke="white" stroke-width="7.24" stroke-linecap="round" stroke-linejoin="round"/>
<path d="M1232.72 75.1875L1248.5 87.8125L1276.91 53.0938" stroke="white" stroke-width="7.24" stroke-linecap="round" stroke-linejoin="round"/>
</svg>
