<svg width="1363" height="163" viewBox="0 0 1363 163" fill="none" xmlns="http://www.w3.org/2000/svg">
<path d="M0 15C0 6.71573 6.71573 0 15 0H37V163H15C6.71573 163 0 156.284 0 148V15Z" fill="#424242"/>
<rect width="1097" height="163" transform="translate(37)" fill="#F0F0F0"/>
<path d="M101.906 53.9219L94.3945 51.2383V48.0859L104.602 52.375V54.6367L101.906 53.9219ZM94.3945 56.1719L101.918 53.4297L104.602 52.7852V55.0352L94.3945 59.3242V56.1719ZM119.543 54.918H115.195V52.1758H119.543C120.215 52.1758 120.762 52.0664 121.184 51.8477C121.605 51.6211 121.914 51.3086 122.109 50.9102C122.305 50.5117 122.402 50.0625 122.402 49.5625C122.402 49.0547 122.305 48.582 122.109 48.1445C121.914 47.707 121.605 47.3555 121.184 47.0898C120.762 46.8242 120.215 46.6914 119.543 46.6914H116.414V61H112.898V43.9375H119.543C120.879 43.9375 122.023 44.1797 122.977 44.6641C123.938 45.1406 124.672 45.8008 125.18 46.6445C125.688 47.4883 125.941 48.4531 125.941 49.5391C125.941 50.6406 125.688 51.5938 125.18 52.3984C124.672 53.2031 123.938 53.8242 122.977 54.2617C122.023 54.6992 120.879 54.918 119.543 54.918ZM131.719 43V61H128.332V43H131.719ZM141.352 58.1406V52.4922C141.352 52.0859 141.285 51.7383 141.152 51.4492C141.02 51.1523 140.812 50.9219 140.531 50.7578C140.258 50.5938 139.902 50.5117 139.465 50.5117C139.09 50.5117 138.766 50.5781 138.492 50.7109C138.219 50.8359 138.008 51.0195 137.859 51.2617C137.711 51.4961 137.637 51.7734 137.637 52.0938H134.262C134.262 51.5547 134.387 51.043 134.637 50.5586C134.887 50.0742 135.25 49.6484 135.727 49.2812C136.203 48.9062 136.77 48.6133 137.426 48.4023C138.09 48.1914 138.832 48.0859 139.652 48.0859C140.637 48.0859 141.512 48.25 142.277 48.5781C143.043 48.9062 143.645 49.3984 144.082 50.0547C144.527 50.7109 144.75 51.5312 144.75 52.5156V57.9414C144.75 58.6367 144.793 59.207 144.879 59.6523C144.965 60.0898 145.09 60.4727 145.254 60.8008V61H141.844C141.68 60.6562 141.555 60.2266 141.469 59.7109C141.391 59.1875 141.352 58.6641 141.352 58.1406ZM141.797 53.2773L141.82 55.1875H139.934C139.488 55.1875 139.102 55.2383 138.773 55.3398C138.445 55.4414 138.176 55.5859 137.965 55.7734C137.754 55.9531 137.598 56.1641 137.496 56.4062C137.402 56.6484 137.355 56.9141 137.355 57.2031C137.355 57.4922 137.422 57.7539 137.555 57.9883C137.688 58.2148 137.879 58.3945 138.129 58.5273C138.379 58.6523 138.672 58.7148 139.008 58.7148C139.516 58.7148 139.957 58.6133 140.332 58.4102C140.707 58.207 140.996 57.957 141.199 57.6602C141.41 57.3633 141.52 57.082 141.527 56.8164L142.418 58.2461C142.293 58.5664 142.121 58.8984 141.902 59.2422C141.691 59.5859 141.422 59.9102 141.094 60.2148C140.766 60.5117 140.371 60.7578 139.91 60.9531C139.449 61.1406 138.902 61.2344 138.27 61.2344C137.465 61.2344 136.734 61.0742 136.078 60.7539C135.43 60.4258 134.914 59.9766 134.531 59.4062C134.156 58.8281 133.969 58.1719 133.969 57.4375C133.969 56.7734 134.094 56.1836 134.344 55.668C134.594 55.1523 134.961 54.7188 135.445 54.3672C135.938 54.0078 136.551 53.7383 137.285 53.5586C138.02 53.3711 138.871 53.2773 139.84 53.2773H141.797ZM150.656 51.0273V61H147.281V48.3203H150.445L150.656 51.0273ZM150.164 54.2148H149.25C149.25 53.2773 149.371 52.4336 149.613 51.6836C149.855 50.9258 150.195 50.2812 150.633 49.75C151.07 49.2109 151.59 48.8008 152.191 48.5195C152.801 48.2305 153.48 48.0859 154.23 48.0859C154.824 48.0859 155.367 48.1719 155.859 48.3438C156.352 48.5156 156.773 48.7891 157.125 49.1641C157.484 49.5391 157.758 50.0352 157.945 50.6523C158.141 51.2695 158.238 52.0234 158.238 52.9141V61H154.84V52.9023C154.84 52.3398 154.762 51.9023 154.605 51.5898C154.449 51.2773 154.219 51.0586 153.914 50.9336C153.617 50.8008 153.25 50.7344 152.812 50.7344C152.359 50.7344 151.965 50.8242 151.629 51.0039C151.301 51.1836 151.027 51.4336 150.809 51.7539C150.598 52.0664 150.438 52.4336 150.328 52.8555C150.219 53.2773 150.164 53.7305 150.164 54.2148ZM173.93 46.8555L169.289 61H165.551L171.891 43.9375H174.27L173.93 46.8555ZM177.785 61L173.133 46.8555L172.758 43.9375H175.16L181.535 61H177.785ZM177.574 54.6484V57.4023H168.562V54.6484H177.574ZM190.395 58.2344V43H193.793V61H190.734L190.395 58.2344ZM182.379 54.8125V54.5664C182.379 53.5977 182.488 52.7188 182.707 51.9297C182.926 51.1328 183.246 50.4492 183.668 49.8789C184.09 49.3086 184.609 48.8672 185.227 48.5547C185.844 48.2422 186.547 48.0859 187.336 48.0859C188.078 48.0859 188.727 48.2422 189.281 48.5547C189.844 48.8672 190.32 49.3125 190.711 49.8906C191.109 50.4609 191.43 51.1367 191.672 51.918C191.914 52.6914 192.09 53.5391 192.199 54.4609V55C192.09 55.8828 191.914 56.7031 191.672 57.4609C191.43 58.2188 191.109 58.8828 190.711 59.4531C190.32 60.0156 189.844 60.4531 189.281 60.7656C188.719 61.0781 188.062 61.2344 187.312 61.2344C186.523 61.2344 185.82 61.0742 185.203 60.7539C184.594 60.4336 184.078 59.9844 183.656 59.4062C183.242 58.8281 182.926 58.1484 182.707 57.3672C182.488 56.5859 182.379 55.7344 182.379 54.8125ZM185.754 54.5664V54.8125C185.754 55.3359 185.793 55.8242 185.871 56.2773C185.957 56.7305 186.094 57.1328 186.281 57.4844C186.477 57.8281 186.727 58.0977 187.031 58.293C187.344 58.4805 187.723 58.5742 188.168 58.5742C188.746 58.5742 189.223 58.4453 189.598 58.1875C189.973 57.9219 190.258 57.5586 190.453 57.0977C190.656 56.6367 190.773 56.1055 190.805 55.5039V53.9688C190.781 53.4766 190.711 53.0352 190.594 52.6445C190.484 52.2461 190.32 51.9062 190.102 51.625C189.891 51.3438 189.625 51.125 189.305 50.9688C188.992 50.8125 188.621 50.7344 188.191 50.7344C187.754 50.7344 187.379 50.8359 187.066 51.0391C186.754 51.2344 186.5 51.5039 186.305 51.8477C186.117 52.1914 185.977 52.5977 185.883 53.0664C185.797 53.5273 185.754 54.0273 185.754 54.5664ZM200.742 58.5391L203.555 48.3203H207.082L202.805 61H200.672L200.742 58.5391ZM198.809 48.3203L201.633 58.5508L201.691 61H199.547L195.27 48.3203H198.809ZM214.266 61.2344C213.281 61.2344 212.398 61.0781 211.617 60.7656C210.836 60.4453 210.172 60.0039 209.625 59.4414C209.086 58.8789 208.672 58.2266 208.383 57.4844C208.094 56.7344 207.949 55.9375 207.949 55.0938V54.625C207.949 53.6641 208.086 52.7852 208.359 51.9883C208.633 51.1914 209.023 50.5 209.531 49.9141C210.047 49.3281 210.672 48.8789 211.406 48.5664C212.141 48.2461 212.969 48.0859 213.891 48.0859C214.789 48.0859 215.586 48.2344 216.281 48.5312C216.977 48.8281 217.559 49.25 218.027 49.7969C218.504 50.3438 218.863 51 219.105 51.7656C219.348 52.5234 219.469 53.3672 219.469 54.2969V55.7031H209.391V53.4531H216.152V53.1953C216.152 52.7266 216.066 52.3086 215.895 51.9414C215.73 51.5664 215.48 51.2695 215.145 51.0508C214.809 50.832 214.379 50.7227 213.855 50.7227C213.41 50.7227 213.027 50.8203 212.707 51.0156C212.387 51.2109 212.125 51.4844 211.922 51.8359C211.727 52.1875 211.578 52.6016 211.477 53.0781C211.383 53.5469 211.336 54.0625 211.336 54.625V55.0938C211.336 55.6016 211.406 56.0703 211.547 56.5C211.695 56.9297 211.902 57.3008 212.168 57.6133C212.441 57.9258 212.77 58.168 213.152 58.3398C213.543 58.5117 213.984 58.5977 214.477 58.5977C215.086 58.5977 215.652 58.4805 216.176 58.2461C216.707 58.0039 217.164 57.6406 217.547 57.1562L219.188 58.9375C218.922 59.3203 218.559 59.6875 218.098 60.0391C217.645 60.3906 217.098 60.6797 216.457 60.9062C215.816 61.125 215.086 61.2344 214.266 61.2344ZM224.695 51.0273V61H221.32V48.3203H224.484L224.695 51.0273ZM224.203 54.2148H223.289C223.289 53.2773 223.41 52.4336 223.652 51.6836C223.895 50.9258 224.234 50.2812 224.672 49.75C225.109 49.2109 225.629 48.8008 226.23 48.5195C226.84 48.2305 227.52 48.0859 228.27 48.0859C228.863 48.0859 229.406 48.1719 229.898 48.3438C230.391 48.5156 230.812 48.7891 231.164 49.1641C231.523 49.5391 231.797 50.0352 231.984 50.6523C232.18 51.2695 232.277 52.0234 232.277 52.9141V61H228.879V52.9023C228.879 52.3398 228.801 51.9023 228.645 51.5898C228.488 51.2773 228.258 51.0586 227.953 50.9336C227.656 50.8008 227.289 50.7344 226.852 50.7344C226.398 50.7344 226.004 50.8242 225.668 51.0039C225.34 51.1836 225.066 51.4336 224.848 51.7539C224.637 52.0664 224.477 52.4336 224.367 52.8555C224.258 53.2773 224.203 53.7305 224.203 54.2148ZM241.055 48.3203V50.7109H233.672V48.3203H241.055ZM235.5 45.1914H238.875V57.1797C238.875 57.5469 238.922 57.8281 239.016 58.0234C239.117 58.2188 239.266 58.3555 239.461 58.4336C239.656 58.5039 239.902 58.5391 240.199 58.5391C240.41 58.5391 240.598 58.5312 240.762 58.5156C240.934 58.4922 241.078 58.4688 241.195 58.4453L241.207 60.9297C240.918 61.0234 240.605 61.0977 240.27 61.1523C239.934 61.207 239.562 61.2344 239.156 61.2344C238.414 61.2344 237.766 61.1133 237.211 60.8711C236.664 60.6211 236.242 60.2227 235.945 59.6758C235.648 59.1289 235.5 58.4102 235.5 57.5195V45.1914ZM250.477 57.9648V48.3203H253.852V61H250.676L250.477 57.9648ZM250.852 55.3633L251.848 55.3398C251.848 56.1836 251.75 56.9688 251.555 57.6953C251.359 58.4141 251.066 59.0391 250.676 59.5703C250.285 60.0938 249.793 60.5039 249.199 60.8008C248.605 61.0898 247.906 61.2344 247.102 61.2344C246.484 61.2344 245.914 61.1484 245.391 60.9766C244.875 60.7969 244.43 60.5195 244.055 60.1445C243.688 59.7617 243.398 59.2734 243.188 58.6797C242.984 58.0781 242.883 57.3555 242.883 56.5117V48.3203H246.258V56.5352C246.258 56.9102 246.301 57.2266 246.387 57.4844C246.48 57.7422 246.609 57.9531 246.773 58.1172C246.938 58.2812 247.129 58.3984 247.348 58.4688C247.574 58.5391 247.824 58.5742 248.098 58.5742C248.793 58.5742 249.34 58.4336 249.738 58.1523C250.145 57.8711 250.43 57.4883 250.594 57.0039C250.766 56.5117 250.852 55.9648 250.852 55.3633ZM259.805 51.0859V61H256.43V48.3203H259.605L259.805 51.0859ZM263.625 48.2383L263.566 51.3672C263.402 51.3438 263.203 51.3242 262.969 51.3086C262.742 51.2852 262.535 51.2734 262.348 51.2734C261.871 51.2734 261.457 51.3359 261.105 51.4609C260.762 51.5781 260.473 51.7539 260.238 51.9883C260.012 52.2227 259.84 52.5078 259.723 52.8438C259.613 53.1797 259.551 53.5625 259.535 53.9922L258.855 53.7812C258.855 52.9609 258.938 52.207 259.102 51.5195C259.266 50.8242 259.504 50.2188 259.816 49.7031C260.137 49.1875 260.527 48.7891 260.988 48.5078C261.449 48.2266 261.977 48.0859 262.57 48.0859C262.758 48.0859 262.949 48.1016 263.145 48.1328C263.34 48.1562 263.5 48.1914 263.625 48.2383ZM270.82 61.2344C269.836 61.2344 268.953 61.0781 268.172 60.7656C267.391 60.4453 266.727 60.0039 266.18 59.4414C265.641 58.8789 265.227 58.2266 264.938 57.4844C264.648 56.7344 264.504 55.9375 264.504 55.0938V54.625C264.504 53.6641 264.641 52.7852 264.914 51.9883C265.188 51.1914 265.578 50.5 266.086 49.9141C266.602 49.3281 267.227 48.8789 267.961 48.5664C268.695 48.2461 269.523 48.0859 270.445 48.0859C271.344 48.0859 272.141 48.2344 272.836 48.5312C273.531 48.8281 274.113 49.25 274.582 49.7969C275.059 50.3438 275.418 51 275.66 51.7656C275.902 52.5234 276.023 53.3672 276.023 54.2969V55.7031H265.945V53.4531H272.707V53.1953C272.707 52.7266 272.621 52.3086 272.449 51.9414C272.285 51.5664 272.035 51.2695 271.699 51.0508C271.363 50.832 270.934 50.7227 270.41 50.7227C269.965 50.7227 269.582 50.8203 269.262 51.0156C268.941 51.2109 268.68 51.4844 268.477 51.8359C268.281 52.1875 268.133 52.6016 268.031 53.0781C267.938 53.5469 267.891 54.0625 267.891 54.625V55.0938C267.891 55.6016 267.961 56.0703 268.102 56.5C268.25 56.9297 268.457 57.3008 268.723 57.6133C268.996 57.9258 269.324 58.168 269.707 58.3398C270.098 58.5117 270.539 58.5977 271.031 58.5977C271.641 58.5977 272.207 58.4805 272.73 58.2461C273.262 58.0039 273.719 57.6406 274.102 57.1562L275.742 58.9375C275.477 59.3203 275.113 59.6875 274.652 60.0391C274.199 60.3906 273.652 60.6797 273.012 60.9062C272.371 61.125 271.641 61.2344 270.82 61.2344ZM284.801 57.4961C284.801 57.2539 284.73 57.0352 284.59 56.8398C284.449 56.6445 284.188 56.4648 283.805 56.3008C283.43 56.1289 282.887 55.9727 282.176 55.832C281.535 55.6914 280.938 55.5156 280.383 55.3047C279.836 55.0859 279.359 54.8242 278.953 54.5195C278.555 54.2148 278.242 53.8555 278.016 53.4414C277.789 53.0195 277.676 52.5391 277.676 52C277.676 51.4688 277.789 50.9688 278.016 50.5C278.25 50.0312 278.582 49.6172 279.012 49.2578C279.449 48.8906 279.98 48.6055 280.605 48.4023C281.238 48.1914 281.949 48.0859 282.738 48.0859C283.84 48.0859 284.785 48.2617 285.574 48.6133C286.371 48.9648 286.98 49.4492 287.402 50.0664C287.832 50.6758 288.047 51.3711 288.047 52.1523H284.672C284.672 51.8242 284.602 51.5312 284.461 51.2734C284.328 51.0078 284.117 50.8008 283.828 50.6523C283.547 50.4961 283.18 50.418 282.727 50.418C282.352 50.418 282.027 50.4844 281.754 50.6172C281.48 50.7422 281.27 50.9141 281.121 51.1328C280.98 51.3438 280.91 51.5781 280.91 51.8359C280.91 52.0312 280.949 52.207 281.027 52.3633C281.113 52.5117 281.25 52.6484 281.438 52.7734C281.625 52.8984 281.867 53.0156 282.164 53.125C282.469 53.2266 282.844 53.3203 283.289 53.4062C284.203 53.5938 285.02 53.8398 285.738 54.1445C286.457 54.4414 287.027 54.8477 287.449 55.3633C287.871 55.8711 288.082 56.5391 288.082 57.3672C288.082 57.9297 287.957 58.4453 287.707 58.9141C287.457 59.3828 287.098 59.793 286.629 60.1445C286.16 60.4883 285.598 60.7578 284.941 60.9531C284.293 61.1406 283.562 61.2344 282.75 61.2344C281.57 61.2344 280.57 61.0234 279.75 60.6016C278.938 60.1797 278.32 59.6445 277.898 58.9961C277.484 58.3398 277.277 57.668 277.277 56.9805H280.477C280.492 57.4414 280.609 57.8125 280.828 58.0938C281.055 58.375 281.34 58.5781 281.684 58.7031C282.035 58.8281 282.414 58.8906 282.82 58.8906C283.258 58.8906 283.621 58.832 283.91 58.7148C284.199 58.5898 284.418 58.4258 284.566 58.2227C284.723 58.0117 284.801 57.7695 284.801 57.4961Z" fill="#888888"/>
<path d="M109.219 107.422H100.734V101.07H109.219C110.375 101.07 111.312 100.875 112.031 100.484C112.75 100.094 113.273 99.5547 113.602 98.8672C113.945 98.1641 114.117 97.375 114.117 96.5C114.117 95.5625 113.945 94.6953 113.602 93.8984C113.273 93.1016 112.75 92.4609 112.031 91.9766C111.312 91.4766 110.375 91.2266 109.219 91.2266H103.828V119H95.6016V84.875H109.219C111.953 84.875 114.305 85.375 116.273 86.375C118.258 87.375 119.781 88.75 120.844 90.5C121.906 92.2344 122.438 94.2188 122.438 96.4531C122.438 98.6562 121.906 100.578 120.844 102.219C119.781 103.859 118.258 105.141 116.273 106.062C114.305 106.969 111.953 107.422 109.219 107.422ZM134.461 99.9219V119H126.562V93.6406H133.945L134.461 99.9219ZM141.961 93.4531L141.82 100.789C141.508 100.758 141.086 100.719 140.555 100.672C140.023 100.625 139.578 100.602 139.219 100.602C138.297 100.602 137.5 100.711 136.828 100.93C136.172 101.133 135.625 101.445 135.188 101.867C134.766 102.273 134.453 102.789 134.25 103.414C134.062 104.039 133.977 104.766 133.992 105.594L132.562 104.656C132.562 102.953 132.727 101.406 133.055 100.016C133.398 98.6094 133.883 97.3984 134.508 96.3828C135.133 95.3516 135.891 94.5625 136.781 94.0156C137.672 93.4531 138.672 93.1719 139.781 93.1719C140.172 93.1719 140.555 93.1953 140.93 93.2422C141.32 93.2891 141.664 93.3594 141.961 93.4531ZM142.852 106.578V106.086C142.852 104.227 143.117 102.516 143.648 100.953C144.18 99.375 144.961 98.0078 145.992 96.8516C147.023 95.6953 148.297 94.7969 149.812 94.1562C151.328 93.5 153.078 93.1719 155.062 93.1719C157.062 93.1719 158.82 93.5 160.336 94.1562C161.867 94.7969 163.148 95.6953 164.18 96.8516C165.211 98.0078 165.992 99.375 166.523 100.953C167.055 102.516 167.32 104.227 167.32 106.086V106.578C167.32 108.422 167.055 110.133 166.523 111.711C165.992 113.273 165.211 114.641 164.18 115.812C163.148 116.969 161.875 117.867 160.359 118.508C158.844 119.148 157.094 119.469 155.109 119.469C153.125 119.469 151.367 119.148 149.836 118.508C148.305 117.867 147.023 116.969 145.992 115.812C144.961 114.641 144.18 113.273 143.648 111.711C143.117 110.133 142.852 108.422 142.852 106.578ZM150.75 106.086V106.578C150.75 107.531 150.82 108.422 150.961 109.25C151.102 110.078 151.336 110.805 151.664 111.43C151.992 112.039 152.438 112.516 153 112.859C153.562 113.203 154.266 113.375 155.109 113.375C155.938 113.375 156.625 113.203 157.172 112.859C157.734 112.516 158.18 112.039 158.508 111.43C158.836 110.805 159.07 110.078 159.211 109.25C159.352 108.422 159.422 107.531 159.422 106.578V106.086C159.422 105.164 159.352 104.297 159.211 103.484C159.07 102.656 158.836 101.93 158.508 101.305C158.18 100.664 157.734 100.164 157.172 99.8047C156.609 99.4453 155.906 99.2656 155.062 99.2656C154.234 99.2656 153.539 99.4453 152.977 99.8047C152.43 100.164 151.992 100.664 151.664 101.305C151.336 101.93 151.102 102.656 150.961 103.484C150.82 104.297 150.75 105.164 150.75 106.086ZM184.195 93.6406V99.125H168.914V93.6406H184.195ZM172.125 87.3359H180.023V110.727C180.023 111.398 180.102 111.922 180.258 112.297C180.414 112.656 180.68 112.914 181.055 113.07C181.445 113.211 181.961 113.281 182.602 113.281C183.055 113.281 183.43 113.273 183.727 113.258C184.023 113.227 184.305 113.188 184.57 113.141V118.789C183.898 119.008 183.195 119.172 182.461 119.281C181.727 119.406 180.945 119.469 180.117 119.469C178.43 119.469 176.984 119.203 175.781 118.672C174.594 118.141 173.688 117.305 173.062 116.164C172.438 115.023 172.125 113.539 172.125 111.711V87.3359ZM185.648 106.578V106.086C185.648 104.227 185.914 102.516 186.445 100.953C186.977 99.375 187.758 98.0078 188.789 96.8516C189.82 95.6953 191.094 94.7969 192.609 94.1562C194.125 93.5 195.875 93.1719 197.859 93.1719C199.859 93.1719 201.617 93.5 203.133 94.1562C204.664 94.7969 205.945 95.6953 206.977 96.8516C208.008 98.0078 208.789 99.375 209.32 100.953C209.852 102.516 210.117 104.227 210.117 106.086V106.578C210.117 108.422 209.852 110.133 209.32 111.711C208.789 113.273 208.008 114.641 206.977 115.812C205.945 116.969 204.672 117.867 203.156 118.508C201.641 119.148 199.891 119.469 197.906 119.469C195.922 119.469 194.164 119.148 192.633 118.508C191.102 117.867 189.82 116.969 188.789 115.812C187.758 114.641 186.977 113.273 186.445 111.711C185.914 110.133 185.648 108.422 185.648 106.578ZM193.547 106.086V106.578C193.547 107.531 193.617 108.422 193.758 109.25C193.898 110.078 194.133 110.805 194.461 111.43C194.789 112.039 195.234 112.516 195.797 112.859C196.359 113.203 197.062 113.375 197.906 113.375C198.734 113.375 199.422 113.203 199.969 112.859C200.531 112.516 200.977 112.039 201.305 111.43C201.633 110.805 201.867 110.078 202.008 109.25C202.148 108.422 202.219 107.531 202.219 106.578V106.086C202.219 105.164 202.148 104.297 202.008 103.484C201.867 102.656 201.633 101.93 201.305 101.305C200.977 100.664 200.531 100.164 199.969 99.8047C199.406 99.4453 198.703 99.2656 197.859 99.2656C197.031 99.2656 196.336 99.4453 195.773 99.8047C195.227 100.164 194.789 100.664 194.461 101.305C194.133 101.93 193.898 102.656 193.758 103.484C193.617 104.297 193.547 105.164 193.547 106.086ZM226.992 93.6406V99.125H211.711V93.6406H226.992ZM214.922 87.3359H222.82V110.727C222.82 111.398 222.898 111.922 223.055 112.297C223.211 112.656 223.477 112.914 223.852 113.07C224.242 113.211 224.758 113.281 225.398 113.281C225.852 113.281 226.227 113.273 226.523 113.258C226.82 113.227 227.102 113.188 227.367 113.141V118.789C226.695 119.008 225.992 119.172 225.258 119.281C224.523 119.406 223.742 119.469 222.914 119.469C221.227 119.469 219.781 119.203 218.578 118.672C217.391 118.141 216.484 117.305 215.859 116.164C215.234 115.023 214.922 113.539 214.922 111.711V87.3359ZM237.914 116.023L244.477 93.6406H252.961L242.766 122.773C242.547 123.414 242.258 124.102 241.898 124.836C241.539 125.586 241.047 126.297 240.422 126.969C239.797 127.641 238.992 128.188 238.008 128.609C237.039 129.031 235.836 129.242 234.398 129.242C233.633 129.242 233.07 129.203 232.711 129.125C232.367 129.062 231.836 128.945 231.117 128.773V123.125C231.32 123.125 231.492 123.125 231.633 123.125C231.789 123.125 231.961 123.125 232.148 123.125C232.992 123.125 233.664 123.039 234.164 122.867C234.68 122.695 235.07 122.445 235.336 122.117C235.617 121.789 235.836 121.391 235.992 120.922L237.914 116.023ZM236.25 93.6406L241.242 111.383L242.109 119.75H236.812L227.789 93.6406H236.25ZM262.992 98.5156V128.75H255.094V93.6406H262.453L262.992 98.5156ZM278.555 106.016V106.508C278.555 108.352 278.344 110.062 277.922 111.641C277.5 113.219 276.875 114.594 276.047 115.766C275.219 116.938 274.188 117.852 272.953 118.508C271.734 119.148 270.32 119.469 268.711 119.469C267.195 119.469 265.891 119.133 264.797 118.461C263.703 117.789 262.789 116.859 262.055 115.672C261.32 114.484 260.727 113.125 260.273 111.594C259.82 110.062 259.461 108.445 259.195 106.742V106.109C259.461 104.281 259.82 102.586 260.273 101.023C260.727 99.4453 261.32 98.0703 262.055 96.8984C262.789 95.7266 263.695 94.8125 264.773 94.1562C265.867 93.5 267.172 93.1719 268.688 93.1719C270.297 93.1719 271.711 93.4766 272.93 94.0859C274.164 94.6953 275.195 95.5703 276.023 96.7109C276.867 97.8359 277.5 99.1875 277.922 100.766C278.344 102.344 278.555 104.094 278.555 106.016ZM270.656 106.508V106.016C270.656 105.031 270.586 104.133 270.445 103.32C270.305 102.492 270.078 101.773 269.766 101.164C269.469 100.555 269.07 100.086 268.57 99.7578C268.07 99.4297 267.453 99.2656 266.719 99.2656C265.875 99.2656 265.164 99.3984 264.586 99.6641C264.023 99.9141 263.57 100.305 263.227 100.836C262.898 101.352 262.664 102 262.523 102.781C262.398 103.547 262.344 104.445 262.359 105.477V107.398C262.328 108.586 262.445 109.633 262.711 110.539C262.977 111.43 263.438 112.125 264.094 112.625C264.75 113.125 265.641 113.375 266.766 113.375C267.516 113.375 268.141 113.203 268.641 112.859C269.141 112.5 269.539 112.008 269.836 111.383C270.133 110.742 270.344 110.008 270.469 109.18C270.594 108.352 270.656 107.461 270.656 106.508ZM290.414 93.6406V119H282.492V93.6406H290.414ZM282.023 87.1016C282.023 85.9766 282.43 85.0547 283.242 84.3359C284.055 83.6172 285.109 83.2578 286.406 83.2578C287.703 83.2578 288.758 83.6172 289.57 84.3359C290.383 85.0547 290.789 85.9766 290.789 87.1016C290.789 88.2266 290.383 89.1484 289.57 89.8672C288.758 90.5859 287.703 90.9453 286.406 90.9453C285.109 90.9453 284.055 90.5859 283.242 89.8672C282.43 89.1484 282.023 88.2266 282.023 87.1016ZM303.047 99.0547V119H295.148V93.6406H302.555L303.047 99.0547ZM302.109 105.453L300.258 105.5C300.258 103.562 300.492 101.836 300.961 100.32C301.43 98.7891 302.094 97.4922 302.953 96.4297C303.812 95.3672 304.836 94.5625 306.023 94.0156C307.227 93.4531 308.562 93.1719 310.031 93.1719C311.203 93.1719 312.273 93.3438 313.242 93.6875C314.227 94.0312 315.07 94.5859 315.773 95.3516C316.492 96.1172 317.039 97.1328 317.414 98.3984C317.805 99.6484 318 101.195 318 103.039V119H310.055V103.016C310.055 102 309.914 101.227 309.633 100.695C309.352 100.148 308.945 99.7734 308.414 99.5703C307.883 99.3672 307.234 99.2656 306.469 99.2656C305.656 99.2656 304.969 99.4219 304.406 99.7344C303.844 100.047 303.391 100.484 303.047 101.047C302.719 101.594 302.477 102.242 302.32 102.992C302.18 103.742 302.109 104.562 302.109 105.453ZM338.32 93.6406H345.492V118.016C345.492 120.359 344.953 122.344 343.875 123.969C342.797 125.609 341.289 126.852 339.352 127.695C337.43 128.555 335.18 128.984 332.602 128.984C331.461 128.984 330.297 128.836 329.109 128.539C327.922 128.258 326.812 127.836 325.781 127.273C324.75 126.711 323.883 126.016 323.18 125.188L326.484 120.547C327.125 121.266 327.93 121.875 328.898 122.375C329.867 122.891 331.008 123.148 332.32 123.148C333.461 123.148 334.414 122.945 335.18 122.539C335.961 122.133 336.555 121.539 336.961 120.758C337.367 119.992 337.57 119.062 337.57 117.969V99.6406L338.32 93.6406ZM321.469 106.625V106.133C321.469 104.211 321.703 102.461 322.172 100.883C322.656 99.2891 323.344 97.9219 324.234 96.7812C325.141 95.625 326.234 94.7344 327.516 94.1094C328.797 93.4844 330.242 93.1719 331.852 93.1719C333.586 93.1719 335.008 93.5078 336.117 94.1797C337.242 94.8359 338.141 95.7578 338.812 96.9453C339.5 98.1328 340.031 99.5234 340.406 101.117C340.797 102.695 341.125 104.398 341.391 106.227V106.812C341.125 108.531 340.758 110.156 340.289 111.688C339.836 113.203 339.242 114.547 338.508 115.719C337.773 116.891 336.852 117.812 335.742 118.484C334.648 119.141 333.336 119.469 331.805 119.469C330.211 119.469 328.773 119.148 327.492 118.508C326.227 117.867 325.141 116.969 324.234 115.812C323.344 114.656 322.656 113.297 322.172 111.734C321.703 110.172 321.469 108.469 321.469 106.625ZM329.367 106.133V106.625C329.367 107.578 329.453 108.461 329.625 109.273C329.812 110.086 330.094 110.805 330.469 111.43C330.844 112.039 331.305 112.516 331.852 112.859C332.414 113.203 333.07 113.375 333.82 113.375C334.961 113.375 335.883 113.133 336.586 112.648C337.289 112.164 337.797 111.477 338.109 110.586C338.422 109.695 338.555 108.648 338.508 107.445V105.594C338.539 104.562 338.469 103.656 338.297 102.875C338.125 102.078 337.852 101.414 337.477 100.883C337.117 100.352 336.633 99.9531 336.023 99.6875C335.43 99.4062 334.711 99.2656 333.867 99.2656C333.133 99.2656 332.484 99.4375 331.922 99.7812C331.359 100.125 330.891 100.609 330.516 101.234C330.141 101.844 329.852 102.57 329.648 103.414C329.461 104.242 329.367 105.148 329.367 106.133Z" fill="black"/>
<path d="M1134 0H1348C1356.28 0 1363 6.71573 1363 15V148C1363 156.284 1356.28 163 1348 163H1134V0Z" fill="#524077"/>
<path fill-rule="evenodd" clip-rule="evenodd" d="M1202.75 46.5018C1202.75 45.3973 1203.65 44.5018 1204.75 44.5018H1292.25C1293.35 44.5018 1294.25 45.3973 1294.25 46.5018V116.498C1294.25 117.603 1293.35 118.498 1292.25 118.498H1204.75C1203.65 118.498 1202.75 117.603 1202.75 116.498V46.5018ZM1206.75 48.5018V52.9963H1290.25V48.5018H1206.75ZM1290.25 56.9963H1235.19V114.498H1290.25V56.9963ZM1231.19 114.498V56.9963H1206.75V114.498H1231.19Z" fill="white"/>
<path fill-rule="evenodd" clip-rule="evenodd" d="M1209.72 62.3022C1209.72 61.1976 1210.62 60.3022 1211.72 60.3022H1225.72C1226.83 60.3022 1227.72 61.1976 1227.72 62.3022V81.6974C1227.72 82.802 1226.83 83.6974 1225.72 83.6974H1211.72C1210.62 83.6974 1209.72 82.802 1209.72 81.6974V62.3022ZM1213.72 64.3022V79.6974H1223.72V64.3022H1213.72ZM1239.33 63.1982C1239.33 62.0936 1240.22 61.1982 1241.33 61.1982H1284.25C1285.36 61.1982 1286.25 62.0936 1286.25 63.1982V109.407C1286.25 110.511 1285.36 111.407 1284.25 111.407H1241.33C1240.22 111.407 1239.33 110.511 1239.33 109.407V63.1982ZM1243.33 65.1982V107.407H1282.25V65.1982H1243.33ZM1209.56 93.4381C1209.56 92.3336 1210.46 91.4381 1211.56 91.4381H1220.48C1221.59 91.4381 1222.48 92.3336 1222.48 93.4381C1222.48 94.5427 1221.59 95.4381 1220.48 95.4381H1211.56C1210.46 95.4381 1209.56 94.5427 1209.56 93.4381ZM1209.56 100.438C1209.56 99.3335 1210.46 98.4381 1211.56 98.4381H1226.1C1227.21 98.4381 1228.1 99.3335 1228.1 100.438C1228.1 101.543 1227.21 102.438 1226.1 102.438H1211.56C1210.46 102.438 1209.56 101.543 1209.56 100.438ZM1209.56 107.438C1209.56 106.334 1210.46 105.438 1211.56 105.438H1220.48C1221.59 105.438 1222.48 106.334 1222.48 107.438C1222.48 108.543 1221.59 109.438 1220.48 109.438H1211.56C1210.46 109.438 1209.56 108.543 1209.56 107.438Z" fill="white"/>
</svg>
