<svg width="1363" height="163" viewBox="0 0 1363 163" fill="none" xmlns="http://www.w3.org/2000/svg">
<path d="M0 15C0 6.71573 6.71573 0 15 0H37V163H15C6.71573 163 0 156.284 0 148V15Z" fill="#424242"/>
<rect width="1097" height="163" transform="translate(37)" fill="#F0F0F0"/>
<path d="M101.906 53.9219L94.3945 51.2383V48.0859L104.602 52.375V54.6367L101.906 53.9219ZM94.3945 56.1719L101.918 53.4297L104.602 52.7852V55.0352L94.3945 59.3242V56.1719ZM119.543 54.918H115.195V52.1758H119.543C120.215 52.1758 120.762 52.0664 121.184 51.8477C121.605 51.6211 121.914 51.3086 122.109 50.9102C122.305 50.5117 122.402 50.0625 122.402 49.5625C122.402 49.0547 122.305 48.582 122.109 48.1445C121.914 47.707 121.605 47.3555 121.184 47.0898C120.762 46.8242 120.215 46.6914 119.543 46.6914H116.414V61H112.898V43.9375H119.543C120.879 43.9375 122.023 44.1797 122.977 44.6641C123.938 45.1406 124.672 45.8008 125.18 46.6445C125.688 47.4883 125.941 48.4531 125.941 49.5391C125.941 50.6406 125.688 51.5938 125.18 52.3984C124.672 53.2031 123.938 53.8242 122.977 54.2617C122.023 54.6992 120.879 54.918 119.543 54.918ZM131.719 43V61H128.332V43H131.719ZM141.352 58.1406V52.4922C141.352 52.0859 141.285 51.7383 141.152 51.4492C141.02 51.1523 140.812 50.9219 140.531 50.7578C140.258 50.5938 139.902 50.5117 139.465 50.5117C139.09 50.5117 138.766 50.5781 138.492 50.7109C138.219 50.8359 138.008 51.0195 137.859 51.2617C137.711 51.4961 137.637 51.7734 137.637 52.0938H134.262C134.262 51.5547 134.387 51.043 134.637 50.5586C134.887 50.0742 135.25 49.6484 135.727 49.2812C136.203 48.9062 136.77 48.6133 137.426 48.4023C138.09 48.1914 138.832 48.0859 139.652 48.0859C140.637 48.0859 141.512 48.25 142.277 48.5781C143.043 48.9062 143.645 49.3984 144.082 50.0547C144.527 50.7109 144.75 51.5312 144.75 52.5156V57.9414C144.75 58.6367 144.793 59.207 144.879 59.6523C144.965 60.0898 145.09 60.4727 145.254 60.8008V61H141.844C141.68 60.6562 141.555 60.2266 141.469 59.7109C141.391 59.1875 141.352 58.6641 141.352 58.1406ZM141.797 53.2773L141.82 55.1875H139.934C139.488 55.1875 139.102 55.2383 138.773 55.3398C138.445 55.4414 138.176 55.5859 137.965 55.7734C137.754 55.9531 137.598 56.1641 137.496 56.4062C137.402 56.6484 137.355 56.9141 137.355 57.2031C137.355 57.4922 137.422 57.7539 137.555 57.9883C137.688 58.2148 137.879 58.3945 138.129 58.5273C138.379 58.6523 138.672 58.7148 139.008 58.7148C139.516 58.7148 139.957 58.6133 140.332 58.4102C140.707 58.207 140.996 57.957 141.199 57.6602C141.41 57.3633 141.52 57.082 141.527 56.8164L142.418 58.2461C142.293 58.5664 142.121 58.8984 141.902 59.2422C141.691 59.5859 141.422 59.9102 141.094 60.2148C140.766 60.5117 140.371 60.7578 139.91 60.9531C139.449 61.1406 138.902 61.2344 138.27 61.2344C137.465 61.2344 136.734 61.0742 136.078 60.7539C135.43 60.4258 134.914 59.9766 134.531 59.4062C134.156 58.8281 133.969 58.1719 133.969 57.4375C133.969 56.7734 134.094 56.1836 134.344 55.668C134.594 55.1523 134.961 54.7188 135.445 54.3672C135.938 54.0078 136.551 53.7383 137.285 53.5586C138.02 53.3711 138.871 53.2773 139.84 53.2773H141.797ZM150.656 51.0273V61H147.281V48.3203H150.445L150.656 51.0273ZM150.164 54.2148H149.25C149.25 53.2773 149.371 52.4336 149.613 51.6836C149.855 50.9258 150.195 50.2812 150.633 49.75C151.07 49.2109 151.59 48.8008 152.191 48.5195C152.801 48.2305 153.48 48.0859 154.23 48.0859C154.824 48.0859 155.367 48.1719 155.859 48.3438C156.352 48.5156 156.773 48.7891 157.125 49.1641C157.484 49.5391 157.758 50.0352 157.945 50.6523C158.141 51.2695 158.238 52.0234 158.238 52.9141V61H154.84V52.9023C154.84 52.3398 154.762 51.9023 154.605 51.5898C154.449 51.2773 154.219 51.0586 153.914 50.9336C153.617 50.8008 153.25 50.7344 152.812 50.7344C152.359 50.7344 151.965 50.8242 151.629 51.0039C151.301 51.1836 151.027 51.4336 150.809 51.7539C150.598 52.0664 150.438 52.4336 150.328 52.8555C150.219 53.2773 150.164 53.7305 150.164 54.2148ZM173.93 46.8555L169.289 61H165.551L171.891 43.9375H174.27L173.93 46.8555ZM177.785 61L173.133 46.8555L172.758 43.9375H175.16L181.535 61H177.785ZM177.574 54.6484V57.4023H168.562V54.6484H177.574ZM190.395 58.2344V43H193.793V61H190.734L190.395 58.2344ZM182.379 54.8125V54.5664C182.379 53.5977 182.488 52.7188 182.707 51.9297C182.926 51.1328 183.246 50.4492 183.668 49.8789C184.09 49.3086 184.609 48.8672 185.227 48.5547C185.844 48.2422 186.547 48.0859 187.336 48.0859C188.078 48.0859 188.727 48.2422 189.281 48.5547C189.844 48.8672 190.32 49.3125 190.711 49.8906C191.109 50.4609 191.43 51.1367 191.672 51.918C191.914 52.6914 192.09 53.5391 192.199 54.4609V55C192.09 55.8828 191.914 56.7031 191.672 57.4609C191.43 58.2188 191.109 58.8828 190.711 59.4531C190.32 60.0156 189.844 60.4531 189.281 60.7656C188.719 61.0781 188.062 61.2344 187.312 61.2344C186.523 61.2344 185.82 61.0742 185.203 60.7539C184.594 60.4336 184.078 59.9844 183.656 59.4062C183.242 58.8281 182.926 58.1484 182.707 57.3672C182.488 56.5859 182.379 55.7344 182.379 54.8125ZM185.754 54.5664V54.8125C185.754 55.3359 185.793 55.8242 185.871 56.2773C185.957 56.7305 186.094 57.1328 186.281 57.4844C186.477 57.8281 186.727 58.0977 187.031 58.293C187.344 58.4805 187.723 58.5742 188.168 58.5742C188.746 58.5742 189.223 58.4453 189.598 58.1875C189.973 57.9219 190.258 57.5586 190.453 57.0977C190.656 56.6367 190.773 56.1055 190.805 55.5039V53.9688C190.781 53.4766 190.711 53.0352 190.594 52.6445C190.484 52.2461 190.32 51.9062 190.102 51.625C189.891 51.3438 189.625 51.125 189.305 50.9688C188.992 50.8125 188.621 50.7344 188.191 50.7344C187.754 50.7344 187.379 50.8359 187.066 51.0391C186.754 51.2344 186.5 51.5039 186.305 51.8477C186.117 52.1914 185.977 52.5977 185.883 53.0664C185.797 53.5273 185.754 54.0273 185.754 54.5664ZM200.742 58.5391L203.555 48.3203H207.082L202.805 61H200.672L200.742 58.5391ZM198.809 48.3203L201.633 58.5508L201.691 61H199.547L195.27 48.3203H198.809ZM214.266 61.2344C213.281 61.2344 212.398 61.0781 211.617 60.7656C210.836 60.4453 210.172 60.0039 209.625 59.4414C209.086 58.8789 208.672 58.2266 208.383 57.4844C208.094 56.7344 207.949 55.9375 207.949 55.0938V54.625C207.949 53.6641 208.086 52.7852 208.359 51.9883C208.633 51.1914 209.023 50.5 209.531 49.9141C210.047 49.3281 210.672 48.8789 211.406 48.5664C212.141 48.2461 212.969 48.0859 213.891 48.0859C214.789 48.0859 215.586 48.2344 216.281 48.5312C216.977 48.8281 217.559 49.25 218.027 49.7969C218.504 50.3438 218.863 51 219.105 51.7656C219.348 52.5234 219.469 53.3672 219.469 54.2969V55.7031H209.391V53.4531H216.152V53.1953C216.152 52.7266 216.066 52.3086 215.895 51.9414C215.73 51.5664 215.48 51.2695 215.145 51.0508C214.809 50.832 214.379 50.7227 213.855 50.7227C213.41 50.7227 213.027 50.8203 212.707 51.0156C212.387 51.2109 212.125 51.4844 211.922 51.8359C211.727 52.1875 211.578 52.6016 211.477 53.0781C211.383 53.5469 211.336 54.0625 211.336 54.625V55.0938C211.336 55.6016 211.406 56.0703 211.547 56.5C211.695 56.9297 211.902 57.3008 212.168 57.6133C212.441 57.9258 212.77 58.168 213.152 58.3398C213.543 58.5117 213.984 58.5977 214.477 58.5977C215.086 58.5977 215.652 58.4805 216.176 58.2461C216.707 58.0039 217.164 57.6406 217.547 57.1562L219.188 58.9375C218.922 59.3203 218.559 59.6875 218.098 60.0391C217.645 60.3906 217.098 60.6797 216.457 60.9062C215.816 61.125 215.086 61.2344 214.266 61.2344ZM224.695 51.0273V61H221.32V48.3203H224.484L224.695 51.0273ZM224.203 54.2148H223.289C223.289 53.2773 223.41 52.4336 223.652 51.6836C223.895 50.9258 224.234 50.2812 224.672 49.75C225.109 49.2109 225.629 48.8008 226.23 48.5195C226.84 48.2305 227.52 48.0859 228.27 48.0859C228.863 48.0859 229.406 48.1719 229.898 48.3438C230.391 48.5156 230.812 48.7891 231.164 49.1641C231.523 49.5391 231.797 50.0352 231.984 50.6523C232.18 51.2695 232.277 52.0234 232.277 52.9141V61H228.879V52.9023C228.879 52.3398 228.801 51.9023 228.645 51.5898C228.488 51.2773 228.258 51.0586 227.953 50.9336C227.656 50.8008 227.289 50.7344 226.852 50.7344C226.398 50.7344 226.004 50.8242 225.668 51.0039C225.34 51.1836 225.066 51.4336 224.848 51.7539C224.637 52.0664 224.477 52.4336 224.367 52.8555C224.258 53.2773 224.203 53.7305 224.203 54.2148ZM241.055 48.3203V50.7109H233.672V48.3203H241.055ZM235.5 45.1914H238.875V57.1797C238.875 57.5469 238.922 57.8281 239.016 58.0234C239.117 58.2188 239.266 58.3555 239.461 58.4336C239.656 58.5039 239.902 58.5391 240.199 58.5391C240.41 58.5391 240.598 58.5312 240.762 58.5156C240.934 58.4922 241.078 58.4688 241.195 58.4453L241.207 60.9297C240.918 61.0234 240.605 61.0977 240.27 61.1523C239.934 61.207 239.562 61.2344 239.156 61.2344C238.414 61.2344 237.766 61.1133 237.211 60.8711C236.664 60.6211 236.242 60.2227 235.945 59.6758C235.648 59.1289 235.5 58.4102 235.5 57.5195V45.1914ZM250.477 57.9648V48.3203H253.852V61H250.676L250.477 57.9648ZM250.852 55.3633L251.848 55.3398C251.848 56.1836 251.75 56.9688 251.555 57.6953C251.359 58.4141 251.066 59.0391 250.676 59.5703C250.285 60.0938 249.793 60.5039 249.199 60.8008C248.605 61.0898 247.906 61.2344 247.102 61.2344C246.484 61.2344 245.914 61.1484 245.391 60.9766C244.875 60.7969 244.43 60.5195 244.055 60.1445C243.688 59.7617 243.398 59.2734 243.188 58.6797C242.984 58.0781 242.883 57.3555 242.883 56.5117V48.3203H246.258V56.5352C246.258 56.9102 246.301 57.2266 246.387 57.4844C246.48 57.7422 246.609 57.9531 246.773 58.1172C246.938 58.2812 247.129 58.3984 247.348 58.4688C247.574 58.5391 247.824 58.5742 248.098 58.5742C248.793 58.5742 249.34 58.4336 249.738 58.1523C250.145 57.8711 250.43 57.4883 250.594 57.0039C250.766 56.5117 250.852 55.9648 250.852 55.3633ZM259.805 51.0859V61H256.43V48.3203H259.605L259.805 51.0859ZM263.625 48.2383L263.566 51.3672C263.402 51.3438 263.203 51.3242 262.969 51.3086C262.742 51.2852 262.535 51.2734 262.348 51.2734C261.871 51.2734 261.457 51.3359 261.105 51.4609C260.762 51.5781 260.473 51.7539 260.238 51.9883C260.012 52.2227 259.84 52.5078 259.723 52.8438C259.613 53.1797 259.551 53.5625 259.535 53.9922L258.855 53.7812C258.855 52.9609 258.938 52.207 259.102 51.5195C259.266 50.8242 259.504 50.2188 259.816 49.7031C260.137 49.1875 260.527 48.7891 260.988 48.5078C261.449 48.2266 261.977 48.0859 262.57 48.0859C262.758 48.0859 262.949 48.1016 263.145 48.1328C263.34 48.1562 263.5 48.1914 263.625 48.2383ZM270.82 61.2344C269.836 61.2344 268.953 61.0781 268.172 60.7656C267.391 60.4453 266.727 60.0039 266.18 59.4414C265.641 58.8789 265.227 58.2266 264.938 57.4844C264.648 56.7344 264.504 55.9375 264.504 55.0938V54.625C264.504 53.6641 264.641 52.7852 264.914 51.9883C265.188 51.1914 265.578 50.5 266.086 49.9141C266.602 49.3281 267.227 48.8789 267.961 48.5664C268.695 48.2461 269.523 48.0859 270.445 48.0859C271.344 48.0859 272.141 48.2344 272.836 48.5312C273.531 48.8281 274.113 49.25 274.582 49.7969C275.059 50.3438 275.418 51 275.66 51.7656C275.902 52.5234 276.023 53.3672 276.023 54.2969V55.7031H265.945V53.4531H272.707V53.1953C272.707 52.7266 272.621 52.3086 272.449 51.9414C272.285 51.5664 272.035 51.2695 271.699 51.0508C271.363 50.832 270.934 50.7227 270.41 50.7227C269.965 50.7227 269.582 50.8203 269.262 51.0156C268.941 51.2109 268.68 51.4844 268.477 51.8359C268.281 52.1875 268.133 52.6016 268.031 53.0781C267.938 53.5469 267.891 54.0625 267.891 54.625V55.0938C267.891 55.6016 267.961 56.0703 268.102 56.5C268.25 56.9297 268.457 57.3008 268.723 57.6133C268.996 57.9258 269.324 58.168 269.707 58.3398C270.098 58.5117 270.539 58.5977 271.031 58.5977C271.641 58.5977 272.207 58.4805 272.73 58.2461C273.262 58.0039 273.719 57.6406 274.102 57.1562L275.742 58.9375C275.477 59.3203 275.113 59.6875 274.652 60.0391C274.199 60.3906 273.652 60.6797 273.012 60.9062C272.371 61.125 271.641 61.2344 270.82 61.2344ZM284.801 57.4961C284.801 57.2539 284.73 57.0352 284.59 56.8398C284.449 56.6445 284.188 56.4648 283.805 56.3008C283.43 56.1289 282.887 55.9727 282.176 55.832C281.535 55.6914 280.938 55.5156 280.383 55.3047C279.836 55.0859 279.359 54.8242 278.953 54.5195C278.555 54.2148 278.242 53.8555 278.016 53.4414C277.789 53.0195 277.676 52.5391 277.676 52C277.676 51.4688 277.789 50.9688 278.016 50.5C278.25 50.0312 278.582 49.6172 279.012 49.2578C279.449 48.8906 279.98 48.6055 280.605 48.4023C281.238 48.1914 281.949 48.0859 282.738 48.0859C283.84 48.0859 284.785 48.2617 285.574 48.6133C286.371 48.9648 286.98 49.4492 287.402 50.0664C287.832 50.6758 288.047 51.3711 288.047 52.1523H284.672C284.672 51.8242 284.602 51.5312 284.461 51.2734C284.328 51.0078 284.117 50.8008 283.828 50.6523C283.547 50.4961 283.18 50.418 282.727 50.418C282.352 50.418 282.027 50.4844 281.754 50.6172C281.48 50.7422 281.27 50.9141 281.121 51.1328C280.98 51.3438 280.91 51.5781 280.91 51.8359C280.91 52.0312 280.949 52.207 281.027 52.3633C281.113 52.5117 281.25 52.6484 281.438 52.7734C281.625 52.8984 281.867 53.0156 282.164 53.125C282.469 53.2266 282.844 53.3203 283.289 53.4062C284.203 53.5938 285.02 53.8398 285.738 54.1445C286.457 54.4414 287.027 54.8477 287.449 55.3633C287.871 55.8711 288.082 56.5391 288.082 57.3672C288.082 57.9297 287.957 58.4453 287.707 58.9141C287.457 59.3828 287.098 59.793 286.629 60.1445C286.16 60.4883 285.598 60.7578 284.941 60.9531C284.293 61.1406 283.562 61.2344 282.75 61.2344C281.57 61.2344 280.57 61.0234 279.75 60.6016C278.938 60.1797 278.32 59.6445 277.898 58.9961C277.484 58.3398 277.277 57.668 277.277 56.9805H280.477C280.492 57.4414 280.609 57.8125 280.828 58.0938C281.055 58.375 281.34 58.5781 281.684 58.7031C282.035 58.8281 282.414 58.8906 282.82 58.8906C283.258 58.8906 283.621 58.832 283.91 58.7148C284.199 58.5898 284.418 58.4258 284.566 58.2227C284.723 58.0117 284.801 57.7695 284.801 57.4961Z" fill="#888888"/>
<path d="M112.125 84.875V119H103.898V84.875H112.125ZM122.391 84.875V91.2266H93.8672V84.875H122.391ZM135.68 119.469C133.617 119.469 131.773 119.148 130.148 118.508C128.523 117.852 127.148 116.953 126.023 115.812C124.914 114.672 124.062 113.359 123.469 111.875C122.891 110.391 122.602 108.82 122.602 107.164V106.273C122.602 104.414 122.859 102.695 123.375 101.117C123.891 99.5234 124.656 98.1328 125.672 96.9453C126.688 95.7578 127.961 94.8359 129.492 94.1797C131.023 93.5078 132.805 93.1719 134.836 93.1719C136.633 93.1719 138.242 93.4609 139.664 94.0391C141.086 94.6172 142.289 95.4453 143.273 96.5234C144.273 97.6016 145.031 98.9062 145.547 100.438C146.078 101.969 146.344 103.688 146.344 105.594V108.805H125.625V103.859H138.633V103.25C138.648 102.406 138.5 101.688 138.188 101.094C137.891 100.5 137.453 100.047 136.875 99.7344C136.297 99.4219 135.594 99.2656 134.766 99.2656C133.906 99.2656 133.195 99.4531 132.633 99.8281C132.086 100.203 131.656 100.719 131.344 101.375C131.047 102.016 130.836 102.758 130.711 103.602C130.586 104.445 130.523 105.336 130.523 106.273V107.164C130.523 108.102 130.648 108.953 130.898 109.719C131.164 110.484 131.539 111.141 132.023 111.688C132.523 112.219 133.117 112.633 133.805 112.93C134.508 113.227 135.305 113.375 136.195 113.375C137.273 113.375 138.336 113.172 139.383 112.766C140.43 112.359 141.328 111.688 142.078 110.75L145.664 115.016C145.148 115.75 144.414 116.461 143.461 117.148C142.523 117.836 141.398 118.398 140.086 118.836C138.773 119.258 137.305 119.469 135.68 119.469ZM160.266 113.375C161 113.375 161.625 113.242 162.141 112.977C162.672 112.695 163.07 112.305 163.336 111.805C163.617 111.289 163.75 110.672 163.734 109.953H171.164C171.18 111.859 170.711 113.531 169.758 114.969C168.82 116.391 167.539 117.5 165.914 118.297C164.305 119.078 162.484 119.469 160.453 119.469C158.469 119.469 156.734 119.148 155.25 118.508C153.766 117.852 152.523 116.945 151.523 115.789C150.539 114.617 149.797 113.25 149.297 111.688C148.812 110.125 148.57 108.43 148.57 106.602V106.062C148.57 104.234 148.812 102.539 149.297 100.977C149.797 99.3984 150.539 98.0312 151.523 96.875C152.523 95.7031 153.758 94.7969 155.227 94.1562C156.711 93.5 158.438 93.1719 160.406 93.1719C162.516 93.1719 164.375 93.5703 165.984 94.3672C167.609 95.1641 168.883 96.3203 169.805 97.8359C170.727 99.3516 171.18 101.188 171.164 103.344H163.734C163.75 102.578 163.633 101.891 163.383 101.281C163.133 100.672 162.742 100.188 162.211 99.8281C161.695 99.4531 161.031 99.2656 160.219 99.2656C159.406 99.2656 158.75 99.4453 158.25 99.8047C157.75 100.164 157.367 100.664 157.102 101.305C156.852 101.93 156.68 102.648 156.586 103.461C156.508 104.273 156.469 105.141 156.469 106.062V106.602C156.469 107.539 156.508 108.422 156.586 109.25C156.68 110.062 156.859 110.781 157.125 111.406C157.391 112.016 157.773 112.5 158.273 112.859C158.773 113.203 159.438 113.375 160.266 113.375ZM182.273 83V119H174.375V83H182.273ZM181.336 105.453L179.484 105.5C179.484 103.719 179.703 102.078 180.141 100.578C180.578 99.0781 181.203 97.7734 182.016 96.6641C182.828 95.5547 183.805 94.6953 184.945 94.0859C186.086 93.4766 187.352 93.1719 188.742 93.1719C189.992 93.1719 191.133 93.3516 192.164 93.7109C193.211 94.0703 194.109 94.6484 194.859 95.4453C195.625 96.2422 196.211 97.2812 196.617 98.5625C197.039 99.8438 197.25 101.406 197.25 103.25V119H189.305V103.203C189.305 102.172 189.156 101.375 188.859 100.812C188.578 100.234 188.172 99.8359 187.641 99.6172C187.109 99.3828 186.461 99.2656 185.695 99.2656C184.773 99.2656 184.023 99.4219 183.445 99.7344C182.867 100.047 182.422 100.484 182.109 101.047C181.812 101.594 181.609 102.242 181.5 102.992C181.391 103.742 181.336 104.562 181.336 105.453ZM231.539 109.93C231.539 109.398 231.461 108.922 231.305 108.5C231.148 108.062 230.859 107.656 230.438 107.281C230.016 106.906 229.406 106.531 228.609 106.156C227.828 105.766 226.797 105.359 225.516 104.938C224.016 104.438 222.57 103.875 221.18 103.25C219.789 102.609 218.547 101.867 217.453 101.023C216.359 100.164 215.492 99.1641 214.852 98.0234C214.211 96.8672 213.891 95.5234 213.891 93.9922C213.891 92.5234 214.219 91.2031 214.875 90.0312C215.531 88.8438 216.445 87.8359 217.617 87.0078C218.805 86.1641 220.195 85.5234 221.789 85.0859C223.383 84.6328 225.125 84.4062 227.016 84.4062C229.516 84.4062 231.719 84.8438 233.625 85.7188C235.547 86.5781 237.047 87.8047 238.125 89.3984C239.219 90.9766 239.766 92.8438 239.766 95H231.586C231.586 94.1406 231.406 93.3828 231.047 92.7266C230.703 92.0703 230.18 91.5547 229.477 91.1797C228.773 90.8047 227.891 90.6172 226.828 90.6172C225.797 90.6172 224.93 90.7734 224.227 91.0859C223.523 91.3984 222.992 91.8203 222.633 92.3516C222.273 92.8672 222.094 93.4375 222.094 94.0625C222.094 94.5781 222.234 95.0469 222.516 95.4688C222.812 95.875 223.227 96.2578 223.758 96.6172C224.305 96.9766 224.961 97.3203 225.727 97.6484C226.508 97.9766 227.383 98.2969 228.352 98.6094C230.164 99.1875 231.773 99.8359 233.18 100.555C234.602 101.258 235.797 102.062 236.766 102.969C237.75 103.859 238.492 104.875 238.992 106.016C239.508 107.156 239.766 108.445 239.766 109.883C239.766 111.414 239.469 112.773 238.875 113.961C238.281 115.148 237.43 116.156 236.32 116.984C235.211 117.797 233.883 118.414 232.336 118.836C230.789 119.258 229.062 119.469 227.156 119.469C225.406 119.469 223.68 119.25 221.977 118.812C220.289 118.359 218.758 117.672 217.383 116.75C216.008 115.812 214.906 114.617 214.078 113.164C213.266 111.695 212.859 109.953 212.859 107.938H221.109C221.109 108.938 221.242 109.781 221.508 110.469C221.773 111.156 222.164 111.711 222.68 112.133C223.195 112.539 223.828 112.836 224.578 113.023C225.328 113.195 226.188 113.281 227.156 113.281C228.203 113.281 229.047 113.133 229.688 112.836C230.328 112.523 230.797 112.117 231.094 111.617C231.391 111.102 231.539 110.539 231.539 109.93ZM256.992 93.6406V99.125H241.711V93.6406H256.992ZM244.922 87.3359H252.82V110.727C252.82 111.398 252.898 111.922 253.055 112.297C253.211 112.656 253.477 112.914 253.852 113.07C254.242 113.211 254.758 113.281 255.398 113.281C255.852 113.281 256.227 113.273 256.523 113.258C256.82 113.227 257.102 113.188 257.367 113.141V118.789C256.695 119.008 255.992 119.172 255.258 119.281C254.523 119.406 253.742 119.469 252.914 119.469C251.227 119.469 249.781 119.203 248.578 118.672C247.391 118.141 246.484 117.305 245.859 116.164C245.234 115.023 244.922 113.539 244.922 111.711V87.3359ZM273.305 112.625V102.172C273.305 101.453 273.203 100.836 273 100.32C272.797 99.8047 272.477 99.4062 272.039 99.125C271.602 98.8281 271.016 98.6797 270.281 98.6797C269.688 98.6797 269.18 98.7812 268.758 98.9844C268.336 99.1875 268.016 99.4922 267.797 99.8984C267.578 100.305 267.469 100.82 267.469 101.445H259.57C259.57 100.273 259.828 99.1875 260.344 98.1875C260.875 97.1719 261.625 96.2891 262.594 95.5391C263.578 94.7891 264.75 94.2109 266.109 93.8047C267.484 93.3828 269.016 93.1719 270.703 93.1719C272.719 93.1719 274.516 93.5078 276.094 94.1797C277.688 94.8516 278.945 95.8594 279.867 97.2031C280.789 98.5312 281.25 100.203 281.25 102.219V112.602C281.25 114.258 281.344 115.516 281.531 116.375C281.719 117.219 281.984 117.961 282.328 118.602V119H274.406C274.031 118.219 273.75 117.266 273.562 116.141C273.391 115 273.305 113.828 273.305 112.625ZM274.266 103.508L274.312 107.727H270.82C270.086 107.727 269.461 107.828 268.945 108.031C268.445 108.234 268.039 108.516 267.727 108.875C267.43 109.219 267.211 109.609 267.07 110.047C266.945 110.484 266.883 110.945 266.883 111.43C266.883 111.898 266.992 112.32 267.211 112.695C267.445 113.055 267.758 113.336 268.148 113.539C268.539 113.742 268.977 113.844 269.461 113.844C270.336 113.844 271.078 113.68 271.688 113.352C272.312 113.008 272.789 112.594 273.117 112.109C273.445 111.625 273.609 111.172 273.609 110.75L275.344 113.984C275.031 114.609 274.672 115.242 274.266 115.883C273.875 116.523 273.383 117.117 272.789 117.664C272.211 118.195 271.5 118.633 270.656 118.977C269.812 119.305 268.789 119.469 267.586 119.469C266.023 119.469 264.586 119.148 263.273 118.508C261.977 117.867 260.938 116.977 260.156 115.836C259.375 114.68 258.984 113.352 258.984 111.852C258.984 110.539 259.219 109.367 259.688 108.336C260.172 107.305 260.898 106.43 261.867 105.711C262.836 104.992 264.07 104.445 265.57 104.07C267.07 103.695 268.836 103.508 270.867 103.508H274.266ZM296.344 113.375C297.078 113.375 297.703 113.242 298.219 112.977C298.75 112.695 299.148 112.305 299.414 111.805C299.695 111.289 299.828 110.672 299.812 109.953H307.242C307.258 111.859 306.789 113.531 305.836 114.969C304.898 116.391 303.617 117.5 301.992 118.297C300.383 119.078 298.562 119.469 296.531 119.469C294.547 119.469 292.812 119.148 291.328 118.508C289.844 117.852 288.602 116.945 287.602 115.789C286.617 114.617 285.875 113.25 285.375 111.688C284.891 110.125 284.648 108.43 284.648 106.602V106.062C284.648 104.234 284.891 102.539 285.375 100.977C285.875 99.3984 286.617 98.0312 287.602 96.875C288.602 95.7031 289.836 94.7969 291.305 94.1562C292.789 93.5 294.516 93.1719 296.484 93.1719C298.594 93.1719 300.453 93.5703 302.062 94.3672C303.688 95.1641 304.961 96.3203 305.883 97.8359C306.805 99.3516 307.258 101.188 307.242 103.344H299.812C299.828 102.578 299.711 101.891 299.461 101.281C299.211 100.672 298.82 100.188 298.289 99.8281C297.773 99.4531 297.109 99.2656 296.297 99.2656C295.484 99.2656 294.828 99.4453 294.328 99.8047C293.828 100.164 293.445 100.664 293.18 101.305C292.93 101.93 292.758 102.648 292.664 103.461C292.586 104.273 292.547 105.141 292.547 106.062V106.602C292.547 107.539 292.586 108.422 292.664 109.25C292.758 110.062 292.938 110.781 293.203 111.406C293.469 112.016 293.852 112.5 294.352 112.859C294.852 113.203 295.516 113.375 296.344 113.375ZM318.586 82.9766V119H310.688V82.9766H318.586ZM334.805 93.6406L323.789 106.555L318.023 112.32L314.578 107.305L319.383 101.047L325.336 93.6406H334.805ZM326.344 119L319.57 107.445L325.406 103.297L335.391 119H326.344Z" fill="black"/>
<path d="M1134 0H1348C1356.28 0 1363 6.71573 1363 15V148C1363 156.284 1356.28 163 1348 163H1134V0Z" fill="#524077"/>
<path fill-rule="evenodd" clip-rule="evenodd" d="M1218.75 53C1218.62 53 1218.49 53.0527 1218.4 53.1464C1218.3 53.2402 1218.25 53.3674 1218.25 53.5V109.5C1218.25 109.633 1218.3 109.76 1218.4 109.854C1218.49 109.947 1218.62 110 1218.75 110H1278.25C1278.38 110 1278.51 109.947 1278.6 109.854C1278.7 109.76 1278.75 109.633 1278.75 109.5V64C1278.75 63.8674 1278.7 63.7402 1278.6 63.6464C1278.51 63.5527 1278.38 63.5 1278.25 63.5H1248.5C1247.61 63.5 1246.77 63.1045 1246.2 62.4206L1238.34 53H1218.75ZM1214.15 48.9038C1215.37 47.6848 1217.03 47 1218.75 47H1239.75C1240.64 47 1241.48 47.3955 1242.05 48.0794L1249.91 57.5H1278.25C1279.97 57.5 1281.63 58.1848 1282.85 59.4038C1284.07 60.6228 1284.75 62.2761 1284.75 64V109.5C1284.75 111.224 1284.07 112.877 1282.85 114.096C1281.63 115.315 1279.97 116 1278.25 116H1218.75C1217.03 116 1215.37 115.315 1214.15 114.096C1212.93 112.877 1212.25 111.224 1212.25 109.5V53.5C1212.25 51.7761 1212.93 50.1228 1214.15 48.9038Z" fill="white"/>
<path fill-rule="evenodd" clip-rule="evenodd" d="M1243.97 75.5251C1245.34 76.892 1245.34 79.108 1243.97 80.4749L1237.7 86.75L1243.97 93.0251C1245.34 94.392 1245.34 96.608 1243.97 97.9749C1242.61 99.3417 1240.39 99.3417 1239.03 97.9749L1230.28 89.2249C1228.91 87.858 1228.91 85.642 1230.28 84.2751L1239.03 75.5251C1240.39 74.1583 1242.61 74.1583 1243.97 75.5251Z" fill="white"/>
<path fill-rule="evenodd" clip-rule="evenodd" d="M1252.28 97.9749C1250.91 96.608 1250.91 94.392 1252.28 93.0251L1258.55 86.75L1252.28 80.4749C1250.91 79.108 1250.91 76.892 1252.28 75.5251C1253.64 74.1583 1255.86 74.1583 1257.22 75.5251L1265.97 84.2751C1267.34 85.642 1267.34 87.858 1265.97 89.2249L1257.22 97.9749C1255.86 99.3417 1253.64 99.3417 1252.28 97.9749Z" fill="white"/>
</svg>
