<svg width="1363" height="163" viewBox="0 0 1363 163" fill="none" xmlns="http://www.w3.org/2000/svg">
<path d="M0 15C0 6.71573 6.71573 0 15 0H37V163H15C6.71573 163 0 156.284 0 148V15Z" fill="#424242"/>
<rect width="1097" height="163" transform="translate(37)" fill="#F0F0F0"/>
<path d="M101.906 53.9219L94.3945 51.2383V48.0859L104.602 52.375V54.6367L101.906 53.9219ZM94.3945 56.1719L101.918 53.4297L104.602 52.7852V55.0352L94.3945 59.3242V56.1719ZM112.898 43.9375H119.262C120.566 43.9375 121.688 44.1328 122.625 44.5234C123.57 44.9141 124.297 45.4922 124.805 46.2578C125.312 47.0234 125.566 47.9648 125.566 49.082C125.566 49.9961 125.41 50.7812 125.098 51.4375C124.793 52.0859 124.359 52.6289 123.797 53.0664C123.242 53.4961 122.59 53.8398 121.84 54.0977L120.727 54.6836H115.195L115.172 51.9414H119.285C119.902 51.9414 120.414 51.832 120.82 51.6133C121.227 51.3945 121.531 51.0898 121.734 50.6992C121.945 50.3086 122.051 49.8555 122.051 49.3398C122.051 48.793 121.949 48.3203 121.746 47.9219C121.543 47.5234 121.234 47.2188 120.82 47.0078C120.406 46.7969 119.887 46.6914 119.262 46.6914H116.414V61H112.898V43.9375ZM122.438 61L118.547 53.3945L122.262 53.3711L126.199 60.8359V61H122.438ZM127.523 54.7891V54.543C127.523 53.6133 127.656 52.7578 127.922 51.9766C128.188 51.1875 128.574 50.5039 129.082 49.9258C129.59 49.3477 130.215 48.8984 130.957 48.5781C131.699 48.25 132.551 48.0859 133.512 48.0859C134.473 48.0859 135.328 48.25 136.078 48.5781C136.828 48.8984 137.457 49.3477 137.965 49.9258C138.48 50.5039 138.871 51.1875 139.137 51.9766C139.402 52.7578 139.535 53.6133 139.535 54.543V54.7891C139.535 55.7109 139.402 56.5664 139.137 57.3555C138.871 58.1367 138.48 58.8203 137.965 59.4062C137.457 59.9844 136.832 60.4336 136.09 60.7539C135.348 61.0742 134.496 61.2344 133.535 61.2344C132.574 61.2344 131.719 61.0742 130.969 60.7539C130.227 60.4336 129.598 59.9844 129.082 59.4062C128.574 58.8203 128.188 58.1367 127.922 57.3555C127.656 56.5664 127.523 55.7109 127.523 54.7891ZM130.898 54.543V54.7891C130.898 55.3203 130.945 55.8164 131.039 56.2773C131.133 56.7383 131.281 57.1445 131.484 57.4961C131.695 57.8398 131.969 58.1094 132.305 58.3047C132.641 58.5 133.051 58.5977 133.535 58.5977C134.004 58.5977 134.406 58.5 134.742 58.3047C135.078 58.1094 135.348 57.8398 135.551 57.4961C135.754 57.1445 135.902 56.7383 135.996 56.2773C136.098 55.8164 136.148 55.3203 136.148 54.7891V54.543C136.148 54.0273 136.098 53.543 135.996 53.0898C135.902 52.6289 135.75 52.2227 135.539 51.8711C135.336 51.5117 135.066 51.2305 134.73 51.0273C134.395 50.8242 133.988 50.7227 133.512 50.7227C133.035 50.7227 132.629 50.8242 132.293 51.0273C131.965 51.2305 131.695 51.5117 131.484 51.8711C131.281 52.2227 131.133 52.6289 131.039 53.0898C130.945 53.543 130.898 54.0273 130.898 54.543ZM148.453 58.1406V52.4922C148.453 52.0859 148.387 51.7383 148.254 51.4492C148.121 51.1523 147.914 50.9219 147.633 50.7578C147.359 50.5938 147.004 50.5117 146.566 50.5117C146.191 50.5117 145.867 50.5781 145.594 50.7109C145.32 50.8359 145.109 51.0195 144.961 51.2617C144.812 51.4961 144.738 51.7734 144.738 52.0938H141.363C141.363 51.5547 141.488 51.043 141.738 50.5586C141.988 50.0742 142.352 49.6484 142.828 49.2812C143.305 48.9062 143.871 48.6133 144.527 48.4023C145.191 48.1914 145.934 48.0859 146.754 48.0859C147.738 48.0859 148.613 48.25 149.379 48.5781C150.145 48.9062 150.746 49.3984 151.184 50.0547C151.629 50.7109 151.852 51.5312 151.852 52.5156V57.9414C151.852 58.6367 151.895 59.207 151.98 59.6523C152.066 60.0898 152.191 60.4727 152.355 60.8008V61H148.945C148.781 60.6562 148.656 60.2266 148.57 59.7109C148.492 59.1875 148.453 58.6641 148.453 58.1406ZM148.898 53.2773L148.922 55.1875H147.035C146.59 55.1875 146.203 55.2383 145.875 55.3398C145.547 55.4414 145.277 55.5859 145.066 55.7734C144.855 55.9531 144.699 56.1641 144.598 56.4062C144.504 56.6484 144.457 56.9141 144.457 57.2031C144.457 57.4922 144.523 57.7539 144.656 57.9883C144.789 58.2148 144.98 58.3945 145.23 58.5273C145.48 58.6523 145.773 58.7148 146.109 58.7148C146.617 58.7148 147.059 58.6133 147.434 58.4102C147.809 58.207 148.098 57.957 148.301 57.6602C148.512 57.3633 148.621 57.082 148.629 56.8164L149.52 58.2461C149.395 58.5664 149.223 58.8984 149.004 59.2422C148.793 59.5859 148.523 59.9102 148.195 60.2148C147.867 60.5117 147.473 60.7578 147.012 60.9531C146.551 61.1406 146.004 61.2344 145.371 61.2344C144.566 61.2344 143.836 61.0742 143.18 60.7539C142.531 60.4258 142.016 59.9766 141.633 59.4062C141.258 58.8281 141.07 58.1719 141.07 57.4375C141.07 56.7734 141.195 56.1836 141.445 55.668C141.695 55.1523 142.062 54.7188 142.547 54.3672C143.039 54.0078 143.652 53.7383 144.387 53.5586C145.121 53.3711 145.973 53.2773 146.941 53.2773H148.898ZM157.828 50.9453V61H154.441V48.3203H157.617L157.828 50.9453ZM157.359 54.2148H156.422C156.422 53.332 156.527 52.5195 156.738 51.7773C156.957 51.0273 157.273 50.3789 157.688 49.832C158.109 49.2773 158.629 48.8477 159.246 48.543C159.863 48.2383 160.578 48.0859 161.391 48.0859C161.953 48.0859 162.469 48.1719 162.938 48.3438C163.406 48.5078 163.809 48.7695 164.145 49.1289C164.488 49.4805 164.754 49.9414 164.941 50.5117C165.129 51.0742 165.223 51.75 165.223 52.5391V61H161.848V52.9141C161.848 52.3359 161.77 51.8906 161.613 51.5781C161.457 51.2656 161.234 51.0469 160.945 50.9219C160.664 50.7969 160.324 50.7344 159.926 50.7344C159.488 50.7344 159.105 50.8242 158.777 51.0039C158.457 51.1836 158.191 51.4336 157.98 51.7539C157.77 52.0664 157.613 52.4336 157.512 52.8555C157.41 53.2773 157.359 53.7305 157.359 54.2148ZM164.906 53.8281L163.699 53.9805C163.699 53.1523 163.801 52.3828 164.004 51.6719C164.215 50.9609 164.523 50.3359 164.93 49.7969C165.344 49.2578 165.855 48.8398 166.465 48.543C167.074 48.2383 167.777 48.0859 168.574 48.0859C169.184 48.0859 169.738 48.1758 170.238 48.3555C170.738 48.5273 171.164 48.8047 171.516 49.1875C171.875 49.5625 172.148 50.0547 172.336 50.6641C172.531 51.2734 172.629 52.0195 172.629 52.9023V61H169.242V52.9023C169.242 52.3164 169.164 51.8711 169.008 51.5664C168.859 51.2539 168.641 51.0391 168.352 50.9219C168.07 50.7969 167.734 50.7344 167.344 50.7344C166.938 50.7344 166.582 50.8164 166.277 50.9805C165.973 51.1367 165.719 51.3555 165.516 51.6367C165.312 51.918 165.16 52.2461 165.059 52.6211C164.957 52.9883 164.906 53.3906 164.906 53.8281ZM181.43 43.9375H187.793C189.098 43.9375 190.219 44.1328 191.156 44.5234C192.102 44.9141 192.828 45.4922 193.336 46.2578C193.844 47.0234 194.098 47.9648 194.098 49.082C194.098 49.9961 193.941 50.7812 193.629 51.4375C193.324 52.0859 192.891 52.6289 192.328 53.0664C191.773 53.4961 191.121 53.8398 190.371 54.0977L189.258 54.6836H183.727L183.703 51.9414H187.816C188.434 51.9414 188.945 51.832 189.352 51.6133C189.758 51.3945 190.062 51.0898 190.266 50.6992C190.477 50.3086 190.582 49.8555 190.582 49.3398C190.582 48.793 190.48 48.3203 190.277 47.9219C190.074 47.5234 189.766 47.2188 189.352 47.0078C188.938 46.7969 188.418 46.6914 187.793 46.6914H184.945V61H181.43V43.9375ZM190.969 61L187.078 53.3945L190.793 53.3711L194.73 60.8359V61H190.969ZM196.055 54.7891V54.543C196.055 53.6133 196.188 52.7578 196.453 51.9766C196.719 51.1875 197.105 50.5039 197.613 49.9258C198.121 49.3477 198.746 48.8984 199.488 48.5781C200.23 48.25 201.082 48.0859 202.043 48.0859C203.004 48.0859 203.859 48.25 204.609 48.5781C205.359 48.8984 205.988 49.3477 206.496 49.9258C207.012 50.5039 207.402 51.1875 207.668 51.9766C207.934 52.7578 208.066 53.6133 208.066 54.543V54.7891C208.066 55.7109 207.934 56.5664 207.668 57.3555C207.402 58.1367 207.012 58.8203 206.496 59.4062C205.988 59.9844 205.363 60.4336 204.621 60.7539C203.879 61.0742 203.027 61.2344 202.066 61.2344C201.105 61.2344 200.25 61.0742 199.5 60.7539C198.758 60.4336 198.129 59.9844 197.613 59.4062C197.105 58.8203 196.719 58.1367 196.453 57.3555C196.188 56.5664 196.055 55.7109 196.055 54.7891ZM199.43 54.543V54.7891C199.43 55.3203 199.477 55.8164 199.57 56.2773C199.664 56.7383 199.812 57.1445 200.016 57.4961C200.227 57.8398 200.5 58.1094 200.836 58.3047C201.172 58.5 201.582 58.5977 202.066 58.5977C202.535 58.5977 202.938 58.5 203.273 58.3047C203.609 58.1094 203.879 57.8398 204.082 57.4961C204.285 57.1445 204.434 56.7383 204.527 56.2773C204.629 55.8164 204.68 55.3203 204.68 54.7891V54.543C204.68 54.0273 204.629 53.543 204.527 53.0898C204.434 52.6289 204.281 52.2227 204.07 51.8711C203.867 51.5117 203.598 51.2305 203.262 51.0273C202.926 50.8242 202.52 50.7227 202.043 50.7227C201.566 50.7227 201.16 50.8242 200.824 51.0273C200.496 51.2305 200.227 51.5117 200.016 51.8711C199.812 52.2227 199.664 52.6289 199.57 53.0898C199.477 53.543 199.43 54.0273 199.43 54.543ZM214.266 58.5391L217.078 48.3203H220.605L216.328 61H214.195L214.266 58.5391ZM212.332 48.3203L215.156 58.5508L215.215 61H213.07L208.793 48.3203H212.332ZM227.789 61.2344C226.805 61.2344 225.922 61.0781 225.141 60.7656C224.359 60.4453 223.695 60.0039 223.148 59.4414C222.609 58.8789 222.195 58.2266 221.906 57.4844C221.617 56.7344 221.473 55.9375 221.473 55.0938V54.625C221.473 53.6641 221.609 52.7852 221.883 51.9883C222.156 51.1914 222.547 50.5 223.055 49.9141C223.57 49.3281 224.195 48.8789 224.93 48.5664C225.664 48.2461 226.492 48.0859 227.414 48.0859C228.312 48.0859 229.109 48.2344 229.805 48.5312C230.5 48.8281 231.082 49.25 231.551 49.7969C232.027 50.3438 232.387 51 232.629 51.7656C232.871 52.5234 232.992 53.3672 232.992 54.2969V55.7031H222.914V53.4531H229.676V53.1953C229.676 52.7266 229.59 52.3086 229.418 51.9414C229.254 51.5664 229.004 51.2695 228.668 51.0508C228.332 50.832 227.902 50.7227 227.379 50.7227C226.934 50.7227 226.551 50.8203 226.23 51.0156C225.91 51.2109 225.648 51.4844 225.445 51.8359C225.25 52.1875 225.102 52.6016 225 53.0781C224.906 53.5469 224.859 54.0625 224.859 54.625V55.0938C224.859 55.6016 224.93 56.0703 225.07 56.5C225.219 56.9297 225.426 57.3008 225.691 57.6133C225.965 57.9258 226.293 58.168 226.676 58.3398C227.066 58.5117 227.508 58.5977 228 58.5977C228.609 58.5977 229.176 58.4805 229.699 58.2461C230.23 58.0039 230.688 57.6406 231.07 57.1562L232.711 58.9375C232.445 59.3203 232.082 59.6875 231.621 60.0391C231.168 60.3906 230.621 60.6797 229.98 60.9062C229.34 61.125 228.609 61.2344 227.789 61.2344ZM238.289 51.0859V61H234.914V48.3203H238.09L238.289 51.0859ZM242.109 48.2383L242.051 51.3672C241.887 51.3438 241.688 51.3242 241.453 51.3086C241.227 51.2852 241.02 51.2734 240.832 51.2734C240.355 51.2734 239.941 51.3359 239.59 51.4609C239.246 51.5781 238.957 51.7539 238.723 51.9883C238.496 52.2227 238.324 52.5078 238.207 52.8438C238.098 53.1797 238.035 53.5625 238.02 53.9922L237.34 53.7812C237.34 52.9609 237.422 52.207 237.586 51.5195C237.75 50.8242 237.988 50.2188 238.301 49.7031C238.621 49.1875 239.012 48.7891 239.473 48.5078C239.934 48.2266 240.461 48.0859 241.055 48.0859C241.242 48.0859 241.434 48.1016 241.629 48.1328C241.824 48.1562 241.984 48.1914 242.109 48.2383Z" fill="#888888"/>
<path d="M109.219 107.422H100.734V101.07H109.219C110.375 101.07 111.312 100.875 112.031 100.484C112.75 100.094 113.273 99.5547 113.602 98.8672C113.945 98.1641 114.117 97.375 114.117 96.5C114.117 95.5625 113.945 94.6953 113.602 93.8984C113.273 93.1016 112.75 92.4609 112.031 91.9766C111.312 91.4766 110.375 91.2266 109.219 91.2266H103.828V119H95.6016V84.875H109.219C111.953 84.875 114.305 85.375 116.273 86.375C118.258 87.375 119.781 88.75 120.844 90.5C121.906 92.2344 122.438 94.2188 122.438 96.4531C122.438 98.6562 121.906 100.578 120.844 102.219C119.781 103.859 118.258 105.141 116.273 106.062C114.305 106.969 111.953 107.422 109.219 107.422ZM134.461 99.9219V119H126.562V93.6406H133.945L134.461 99.9219ZM141.961 93.4531L141.82 100.789C141.508 100.758 141.086 100.719 140.555 100.672C140.023 100.625 139.578 100.602 139.219 100.602C138.297 100.602 137.5 100.711 136.828 100.93C136.172 101.133 135.625 101.445 135.188 101.867C134.766 102.273 134.453 102.789 134.25 103.414C134.062 104.039 133.977 104.766 133.992 105.594L132.562 104.656C132.562 102.953 132.727 101.406 133.055 100.016C133.398 98.6094 133.883 97.3984 134.508 96.3828C135.133 95.3516 135.891 94.5625 136.781 94.0156C137.672 93.4531 138.672 93.1719 139.781 93.1719C140.172 93.1719 140.555 93.1953 140.93 93.2422C141.32 93.2891 141.664 93.3594 141.961 93.4531ZM142.852 106.578V106.086C142.852 104.227 143.117 102.516 143.648 100.953C144.18 99.375 144.961 98.0078 145.992 96.8516C147.023 95.6953 148.297 94.7969 149.812 94.1562C151.328 93.5 153.078 93.1719 155.062 93.1719C157.062 93.1719 158.82 93.5 160.336 94.1562C161.867 94.7969 163.148 95.6953 164.18 96.8516C165.211 98.0078 165.992 99.375 166.523 100.953C167.055 102.516 167.32 104.227 167.32 106.086V106.578C167.32 108.422 167.055 110.133 166.523 111.711C165.992 113.273 165.211 114.641 164.18 115.812C163.148 116.969 161.875 117.867 160.359 118.508C158.844 119.148 157.094 119.469 155.109 119.469C153.125 119.469 151.367 119.148 149.836 118.508C148.305 117.867 147.023 116.969 145.992 115.812C144.961 114.641 144.18 113.273 143.648 111.711C143.117 110.133 142.852 108.422 142.852 106.578ZM150.75 106.086V106.578C150.75 107.531 150.82 108.422 150.961 109.25C151.102 110.078 151.336 110.805 151.664 111.43C151.992 112.039 152.438 112.516 153 112.859C153.562 113.203 154.266 113.375 155.109 113.375C155.938 113.375 156.625 113.203 157.172 112.859C157.734 112.516 158.18 112.039 158.508 111.43C158.836 110.805 159.07 110.078 159.211 109.25C159.352 108.422 159.422 107.531 159.422 106.578V106.086C159.422 105.164 159.352 104.297 159.211 103.484C159.07 102.656 158.836 101.93 158.508 101.305C158.18 100.664 157.734 100.164 157.172 99.8047C156.609 99.4453 155.906 99.2656 155.062 99.2656C154.234 99.2656 153.539 99.4453 152.977 99.8047C152.43 100.164 151.992 100.664 151.664 101.305C151.336 101.93 151.102 102.656 150.961 103.484C150.82 104.297 150.75 105.164 150.75 106.086ZM184.195 93.6406V99.125H168.914V93.6406H184.195ZM172.125 87.3359H180.023V110.727C180.023 111.398 180.102 111.922 180.258 112.297C180.414 112.656 180.68 112.914 181.055 113.07C181.445 113.211 181.961 113.281 182.602 113.281C183.055 113.281 183.43 113.273 183.727 113.258C184.023 113.227 184.305 113.188 184.57 113.141V118.789C183.898 119.008 183.195 119.172 182.461 119.281C181.727 119.406 180.945 119.469 180.117 119.469C178.43 119.469 176.984 119.203 175.781 118.672C174.594 118.141 173.688 117.305 173.062 116.164C172.438 115.023 172.125 113.539 172.125 111.711V87.3359ZM185.648 106.578V106.086C185.648 104.227 185.914 102.516 186.445 100.953C186.977 99.375 187.758 98.0078 188.789 96.8516C189.82 95.6953 191.094 94.7969 192.609 94.1562C194.125 93.5 195.875 93.1719 197.859 93.1719C199.859 93.1719 201.617 93.5 203.133 94.1562C204.664 94.7969 205.945 95.6953 206.977 96.8516C208.008 98.0078 208.789 99.375 209.32 100.953C209.852 102.516 210.117 104.227 210.117 106.086V106.578C210.117 108.422 209.852 110.133 209.32 111.711C208.789 113.273 208.008 114.641 206.977 115.812C205.945 116.969 204.672 117.867 203.156 118.508C201.641 119.148 199.891 119.469 197.906 119.469C195.922 119.469 194.164 119.148 192.633 118.508C191.102 117.867 189.82 116.969 188.789 115.812C187.758 114.641 186.977 113.273 186.445 111.711C185.914 110.133 185.648 108.422 185.648 106.578ZM193.547 106.086V106.578C193.547 107.531 193.617 108.422 193.758 109.25C193.898 110.078 194.133 110.805 194.461 111.43C194.789 112.039 195.234 112.516 195.797 112.859C196.359 113.203 197.062 113.375 197.906 113.375C198.734 113.375 199.422 113.203 199.969 112.859C200.531 112.516 200.977 112.039 201.305 111.43C201.633 110.805 201.867 110.078 202.008 109.25C202.148 108.422 202.219 107.531 202.219 106.578V106.086C202.219 105.164 202.148 104.297 202.008 103.484C201.867 102.656 201.633 101.93 201.305 101.305C200.977 100.664 200.531 100.164 199.969 99.8047C199.406 99.4453 198.703 99.2656 197.859 99.2656C197.031 99.2656 196.336 99.4453 195.773 99.8047C195.227 100.164 194.789 100.664 194.461 101.305C194.133 101.93 193.898 102.656 193.758 103.484C193.617 104.297 193.547 105.164 193.547 106.086ZM226.992 93.6406V99.125H211.711V93.6406H226.992ZM214.922 87.3359H222.82V110.727C222.82 111.398 222.898 111.922 223.055 112.297C223.211 112.656 223.477 112.914 223.852 113.07C224.242 113.211 224.758 113.281 225.398 113.281C225.852 113.281 226.227 113.273 226.523 113.258C226.82 113.227 227.102 113.188 227.367 113.141V118.789C226.695 119.008 225.992 119.172 225.258 119.281C224.523 119.406 223.742 119.469 222.914 119.469C221.227 119.469 219.781 119.203 218.578 118.672C217.391 118.141 216.484 117.305 215.859 116.164C215.234 115.023 214.922 113.539 214.922 111.711V87.3359ZM237.914 116.023L244.477 93.6406H252.961L242.766 122.773C242.547 123.414 242.258 124.102 241.898 124.836C241.539 125.586 241.047 126.297 240.422 126.969C239.797 127.641 238.992 128.188 238.008 128.609C237.039 129.031 235.836 129.242 234.398 129.242C233.633 129.242 233.07 129.203 232.711 129.125C232.367 129.062 231.836 128.945 231.117 128.773V123.125C231.32 123.125 231.492 123.125 231.633 123.125C231.789 123.125 231.961 123.125 232.148 123.125C232.992 123.125 233.664 123.039 234.164 122.867C234.68 122.695 235.07 122.445 235.336 122.117C235.617 121.789 235.836 121.391 235.992 120.922L237.914 116.023ZM236.25 93.6406L241.242 111.383L242.109 119.75H236.812L227.789 93.6406H236.25ZM262.992 98.5156V128.75H255.094V93.6406H262.453L262.992 98.5156ZM278.555 106.016V106.508C278.555 108.352 278.344 110.062 277.922 111.641C277.5 113.219 276.875 114.594 276.047 115.766C275.219 116.938 274.188 117.852 272.953 118.508C271.734 119.148 270.32 119.469 268.711 119.469C267.195 119.469 265.891 119.133 264.797 118.461C263.703 117.789 262.789 116.859 262.055 115.672C261.32 114.484 260.727 113.125 260.273 111.594C259.82 110.062 259.461 108.445 259.195 106.742V106.109C259.461 104.281 259.82 102.586 260.273 101.023C260.727 99.4453 261.32 98.0703 262.055 96.8984C262.789 95.7266 263.695 94.8125 264.773 94.1562C265.867 93.5 267.172 93.1719 268.688 93.1719C270.297 93.1719 271.711 93.4766 272.93 94.0859C274.164 94.6953 275.195 95.5703 276.023 96.7109C276.867 97.8359 277.5 99.1875 277.922 100.766C278.344 102.344 278.555 104.094 278.555 106.016ZM270.656 106.508V106.016C270.656 105.031 270.586 104.133 270.445 103.32C270.305 102.492 270.078 101.773 269.766 101.164C269.469 100.555 269.07 100.086 268.57 99.7578C268.07 99.4297 267.453 99.2656 266.719 99.2656C265.875 99.2656 265.164 99.3984 264.586 99.6641C264.023 99.9141 263.57 100.305 263.227 100.836C262.898 101.352 262.664 102 262.523 102.781C262.398 103.547 262.344 104.445 262.359 105.477V107.398C262.328 108.586 262.445 109.633 262.711 110.539C262.977 111.43 263.438 112.125 264.094 112.625C264.75 113.125 265.641 113.375 266.766 113.375C267.516 113.375 268.141 113.203 268.641 112.859C269.141 112.5 269.539 112.008 269.836 111.383C270.133 110.742 270.344 110.008 270.469 109.18C270.594 108.352 270.656 107.461 270.656 106.508ZM290.414 93.6406V119H282.492V93.6406H290.414ZM282.023 87.1016C282.023 85.9766 282.43 85.0547 283.242 84.3359C284.055 83.6172 285.109 83.2578 286.406 83.2578C287.703 83.2578 288.758 83.6172 289.57 84.3359C290.383 85.0547 290.789 85.9766 290.789 87.1016C290.789 88.2266 290.383 89.1484 289.57 89.8672C288.758 90.5859 287.703 90.9453 286.406 90.9453C285.109 90.9453 284.055 90.5859 283.242 89.8672C282.43 89.1484 282.023 88.2266 282.023 87.1016ZM303.047 99.0547V119H295.148V93.6406H302.555L303.047 99.0547ZM302.109 105.453L300.258 105.5C300.258 103.562 300.492 101.836 300.961 100.32C301.43 98.7891 302.094 97.4922 302.953 96.4297C303.812 95.3672 304.836 94.5625 306.023 94.0156C307.227 93.4531 308.562 93.1719 310.031 93.1719C311.203 93.1719 312.273 93.3438 313.242 93.6875C314.227 94.0312 315.07 94.5859 315.773 95.3516C316.492 96.1172 317.039 97.1328 317.414 98.3984C317.805 99.6484 318 101.195 318 103.039V119H310.055V103.016C310.055 102 309.914 101.227 309.633 100.695C309.352 100.148 308.945 99.7734 308.414 99.5703C307.883 99.3672 307.234 99.2656 306.469 99.2656C305.656 99.2656 304.969 99.4219 304.406 99.7344C303.844 100.047 303.391 100.484 303.047 101.047C302.719 101.594 302.477 102.242 302.32 102.992C302.18 103.742 302.109 104.562 302.109 105.453ZM338.32 93.6406H345.492V118.016C345.492 120.359 344.953 122.344 343.875 123.969C342.797 125.609 341.289 126.852 339.352 127.695C337.43 128.555 335.18 128.984 332.602 128.984C331.461 128.984 330.297 128.836 329.109 128.539C327.922 128.258 326.812 127.836 325.781 127.273C324.75 126.711 323.883 126.016 323.18 125.188L326.484 120.547C327.125 121.266 327.93 121.875 328.898 122.375C329.867 122.891 331.008 123.148 332.32 123.148C333.461 123.148 334.414 122.945 335.18 122.539C335.961 122.133 336.555 121.539 336.961 120.758C337.367 119.992 337.57 119.062 337.57 117.969V99.6406L338.32 93.6406ZM321.469 106.625V106.133C321.469 104.211 321.703 102.461 322.172 100.883C322.656 99.2891 323.344 97.9219 324.234 96.7812C325.141 95.625 326.234 94.7344 327.516 94.1094C328.797 93.4844 330.242 93.1719 331.852 93.1719C333.586 93.1719 335.008 93.5078 336.117 94.1797C337.242 94.8359 338.141 95.7578 338.812 96.9453C339.5 98.1328 340.031 99.5234 340.406 101.117C340.797 102.695 341.125 104.398 341.391 106.227V106.812C341.125 108.531 340.758 110.156 340.289 111.688C339.836 113.203 339.242 114.547 338.508 115.719C337.773 116.891 336.852 117.812 335.742 118.484C334.648 119.141 333.336 119.469 331.805 119.469C330.211 119.469 328.773 119.148 327.492 118.508C326.227 117.867 325.141 116.969 324.234 115.812C323.344 114.656 322.656 113.297 322.172 111.734C321.703 110.172 321.469 108.469 321.469 106.625ZM329.367 106.133V106.625C329.367 107.578 329.453 108.461 329.625 109.273C329.812 110.086 330.094 110.805 330.469 111.43C330.844 112.039 331.305 112.516 331.852 112.859C332.414 113.203 333.07 113.375 333.82 113.375C334.961 113.375 335.883 113.133 336.586 112.648C337.289 112.164 337.797 111.477 338.109 110.586C338.422 109.695 338.555 108.648 338.508 107.445V105.594C338.539 104.562 338.469 103.656 338.297 102.875C338.125 102.078 337.852 101.414 337.477 100.883C337.117 100.352 336.633 99.9531 336.023 99.6875C335.43 99.4062 334.711 99.2656 333.867 99.2656C333.133 99.2656 332.484 99.4375 331.922 99.7812C331.359 100.125 330.891 100.609 330.516 101.234C330.141 101.844 329.852 102.57 329.648 103.414C329.461 104.242 329.367 105.148 329.367 106.133Z" fill="black"/>
<path d="M1134 0H1348C1356.28 0 1363 6.71573 1363 15V148C1363 156.284 1356.28 163 1348 163H1134V0Z" fill="#524077"/>
<path fill-rule="evenodd" clip-rule="evenodd" d="M1202.75 46.5018C1202.75 45.3973 1203.65 44.5018 1204.75 44.5018H1292.25C1293.35 44.5018 1294.25 45.3973 1294.25 46.5018V116.498C1294.25 117.603 1293.35 118.498 1292.25 118.498H1204.75C1203.65 118.498 1202.75 117.603 1202.75 116.498V46.5018ZM1206.75 48.5018V52.9963H1290.25V48.5018H1206.75ZM1290.25 56.9963H1235.19V114.498H1290.25V56.9963ZM1231.19 114.498V56.9963H1206.75V114.498H1231.19Z" fill="white"/>
<path fill-rule="evenodd" clip-rule="evenodd" d="M1209.72 62.3022C1209.72 61.1976 1210.62 60.3022 1211.72 60.3022H1225.72C1226.83 60.3022 1227.72 61.1976 1227.72 62.3022V81.6974C1227.72 82.802 1226.83 83.6974 1225.72 83.6974H1211.72C1210.62 83.6974 1209.72 82.802 1209.72 81.6974V62.3022ZM1213.72 64.3022V79.6974H1223.72V64.3022H1213.72ZM1239.33 63.1982C1239.33 62.0936 1240.22 61.1982 1241.33 61.1982H1284.25C1285.36 61.1982 1286.25 62.0936 1286.25 63.1982V109.407C1286.25 110.511 1285.36 111.407 1284.25 111.407H1241.33C1240.22 111.407 1239.33 110.511 1239.33 109.407V63.1982ZM1243.33 65.1982V107.407H1282.25V65.1982H1243.33ZM1209.56 93.4381C1209.56 92.3336 1210.46 91.4381 1211.56 91.4381H1220.48C1221.59 91.4381 1222.48 92.3336 1222.48 93.4381C1222.48 94.5427 1221.59 95.4381 1220.48 95.4381H1211.56C1210.46 95.4381 1209.56 94.5427 1209.56 93.4381ZM1209.56 100.438C1209.56 99.3335 1210.46 98.4381 1211.56 98.4381H1226.1C1227.21 98.4381 1228.1 99.3335 1228.1 100.438C1228.1 101.543 1227.21 102.438 1226.1 102.438H1211.56C1210.46 102.438 1209.56 101.543 1209.56 100.438ZM1209.56 107.438C1209.56 106.334 1210.46 105.438 1211.56 105.438H1220.48C1221.59 105.438 1222.48 106.334 1222.48 107.438C1222.48 108.543 1221.59 109.438 1220.48 109.438H1211.56C1210.46 109.438 1209.56 108.543 1209.56 107.438Z" fill="white"/>
</svg>
