<svg width="1363" height="163" viewBox="0 0 1363 163" fill="none" xmlns="http://www.w3.org/2000/svg">
<path d="M0 15C0 6.71573 6.71573 0 15 0H37V163H15C6.71573 163 0 156.284 0 148V15Z" fill="#424242"/>
<rect width="1097" height="163" transform="translate(37)" fill="#F0F0F0"/>
<path d="M101.906 53.9219L94.3945 51.2383V48.0859L104.602 52.375V54.6367L101.906 53.9219ZM94.3945 56.1719L101.918 53.4297L104.602 52.7852V55.0352L94.3945 59.3242V56.1719ZM119.543 54.918H115.195V52.1758H119.543C120.215 52.1758 120.762 52.0664 121.184 51.8477C121.605 51.6211 121.914 51.3086 122.109 50.9102C122.305 50.5117 122.402 50.0625 122.402 49.5625C122.402 49.0547 122.305 48.582 122.109 48.1445C121.914 47.707 121.605 47.3555 121.184 47.0898C120.762 46.8242 120.215 46.6914 119.543 46.6914H116.414V61H112.898V43.9375H119.543C120.879 43.9375 122.023 44.1797 122.977 44.6641C123.938 45.1406 124.672 45.8008 125.18 46.6445C125.688 47.4883 125.941 48.4531 125.941 49.5391C125.941 50.6406 125.688 51.5938 125.18 52.3984C124.672 53.2031 123.938 53.8242 122.977 54.2617C122.023 54.6992 120.879 54.918 119.543 54.918ZM131.719 43V61H128.332V43H131.719ZM141.352 58.1406V52.4922C141.352 52.0859 141.285 51.7383 141.152 51.4492C141.02 51.1523 140.812 50.9219 140.531 50.7578C140.258 50.5938 139.902 50.5117 139.465 50.5117C139.09 50.5117 138.766 50.5781 138.492 50.7109C138.219 50.8359 138.008 51.0195 137.859 51.2617C137.711 51.4961 137.637 51.7734 137.637 52.0938H134.262C134.262 51.5547 134.387 51.043 134.637 50.5586C134.887 50.0742 135.25 49.6484 135.727 49.2812C136.203 48.9062 136.77 48.6133 137.426 48.4023C138.09 48.1914 138.832 48.0859 139.652 48.0859C140.637 48.0859 141.512 48.25 142.277 48.5781C143.043 48.9062 143.645 49.3984 144.082 50.0547C144.527 50.7109 144.75 51.5312 144.75 52.5156V57.9414C144.75 58.6367 144.793 59.207 144.879 59.6523C144.965 60.0898 145.09 60.4727 145.254 60.8008V61H141.844C141.68 60.6562 141.555 60.2266 141.469 59.7109C141.391 59.1875 141.352 58.6641 141.352 58.1406ZM141.797 53.2773L141.82 55.1875H139.934C139.488 55.1875 139.102 55.2383 138.773 55.3398C138.445 55.4414 138.176 55.5859 137.965 55.7734C137.754 55.9531 137.598 56.1641 137.496 56.4062C137.402 56.6484 137.355 56.9141 137.355 57.2031C137.355 57.4922 137.422 57.7539 137.555 57.9883C137.688 58.2148 137.879 58.3945 138.129 58.5273C138.379 58.6523 138.672 58.7148 139.008 58.7148C139.516 58.7148 139.957 58.6133 140.332 58.4102C140.707 58.207 140.996 57.957 141.199 57.6602C141.41 57.3633 141.52 57.082 141.527 56.8164L142.418 58.2461C142.293 58.5664 142.121 58.8984 141.902 59.2422C141.691 59.5859 141.422 59.9102 141.094 60.2148C140.766 60.5117 140.371 60.7578 139.91 60.9531C139.449 61.1406 138.902 61.2344 138.27 61.2344C137.465 61.2344 136.734 61.0742 136.078 60.7539C135.43 60.4258 134.914 59.9766 134.531 59.4062C134.156 58.8281 133.969 58.1719 133.969 57.4375C133.969 56.7734 134.094 56.1836 134.344 55.668C134.594 55.1523 134.961 54.7188 135.445 54.3672C135.938 54.0078 136.551 53.7383 137.285 53.5586C138.02 53.3711 138.871 53.2773 139.84 53.2773H141.797ZM150.656 51.0273V61H147.281V48.3203H150.445L150.656 51.0273ZM150.164 54.2148H149.25C149.25 53.2773 149.371 52.4336 149.613 51.6836C149.855 50.9258 150.195 50.2812 150.633 49.75C151.07 49.2109 151.59 48.8008 152.191 48.5195C152.801 48.2305 153.48 48.0859 154.23 48.0859C154.824 48.0859 155.367 48.1719 155.859 48.3438C156.352 48.5156 156.773 48.7891 157.125 49.1641C157.484 49.5391 157.758 50.0352 157.945 50.6523C158.141 51.2695 158.238 52.0234 158.238 52.9141V61H154.84V52.9023C154.84 52.3398 154.762 51.9023 154.605 51.5898C154.449 51.2773 154.219 51.0586 153.914 50.9336C153.617 50.8008 153.25 50.7344 152.812 50.7344C152.359 50.7344 151.965 50.8242 151.629 51.0039C151.301 51.1836 151.027 51.4336 150.809 51.7539C150.598 52.0664 150.438 52.4336 150.328 52.8555C150.219 53.2773 150.164 53.7305 150.164 54.2148ZM173.93 46.8555L169.289 61H165.551L171.891 43.9375H174.27L173.93 46.8555ZM177.785 61L173.133 46.8555L172.758 43.9375H175.16L181.535 61H177.785ZM177.574 54.6484V57.4023H168.562V54.6484H177.574ZM190.395 58.2344V43H193.793V61H190.734L190.395 58.2344ZM182.379 54.8125V54.5664C182.379 53.5977 182.488 52.7188 182.707 51.9297C182.926 51.1328 183.246 50.4492 183.668 49.8789C184.09 49.3086 184.609 48.8672 185.227 48.5547C185.844 48.2422 186.547 48.0859 187.336 48.0859C188.078 48.0859 188.727 48.2422 189.281 48.5547C189.844 48.8672 190.32 49.3125 190.711 49.8906C191.109 50.4609 191.43 51.1367 191.672 51.918C191.914 52.6914 192.09 53.5391 192.199 54.4609V55C192.09 55.8828 191.914 56.7031 191.672 57.4609C191.43 58.2188 191.109 58.8828 190.711 59.4531C190.32 60.0156 189.844 60.4531 189.281 60.7656C188.719 61.0781 188.062 61.2344 187.312 61.2344C186.523 61.2344 185.82 61.0742 185.203 60.7539C184.594 60.4336 184.078 59.9844 183.656 59.4062C183.242 58.8281 182.926 58.1484 182.707 57.3672C182.488 56.5859 182.379 55.7344 182.379 54.8125ZM185.754 54.5664V54.8125C185.754 55.3359 185.793 55.8242 185.871 56.2773C185.957 56.7305 186.094 57.1328 186.281 57.4844C186.477 57.8281 186.727 58.0977 187.031 58.293C187.344 58.4805 187.723 58.5742 188.168 58.5742C188.746 58.5742 189.223 58.4453 189.598 58.1875C189.973 57.9219 190.258 57.5586 190.453 57.0977C190.656 56.6367 190.773 56.1055 190.805 55.5039V53.9688C190.781 53.4766 190.711 53.0352 190.594 52.6445C190.484 52.2461 190.32 51.9062 190.102 51.625C189.891 51.3438 189.625 51.125 189.305 50.9688C188.992 50.8125 188.621 50.7344 188.191 50.7344C187.754 50.7344 187.379 50.8359 187.066 51.0391C186.754 51.2344 186.5 51.5039 186.305 51.8477C186.117 52.1914 185.977 52.5977 185.883 53.0664C185.797 53.5273 185.754 54.0273 185.754 54.5664ZM200.742 58.5391L203.555 48.3203H207.082L202.805 61H200.672L200.742 58.5391ZM198.809 48.3203L201.633 58.5508L201.691 61H199.547L195.27 48.3203H198.809ZM214.266 61.2344C213.281 61.2344 212.398 61.0781 211.617 60.7656C210.836 60.4453 210.172 60.0039 209.625 59.4414C209.086 58.8789 208.672 58.2266 208.383 57.4844C208.094 56.7344 207.949 55.9375 207.949 55.0938V54.625C207.949 53.6641 208.086 52.7852 208.359 51.9883C208.633 51.1914 209.023 50.5 209.531 49.9141C210.047 49.3281 210.672 48.8789 211.406 48.5664C212.141 48.2461 212.969 48.0859 213.891 48.0859C214.789 48.0859 215.586 48.2344 216.281 48.5312C216.977 48.8281 217.559 49.25 218.027 49.7969C218.504 50.3438 218.863 51 219.105 51.7656C219.348 52.5234 219.469 53.3672 219.469 54.2969V55.7031H209.391V53.4531H216.152V53.1953C216.152 52.7266 216.066 52.3086 215.895 51.9414C215.73 51.5664 215.48 51.2695 215.145 51.0508C214.809 50.832 214.379 50.7227 213.855 50.7227C213.41 50.7227 213.027 50.8203 212.707 51.0156C212.387 51.2109 212.125 51.4844 211.922 51.8359C211.727 52.1875 211.578 52.6016 211.477 53.0781C211.383 53.5469 211.336 54.0625 211.336 54.625V55.0938C211.336 55.6016 211.406 56.0703 211.547 56.5C211.695 56.9297 211.902 57.3008 212.168 57.6133C212.441 57.9258 212.77 58.168 213.152 58.3398C213.543 58.5117 213.984 58.5977 214.477 58.5977C215.086 58.5977 215.652 58.4805 216.176 58.2461C216.707 58.0039 217.164 57.6406 217.547 57.1562L219.188 58.9375C218.922 59.3203 218.559 59.6875 218.098 60.0391C217.645 60.3906 217.098 60.6797 216.457 60.9062C215.816 61.125 215.086 61.2344 214.266 61.2344ZM224.695 51.0273V61H221.32V48.3203H224.484L224.695 51.0273ZM224.203 54.2148H223.289C223.289 53.2773 223.41 52.4336 223.652 51.6836C223.895 50.9258 224.234 50.2812 224.672 49.75C225.109 49.2109 225.629 48.8008 226.23 48.5195C226.84 48.2305 227.52 48.0859 228.27 48.0859C228.863 48.0859 229.406 48.1719 229.898 48.3438C230.391 48.5156 230.812 48.7891 231.164 49.1641C231.523 49.5391 231.797 50.0352 231.984 50.6523C232.18 51.2695 232.277 52.0234 232.277 52.9141V61H228.879V52.9023C228.879 52.3398 228.801 51.9023 228.645 51.5898C228.488 51.2773 228.258 51.0586 227.953 50.9336C227.656 50.8008 227.289 50.7344 226.852 50.7344C226.398 50.7344 226.004 50.8242 225.668 51.0039C225.34 51.1836 225.066 51.4336 224.848 51.7539C224.637 52.0664 224.477 52.4336 224.367 52.8555C224.258 53.2773 224.203 53.7305 224.203 54.2148ZM241.055 48.3203V50.7109H233.672V48.3203H241.055ZM235.5 45.1914H238.875V57.1797C238.875 57.5469 238.922 57.8281 239.016 58.0234C239.117 58.2188 239.266 58.3555 239.461 58.4336C239.656 58.5039 239.902 58.5391 240.199 58.5391C240.41 58.5391 240.598 58.5312 240.762 58.5156C240.934 58.4922 241.078 58.4688 241.195 58.4453L241.207 60.9297C240.918 61.0234 240.605 61.0977 240.27 61.1523C239.934 61.207 239.562 61.2344 239.156 61.2344C238.414 61.2344 237.766 61.1133 237.211 60.8711C236.664 60.6211 236.242 60.2227 235.945 59.6758C235.648 59.1289 235.5 58.4102 235.5 57.5195V45.1914ZM250.477 57.9648V48.3203H253.852V61H250.676L250.477 57.9648ZM250.852 55.3633L251.848 55.3398C251.848 56.1836 251.75 56.9688 251.555 57.6953C251.359 58.4141 251.066 59.0391 250.676 59.5703C250.285 60.0938 249.793 60.5039 249.199 60.8008C248.605 61.0898 247.906 61.2344 247.102 61.2344C246.484 61.2344 245.914 61.1484 245.391 60.9766C244.875 60.7969 244.43 60.5195 244.055 60.1445C243.688 59.7617 243.398 59.2734 243.188 58.6797C242.984 58.0781 242.883 57.3555 242.883 56.5117V48.3203H246.258V56.5352C246.258 56.9102 246.301 57.2266 246.387 57.4844C246.48 57.7422 246.609 57.9531 246.773 58.1172C246.938 58.2812 247.129 58.3984 247.348 58.4688C247.574 58.5391 247.824 58.5742 248.098 58.5742C248.793 58.5742 249.34 58.4336 249.738 58.1523C250.145 57.8711 250.43 57.4883 250.594 57.0039C250.766 56.5117 250.852 55.9648 250.852 55.3633ZM259.805 51.0859V61H256.43V48.3203H259.605L259.805 51.0859ZM263.625 48.2383L263.566 51.3672C263.402 51.3438 263.203 51.3242 262.969 51.3086C262.742 51.2852 262.535 51.2734 262.348 51.2734C261.871 51.2734 261.457 51.3359 261.105 51.4609C260.762 51.5781 260.473 51.7539 260.238 51.9883C260.012 52.2227 259.84 52.5078 259.723 52.8438C259.613 53.1797 259.551 53.5625 259.535 53.9922L258.855 53.7812C258.855 52.9609 258.938 52.207 259.102 51.5195C259.266 50.8242 259.504 50.2188 259.816 49.7031C260.137 49.1875 260.527 48.7891 260.988 48.5078C261.449 48.2266 261.977 48.0859 262.57 48.0859C262.758 48.0859 262.949 48.1016 263.145 48.1328C263.34 48.1562 263.5 48.1914 263.625 48.2383ZM270.82 61.2344C269.836 61.2344 268.953 61.0781 268.172 60.7656C267.391 60.4453 266.727 60.0039 266.18 59.4414C265.641 58.8789 265.227 58.2266 264.938 57.4844C264.648 56.7344 264.504 55.9375 264.504 55.0938V54.625C264.504 53.6641 264.641 52.7852 264.914 51.9883C265.188 51.1914 265.578 50.5 266.086 49.9141C266.602 49.3281 267.227 48.8789 267.961 48.5664C268.695 48.2461 269.523 48.0859 270.445 48.0859C271.344 48.0859 272.141 48.2344 272.836 48.5312C273.531 48.8281 274.113 49.25 274.582 49.7969C275.059 50.3438 275.418 51 275.66 51.7656C275.902 52.5234 276.023 53.3672 276.023 54.2969V55.7031H265.945V53.4531H272.707V53.1953C272.707 52.7266 272.621 52.3086 272.449 51.9414C272.285 51.5664 272.035 51.2695 271.699 51.0508C271.363 50.832 270.934 50.7227 270.41 50.7227C269.965 50.7227 269.582 50.8203 269.262 51.0156C268.941 51.2109 268.68 51.4844 268.477 51.8359C268.281 52.1875 268.133 52.6016 268.031 53.0781C267.938 53.5469 267.891 54.0625 267.891 54.625V55.0938C267.891 55.6016 267.961 56.0703 268.102 56.5C268.25 56.9297 268.457 57.3008 268.723 57.6133C268.996 57.9258 269.324 58.168 269.707 58.3398C270.098 58.5117 270.539 58.5977 271.031 58.5977C271.641 58.5977 272.207 58.4805 272.73 58.2461C273.262 58.0039 273.719 57.6406 274.102 57.1562L275.742 58.9375C275.477 59.3203 275.113 59.6875 274.652 60.0391C274.199 60.3906 273.652 60.6797 273.012 60.9062C272.371 61.125 271.641 61.2344 270.82 61.2344ZM284.801 57.4961C284.801 57.2539 284.73 57.0352 284.59 56.8398C284.449 56.6445 284.188 56.4648 283.805 56.3008C283.43 56.1289 282.887 55.9727 282.176 55.832C281.535 55.6914 280.938 55.5156 280.383 55.3047C279.836 55.0859 279.359 54.8242 278.953 54.5195C278.555 54.2148 278.242 53.8555 278.016 53.4414C277.789 53.0195 277.676 52.5391 277.676 52C277.676 51.4688 277.789 50.9688 278.016 50.5C278.25 50.0312 278.582 49.6172 279.012 49.2578C279.449 48.8906 279.98 48.6055 280.605 48.4023C281.238 48.1914 281.949 48.0859 282.738 48.0859C283.84 48.0859 284.785 48.2617 285.574 48.6133C286.371 48.9648 286.98 49.4492 287.402 50.0664C287.832 50.6758 288.047 51.3711 288.047 52.1523H284.672C284.672 51.8242 284.602 51.5312 284.461 51.2734C284.328 51.0078 284.117 50.8008 283.828 50.6523C283.547 50.4961 283.18 50.418 282.727 50.418C282.352 50.418 282.027 50.4844 281.754 50.6172C281.48 50.7422 281.27 50.9141 281.121 51.1328C280.98 51.3438 280.91 51.5781 280.91 51.8359C280.91 52.0312 280.949 52.207 281.027 52.3633C281.113 52.5117 281.25 52.6484 281.438 52.7734C281.625 52.8984 281.867 53.0156 282.164 53.125C282.469 53.2266 282.844 53.3203 283.289 53.4062C284.203 53.5938 285.02 53.8398 285.738 54.1445C286.457 54.4414 287.027 54.8477 287.449 55.3633C287.871 55.8711 288.082 56.5391 288.082 57.3672C288.082 57.9297 287.957 58.4453 287.707 58.9141C287.457 59.3828 287.098 59.793 286.629 60.1445C286.16 60.4883 285.598 60.7578 284.941 60.9531C284.293 61.1406 283.562 61.2344 282.75 61.2344C281.57 61.2344 280.57 61.0234 279.75 60.6016C278.938 60.1797 278.32 59.6445 277.898 58.9961C277.484 58.3398 277.277 57.668 277.277 56.9805H280.477C280.492 57.4414 280.609 57.8125 280.828 58.0938C281.055 58.375 281.34 58.5781 281.684 58.7031C282.035 58.8281 282.414 58.8906 282.82 58.8906C283.258 58.8906 283.621 58.832 283.91 58.7148C284.199 58.5898 284.418 58.4258 284.566 58.2227C284.723 58.0117 284.801 57.7695 284.801 57.4961Z" fill="#888888"/>
<path d="M118.594 98.4219V104.75H101.086V98.4219H118.594ZM103.828 84.875V119H95.6016V84.875H103.828ZM124.125 84.875V119H115.922V84.875H124.125ZM127.992 106.578V106.086C127.992 104.227 128.258 102.516 128.789 100.953C129.32 99.375 130.102 98.0078 131.133 96.8516C132.164 95.6953 133.438 94.7969 134.953 94.1562C136.469 93.5 138.219 93.1719 140.203 93.1719C142.203 93.1719 143.961 93.5 145.477 94.1562C147.008 94.7969 148.289 95.6953 149.32 96.8516C150.352 98.0078 151.133 99.375 151.664 100.953C152.195 102.516 152.461 104.227 152.461 106.086V106.578C152.461 108.422 152.195 110.133 151.664 111.711C151.133 113.273 150.352 114.641 149.32 115.812C148.289 116.969 147.016 117.867 145.5 118.508C143.984 119.148 142.234 119.469 140.25 119.469C138.266 119.469 136.508 119.148 134.977 118.508C133.445 117.867 132.164 116.969 131.133 115.812C130.102 114.641 129.32 113.273 128.789 111.711C128.258 110.133 127.992 108.422 127.992 106.578ZM135.891 106.086V106.578C135.891 107.531 135.961 108.422 136.102 109.25C136.242 110.078 136.477 110.805 136.805 111.43C137.133 112.039 137.578 112.516 138.141 112.859C138.703 113.203 139.406 113.375 140.25 113.375C141.078 113.375 141.766 113.203 142.312 112.859C142.875 112.516 143.32 112.039 143.648 111.43C143.977 110.805 144.211 110.078 144.352 109.25C144.492 108.422 144.562 107.531 144.562 106.578V106.086C144.562 105.164 144.492 104.297 144.352 103.484C144.211 102.656 143.977 101.93 143.648 101.305C143.32 100.664 142.875 100.164 142.312 99.8047C141.75 99.4453 141.047 99.2656 140.203 99.2656C139.375 99.2656 138.68 99.4453 138.117 99.8047C137.57 100.164 137.133 100.664 136.805 101.305C136.477 101.93 136.242 102.656 136.102 103.484C135.961 104.297 135.891 105.164 135.891 106.086ZM163.688 111.453L168.375 93.6406H173.32L171.562 102.57L166.922 119H162.961L163.688 111.453ZM161.836 93.6406L164.742 111.312L165.07 119H160.266L154.266 93.6406H161.836ZM177.492 110.938L180.422 93.6406H187.992L182.039 119H177.234L177.492 110.938ZM173.883 93.6406L178.617 111.406L179.344 119H175.336L170.789 102.617L169.102 93.6406H173.883ZM218.297 84.875V119H210.07V84.875H218.297ZM228.562 84.875V91.2266H200.039V84.875H228.562ZM225.773 106.578V106.086C225.773 104.227 226.039 102.516 226.57 100.953C227.102 99.375 227.883 98.0078 228.914 96.8516C229.945 95.6953 231.219 94.7969 232.734 94.1562C234.25 93.5 236 93.1719 237.984 93.1719C239.984 93.1719 241.742 93.5 243.258 94.1562C244.789 94.7969 246.07 95.6953 247.102 96.8516C248.133 98.0078 248.914 99.375 249.445 100.953C249.977 102.516 250.242 104.227 250.242 106.086V106.578C250.242 108.422 249.977 110.133 249.445 111.711C248.914 113.273 248.133 114.641 247.102 115.812C246.07 116.969 244.797 117.867 243.281 118.508C241.766 119.148 240.016 119.469 238.031 119.469C236.047 119.469 234.289 119.148 232.758 118.508C231.227 117.867 229.945 116.969 228.914 115.812C227.883 114.641 227.102 113.273 226.57 111.711C226.039 110.133 225.773 108.422 225.773 106.578ZM233.672 106.086V106.578C233.672 107.531 233.742 108.422 233.883 109.25C234.023 110.078 234.258 110.805 234.586 111.43C234.914 112.039 235.359 112.516 235.922 112.859C236.484 113.203 237.188 113.375 238.031 113.375C238.859 113.375 239.547 113.203 240.094 112.859C240.656 112.516 241.102 112.039 241.43 111.43C241.758 110.805 241.992 110.078 242.133 109.25C242.273 108.422 242.344 107.531 242.344 106.578V106.086C242.344 105.164 242.273 104.297 242.133 103.484C241.992 102.656 241.758 101.93 241.43 101.305C241.102 100.664 240.656 100.164 240.094 99.8047C239.531 99.4453 238.828 99.2656 237.984 99.2656C237.156 99.2656 236.461 99.4453 235.898 99.8047C235.352 100.164 234.914 100.664 234.586 101.305C234.258 101.93 234.023 102.656 233.883 103.484C233.742 104.297 233.672 105.164 233.672 106.086ZM266.086 84.875H279.516C282.141 84.875 284.422 85.2656 286.359 86.0469C288.297 86.8281 289.789 87.9844 290.836 89.5156C291.898 91.0469 292.43 92.9375 292.43 95.1875C292.43 97.1406 292.125 98.7734 291.516 100.086C290.906 101.398 290.055 102.484 288.961 103.344C287.883 104.188 286.625 104.883 285.188 105.43L282.492 106.953H271.219L271.172 100.602H279.516C280.562 100.602 281.43 100.414 282.117 100.039C282.805 99.6641 283.32 99.1328 283.664 98.4453C284.023 97.7422 284.203 96.9062 284.203 95.9375C284.203 94.9531 284.023 94.1094 283.664 93.4062C283.305 92.7031 282.773 92.1641 282.07 91.7891C281.383 91.4141 280.531 91.2266 279.516 91.2266H274.312V119H266.086V84.875ZM284.766 119L277.219 103.906L285.938 103.859L293.578 118.648V119H284.766ZM311.836 112.836V93.6406H319.758V119H312.352L311.836 112.836ZM312.586 107.68L314.648 107.633C314.648 109.336 314.445 110.914 314.039 112.367C313.633 113.805 313.031 115.055 312.234 116.117C311.453 117.18 310.484 118.008 309.328 118.602C308.188 119.18 306.867 119.469 305.367 119.469C304.117 119.469 302.969 119.297 301.922 118.953C300.891 118.594 300 118.039 299.25 117.289C298.5 116.523 297.914 115.547 297.492 114.359C297.086 113.156 296.883 111.719 296.883 110.047V93.6406H304.781V110.094C304.781 110.656 304.852 111.141 304.992 111.547C305.133 111.953 305.336 112.297 305.602 112.578C305.867 112.844 306.195 113.047 306.586 113.188C306.992 113.312 307.453 113.375 307.969 113.375C309.156 113.375 310.086 113.125 310.758 112.625C311.43 112.125 311.898 111.445 312.164 110.586C312.445 109.727 312.586 108.758 312.586 107.68ZM331.875 99.0547V119H323.977V93.6406H331.383L331.875 99.0547ZM330.938 105.453L329.086 105.5C329.086 103.562 329.32 101.836 329.789 100.32C330.258 98.7891 330.922 97.4922 331.781 96.4297C332.641 95.3672 333.664 94.5625 334.852 94.0156C336.055 93.4531 337.391 93.1719 338.859 93.1719C340.031 93.1719 341.102 93.3438 342.07 93.6875C343.055 94.0312 343.898 94.5859 344.602 95.3516C345.32 96.1172 345.867 97.1328 346.242 98.3984C346.633 99.6484 346.828 101.195 346.828 103.039V119H338.883V103.016C338.883 102 338.742 101.227 338.461 100.695C338.18 100.148 337.773 99.7734 337.242 99.5703C336.711 99.3672 336.062 99.2656 335.297 99.2656C334.484 99.2656 333.797 99.4219 333.234 99.7344C332.672 100.047 332.219 100.484 331.875 101.047C331.547 101.594 331.305 102.242 331.148 102.992C331.008 103.742 330.938 104.562 330.938 105.453ZM363.773 108.195H357.047C357.047 106.82 357.141 105.609 357.328 104.562C357.531 103.5 357.875 102.547 358.359 101.703C358.844 100.859 359.5 100.078 360.328 99.3594C361.062 98.75 361.695 98.1641 362.227 97.6016C362.758 97.0391 363.164 96.4688 363.445 95.8906C363.727 95.3125 363.867 94.6953 363.867 94.0391C363.867 93.2266 363.75 92.5625 363.516 92.0469C363.297 91.5312 362.961 91.1484 362.508 90.8984C362.07 90.6328 361.516 90.5 360.844 90.5C360.297 90.5 359.781 90.6328 359.297 90.8984C358.828 91.1641 358.445 91.5781 358.148 92.1406C357.852 92.6875 357.688 93.4141 357.656 94.3203H349.711C349.758 91.9922 350.273 90.1016 351.258 88.6484C352.258 87.1797 353.586 86.1094 355.242 85.4375C356.914 84.75 358.781 84.4062 360.844 84.4062C363.125 84.4062 365.086 84.7578 366.727 85.4609C368.367 86.1641 369.625 87.2109 370.5 88.6016C371.375 89.9766 371.812 91.6719 371.812 93.6875C371.812 95.0312 371.555 96.2031 371.039 97.2031C370.539 98.1875 369.859 99.1094 369 99.9688C368.156 100.812 367.211 101.719 366.164 102.688C365.258 103.484 364.641 104.297 364.312 105.125C363.984 105.938 363.805 106.961 363.773 108.195ZM356.086 115.32C356.086 114.195 356.492 113.258 357.305 112.508C358.117 111.742 359.172 111.359 360.469 111.359C361.766 111.359 362.82 111.742 363.633 112.508C364.445 113.258 364.852 114.195 364.852 115.32C364.852 116.445 364.445 117.391 363.633 118.156C362.82 118.906 361.766 119.281 360.469 119.281C359.172 119.281 358.117 118.906 357.305 118.156C356.492 117.391 356.086 116.445 356.086 115.32Z" fill="black"/>
<path d="M1134 0H1348C1356.28 0 1363 6.71573 1363 15V148C1363 156.284 1356.28 163 1348 163H1134V0Z" fill="#524077"/>
<path d="M1260.62 78.8078C1263.81 78.8078 1266.93 79.7552 1269.59 81.5302C1272.25 83.3052 1274.32 85.8281 1275.54 88.7798C1276.76 91.7315 1277.08 94.9795 1276.46 98.1131C1275.84 101.247 1274.3 104.125 1272.04 106.384C1269.78 108.643 1266.9 110.182 1263.77 110.805C1260.63 111.428 1257.39 111.108 1254.43 109.886C1251.48 108.663 1248.96 106.593 1247.18 103.936C1245.41 101.28 1244.46 98.1565 1244.46 94.9616C1244.46 90.6774 1246.16 86.5686 1249.19 83.5392C1252.22 80.5097 1256.33 78.8078 1260.62 78.8078ZM1260.62 73.4232C1256.36 73.4232 1252.19 74.6864 1248.65 77.0531C1245.11 79.4198 1242.35 82.7836 1240.72 86.7192C1239.09 90.6549 1238.66 94.9855 1239.49 99.1636C1240.32 103.342 1242.37 107.179 1245.39 110.192C1248.4 113.204 1252.24 115.255 1256.41 116.086C1260.59 116.917 1264.92 116.491 1268.86 114.861C1272.79 113.23 1276.16 110.47 1278.52 106.928C1280.89 103.386 1282.15 99.2215 1282.15 94.9616C1282.15 89.2493 1279.88 83.7709 1275.85 79.7317C1271.81 75.6924 1266.33 73.4232 1260.62 73.4232Z" fill="white"/>
<path d="M1274.08 46.4999H1220.23C1218.8 46.4999 1217.43 47.0672 1216.42 48.0771C1215.41 49.0869 1214.85 50.4565 1214.85 51.8845V105.731C1214.85 107.159 1215.41 108.528 1216.42 109.538C1217.43 110.548 1218.8 111.115 1220.23 111.115H1231V105.731H1220.23V68.0383H1279.46V51.8845C1279.46 50.4565 1278.89 49.0869 1277.88 48.0771C1276.87 47.0672 1275.5 46.4999 1274.08 46.4999ZM1220.23 62.6537V51.8845H1274.08V62.6537H1220.23Z" fill="white"/>
<path d="M1255.23 86.8848V103.039L1268.69 94.9617L1255.23 86.8848Z" fill="white"/>
</svg>
